G04 #@! TF.GenerationSoftware,KiCad,Pcbnew,5.0.2-bee76a0~70~ubuntu18.04.1*
G04 #@! TF.CreationDate,2019-05-27T22:26:56+02:00*
G04 #@! TF.ProjectId,flypi,666c7970-692e-46b6-9963-61645f706362,rev?*
G04 #@! TF.SameCoordinates,Original*
G04 #@! TF.FileFunction,Soldermask,Top*
G04 #@! TF.FilePolarity,Negative*
%FSLAX46Y46*%
G04 Gerber Fmt 4.6, Leading zero omitted, Abs format (unit mm)*
G04 Created by KiCad (PCBNEW 5.0.2-bee76a0~70~ubuntu18.04.1) date Mon 27 May 2019 22:26:56 CEST*
%MOMM*%
%LPD*%
G01*
G04 APERTURE LIST*
%ADD10C,0.100000*%
G04 APERTURE END LIST*
D10*
G36*
X123328000Y-132218000D02*
X121528000Y-132218000D01*
X121528000Y-130418000D01*
X123328000Y-130418000D01*
X123328000Y-132218000D01*
X123328000Y-132218000D01*
G37*
G36*
X117524432Y-130431022D02*
X117694081Y-130482485D01*
X117850433Y-130566056D01*
X117987475Y-130678525D01*
X118099944Y-130815567D01*
X118183515Y-130971919D01*
X118234978Y-131141568D01*
X118252354Y-131318000D01*
X118234978Y-131494432D01*
X118183515Y-131664081D01*
X118099944Y-131820433D01*
X117987475Y-131957475D01*
X117850433Y-132069944D01*
X117694081Y-132153515D01*
X117524432Y-132204978D01*
X117392211Y-132218000D01*
X117303789Y-132218000D01*
X117171568Y-132204978D01*
X117001919Y-132153515D01*
X116845567Y-132069944D01*
X116708525Y-131957475D01*
X116596056Y-131820433D01*
X116512485Y-131664081D01*
X116461022Y-131494432D01*
X116443646Y-131318000D01*
X116461022Y-131141568D01*
X116512485Y-130971919D01*
X116596056Y-130815567D01*
X116708525Y-130678525D01*
X116845567Y-130566056D01*
X117001919Y-130482485D01*
X117171568Y-130431022D01*
X117303789Y-130418000D01*
X117392211Y-130418000D01*
X117524432Y-130431022D01*
X117524432Y-130431022D01*
G37*
G36*
X176568253Y-126539801D02*
X176838730Y-126593602D01*
X177049799Y-126681030D01*
X177348296Y-126804671D01*
X177806899Y-127111100D01*
X178196900Y-127501101D01*
X178503329Y-127959704D01*
X178714398Y-128469271D01*
X178822000Y-129010223D01*
X178822000Y-129561777D01*
X178714398Y-130102729D01*
X178503329Y-130612296D01*
X178196900Y-131070899D01*
X177806899Y-131460900D01*
X177348296Y-131767329D01*
X177049799Y-131890970D01*
X176838730Y-131978398D01*
X176568253Y-132032199D01*
X176297777Y-132086000D01*
X175746223Y-132086000D01*
X175475747Y-132032199D01*
X175205270Y-131978398D01*
X174994201Y-131890970D01*
X174695704Y-131767329D01*
X174237101Y-131460900D01*
X173847100Y-131070899D01*
X173540671Y-130612296D01*
X173329602Y-130102729D01*
X173222000Y-129561777D01*
X173222000Y-129010223D01*
X173329602Y-128469271D01*
X173540671Y-127959704D01*
X173847100Y-127501101D01*
X174237101Y-127111100D01*
X174695704Y-126804671D01*
X174994201Y-126681030D01*
X175205270Y-126593602D01*
X175475747Y-126539801D01*
X175746223Y-126486000D01*
X176297777Y-126486000D01*
X176568253Y-126539801D01*
X176568253Y-126539801D01*
G37*
G36*
X110782253Y-126539801D02*
X111052730Y-126593602D01*
X111263799Y-126681030D01*
X111562296Y-126804671D01*
X112020899Y-127111100D01*
X112410900Y-127501101D01*
X112717329Y-127959704D01*
X112928398Y-128469271D01*
X113036000Y-129010223D01*
X113036000Y-129561777D01*
X112928398Y-130102729D01*
X112717329Y-130612296D01*
X112410900Y-131070899D01*
X112020899Y-131460900D01*
X111562296Y-131767329D01*
X111263799Y-131890970D01*
X111052730Y-131978398D01*
X110782253Y-132032199D01*
X110511777Y-132086000D01*
X109960223Y-132086000D01*
X109689747Y-132032199D01*
X109419270Y-131978398D01*
X109208201Y-131890970D01*
X108909704Y-131767329D01*
X108451101Y-131460900D01*
X108061100Y-131070899D01*
X107754671Y-130612296D01*
X107543602Y-130102729D01*
X107436000Y-129561777D01*
X107436000Y-129010223D01*
X107543602Y-128469271D01*
X107754671Y-127959704D01*
X108061100Y-127501101D01*
X108451101Y-127111100D01*
X108909704Y-126804671D01*
X109208201Y-126681030D01*
X109419270Y-126593602D01*
X109689747Y-126539801D01*
X109960223Y-126486000D01*
X110511777Y-126486000D01*
X110782253Y-126539801D01*
X110782253Y-126539801D01*
G37*
G36*
X128927378Y-128131026D02*
X129023136Y-128160074D01*
X129071016Y-128174598D01*
X129119299Y-128200406D01*
X129203392Y-128245355D01*
X129319422Y-128340578D01*
X129414645Y-128456608D01*
X129459594Y-128540701D01*
X129485402Y-128588984D01*
X129485402Y-128588985D01*
X129528974Y-128732623D01*
X129540000Y-128844575D01*
X129540000Y-129219426D01*
X129528974Y-129331378D01*
X129499926Y-129427136D01*
X129485402Y-129475016D01*
X129459594Y-129523299D01*
X129414645Y-129607392D01*
X129414643Y-129607394D01*
X129319425Y-129723419D01*
X129319423Y-129723420D01*
X129319422Y-129723422D01*
X129203391Y-129818645D01*
X129137203Y-129854023D01*
X129071015Y-129889402D01*
X129023135Y-129903926D01*
X128927377Y-129932974D01*
X128778000Y-129947686D01*
X128628622Y-129932974D01*
X128532864Y-129903926D01*
X128484984Y-129889402D01*
X128436701Y-129863594D01*
X128352608Y-129818645D01*
X128306196Y-129780556D01*
X128236581Y-129723425D01*
X128236580Y-129723423D01*
X128236578Y-129723422D01*
X128141355Y-129607391D01*
X128070599Y-129475016D01*
X128070598Y-129475015D01*
X128056074Y-129427135D01*
X128027026Y-129331377D01*
X128016000Y-129219425D01*
X128016000Y-128844574D01*
X128027026Y-128732622D01*
X128070598Y-128588985D01*
X128070598Y-128588984D01*
X128096406Y-128540701D01*
X128141355Y-128456608D01*
X128179444Y-128410196D01*
X128236575Y-128340581D01*
X128236577Y-128340580D01*
X128236578Y-128340578D01*
X128352609Y-128245355D01*
X128418797Y-128209977D01*
X128484985Y-128174598D01*
X128532865Y-128160074D01*
X128628623Y-128131026D01*
X128778000Y-128116314D01*
X128927378Y-128131026D01*
X128927378Y-128131026D01*
G37*
G36*
X136547378Y-128131026D02*
X136643136Y-128160074D01*
X136691016Y-128174598D01*
X136739299Y-128200406D01*
X136823392Y-128245355D01*
X136939422Y-128340578D01*
X137034645Y-128456608D01*
X137079594Y-128540701D01*
X137105402Y-128588984D01*
X137105402Y-128588985D01*
X137148974Y-128732623D01*
X137160000Y-128844575D01*
X137160000Y-129219426D01*
X137148974Y-129331378D01*
X137119926Y-129427136D01*
X137105402Y-129475016D01*
X137079594Y-129523299D01*
X137034645Y-129607392D01*
X137034643Y-129607394D01*
X136939425Y-129723419D01*
X136939423Y-129723420D01*
X136939422Y-129723422D01*
X136823391Y-129818645D01*
X136757203Y-129854023D01*
X136691015Y-129889402D01*
X136643135Y-129903926D01*
X136547377Y-129932974D01*
X136398000Y-129947686D01*
X136248622Y-129932974D01*
X136152864Y-129903926D01*
X136104984Y-129889402D01*
X136056701Y-129863594D01*
X135972608Y-129818645D01*
X135926196Y-129780556D01*
X135856581Y-129723425D01*
X135856580Y-129723423D01*
X135856578Y-129723422D01*
X135761355Y-129607391D01*
X135690599Y-129475016D01*
X135690598Y-129475015D01*
X135676074Y-129427135D01*
X135647026Y-129331377D01*
X135636000Y-129219425D01*
X135636000Y-128844574D01*
X135647026Y-128732622D01*
X135690598Y-128588985D01*
X135690598Y-128588984D01*
X135716406Y-128540701D01*
X135761355Y-128456608D01*
X135799444Y-128410196D01*
X135856575Y-128340581D01*
X135856577Y-128340580D01*
X135856578Y-128340578D01*
X135972609Y-128245355D01*
X136038797Y-128209977D01*
X136104985Y-128174598D01*
X136152865Y-128160074D01*
X136248623Y-128131026D01*
X136398000Y-128116314D01*
X136547378Y-128131026D01*
X136547378Y-128131026D01*
G37*
G36*
X144167378Y-128131026D02*
X144263136Y-128160074D01*
X144311016Y-128174598D01*
X144359299Y-128200406D01*
X144443392Y-128245355D01*
X144559422Y-128340578D01*
X144654645Y-128456608D01*
X144699594Y-128540701D01*
X144725402Y-128588984D01*
X144725402Y-128588985D01*
X144768974Y-128732623D01*
X144780000Y-128844575D01*
X144780000Y-129219426D01*
X144768974Y-129331378D01*
X144739926Y-129427136D01*
X144725402Y-129475016D01*
X144699594Y-129523299D01*
X144654645Y-129607392D01*
X144654643Y-129607394D01*
X144559425Y-129723419D01*
X144559423Y-129723420D01*
X144559422Y-129723422D01*
X144443391Y-129818645D01*
X144377203Y-129854023D01*
X144311015Y-129889402D01*
X144263135Y-129903926D01*
X144167377Y-129932974D01*
X144018000Y-129947686D01*
X143868622Y-129932974D01*
X143772864Y-129903926D01*
X143724984Y-129889402D01*
X143676701Y-129863594D01*
X143592608Y-129818645D01*
X143546196Y-129780556D01*
X143476581Y-129723425D01*
X143476580Y-129723423D01*
X143476578Y-129723422D01*
X143381355Y-129607391D01*
X143310599Y-129475016D01*
X143310598Y-129475015D01*
X143296074Y-129427135D01*
X143267026Y-129331377D01*
X143256000Y-129219425D01*
X143256000Y-128844574D01*
X143267026Y-128732622D01*
X143310598Y-128588985D01*
X143310598Y-128588984D01*
X143336406Y-128540701D01*
X143381355Y-128456608D01*
X143419444Y-128410196D01*
X143476575Y-128340581D01*
X143476577Y-128340580D01*
X143476578Y-128340578D01*
X143592609Y-128245355D01*
X143658797Y-128209977D01*
X143724985Y-128174598D01*
X143772865Y-128160074D01*
X143868623Y-128131026D01*
X144018000Y-128116314D01*
X144167378Y-128131026D01*
X144167378Y-128131026D01*
G37*
G36*
X141627378Y-128131026D02*
X141723136Y-128160074D01*
X141771016Y-128174598D01*
X141819299Y-128200406D01*
X141903392Y-128245355D01*
X142019422Y-128340578D01*
X142114645Y-128456608D01*
X142159594Y-128540701D01*
X142185402Y-128588984D01*
X142185402Y-128588985D01*
X142228974Y-128732623D01*
X142240000Y-128844575D01*
X142240000Y-129219426D01*
X142228974Y-129331378D01*
X142199926Y-129427136D01*
X142185402Y-129475016D01*
X142159594Y-129523299D01*
X142114645Y-129607392D01*
X142114643Y-129607394D01*
X142019425Y-129723419D01*
X142019423Y-129723420D01*
X142019422Y-129723422D01*
X141903391Y-129818645D01*
X141837203Y-129854023D01*
X141771015Y-129889402D01*
X141723135Y-129903926D01*
X141627377Y-129932974D01*
X141478000Y-129947686D01*
X141328622Y-129932974D01*
X141232864Y-129903926D01*
X141184984Y-129889402D01*
X141136701Y-129863594D01*
X141052608Y-129818645D01*
X141006196Y-129780556D01*
X140936581Y-129723425D01*
X140936580Y-129723423D01*
X140936578Y-129723422D01*
X140841355Y-129607391D01*
X140770599Y-129475016D01*
X140770598Y-129475015D01*
X140756074Y-129427135D01*
X140727026Y-129331377D01*
X140716000Y-129219425D01*
X140716000Y-128844574D01*
X140727026Y-128732622D01*
X140770598Y-128588985D01*
X140770598Y-128588984D01*
X140796406Y-128540701D01*
X140841355Y-128456608D01*
X140879444Y-128410196D01*
X140936575Y-128340581D01*
X140936577Y-128340580D01*
X140936578Y-128340578D01*
X141052609Y-128245355D01*
X141118797Y-128209977D01*
X141184985Y-128174598D01*
X141232865Y-128160074D01*
X141328623Y-128131026D01*
X141478000Y-128116314D01*
X141627378Y-128131026D01*
X141627378Y-128131026D01*
G37*
G36*
X139087378Y-128131026D02*
X139183136Y-128160074D01*
X139231016Y-128174598D01*
X139279299Y-128200406D01*
X139363392Y-128245355D01*
X139479422Y-128340578D01*
X139574645Y-128456608D01*
X139619594Y-128540701D01*
X139645402Y-128588984D01*
X139645402Y-128588985D01*
X139688974Y-128732623D01*
X139700000Y-128844575D01*
X139700000Y-129219426D01*
X139688974Y-129331378D01*
X139659926Y-129427136D01*
X139645402Y-129475016D01*
X139619594Y-129523299D01*
X139574645Y-129607392D01*
X139574643Y-129607394D01*
X139479425Y-129723419D01*
X139479423Y-129723420D01*
X139479422Y-129723422D01*
X139363391Y-129818645D01*
X139297203Y-129854023D01*
X139231015Y-129889402D01*
X139183135Y-129903926D01*
X139087377Y-129932974D01*
X138938000Y-129947686D01*
X138788622Y-129932974D01*
X138692864Y-129903926D01*
X138644984Y-129889402D01*
X138596701Y-129863594D01*
X138512608Y-129818645D01*
X138466196Y-129780556D01*
X138396581Y-129723425D01*
X138396580Y-129723423D01*
X138396578Y-129723422D01*
X138301355Y-129607391D01*
X138230599Y-129475016D01*
X138230598Y-129475015D01*
X138216074Y-129427135D01*
X138187026Y-129331377D01*
X138176000Y-129219425D01*
X138176000Y-128844574D01*
X138187026Y-128732622D01*
X138230598Y-128588985D01*
X138230598Y-128588984D01*
X138256406Y-128540701D01*
X138301355Y-128456608D01*
X138339444Y-128410196D01*
X138396575Y-128340581D01*
X138396577Y-128340580D01*
X138396578Y-128340578D01*
X138512609Y-128245355D01*
X138578797Y-128209977D01*
X138644985Y-128174598D01*
X138692865Y-128160074D01*
X138788623Y-128131026D01*
X138938000Y-128116314D01*
X139087378Y-128131026D01*
X139087378Y-128131026D01*
G37*
G36*
X134007378Y-128131026D02*
X134103136Y-128160074D01*
X134151016Y-128174598D01*
X134199299Y-128200406D01*
X134283392Y-128245355D01*
X134399422Y-128340578D01*
X134494645Y-128456608D01*
X134539594Y-128540701D01*
X134565402Y-128588984D01*
X134565402Y-128588985D01*
X134608974Y-128732623D01*
X134620000Y-128844575D01*
X134620000Y-129219426D01*
X134608974Y-129331378D01*
X134579926Y-129427136D01*
X134565402Y-129475016D01*
X134539594Y-129523299D01*
X134494645Y-129607392D01*
X134494643Y-129607394D01*
X134399425Y-129723419D01*
X134399423Y-129723420D01*
X134399422Y-129723422D01*
X134283391Y-129818645D01*
X134217203Y-129854023D01*
X134151015Y-129889402D01*
X134103135Y-129903926D01*
X134007377Y-129932974D01*
X133858000Y-129947686D01*
X133708622Y-129932974D01*
X133612864Y-129903926D01*
X133564984Y-129889402D01*
X133516701Y-129863594D01*
X133432608Y-129818645D01*
X133386196Y-129780556D01*
X133316581Y-129723425D01*
X133316580Y-129723423D01*
X133316578Y-129723422D01*
X133221355Y-129607391D01*
X133150599Y-129475016D01*
X133150598Y-129475015D01*
X133136074Y-129427135D01*
X133107026Y-129331377D01*
X133096000Y-129219425D01*
X133096000Y-128844574D01*
X133107026Y-128732622D01*
X133150598Y-128588985D01*
X133150598Y-128588984D01*
X133176406Y-128540701D01*
X133221355Y-128456608D01*
X133259444Y-128410196D01*
X133316575Y-128340581D01*
X133316577Y-128340580D01*
X133316578Y-128340578D01*
X133432609Y-128245355D01*
X133498797Y-128209977D01*
X133564985Y-128174598D01*
X133612865Y-128160074D01*
X133708623Y-128131026D01*
X133858000Y-128116314D01*
X134007378Y-128131026D01*
X134007378Y-128131026D01*
G37*
G36*
X131467378Y-128131026D02*
X131563136Y-128160074D01*
X131611016Y-128174598D01*
X131659299Y-128200406D01*
X131743392Y-128245355D01*
X131859422Y-128340578D01*
X131954645Y-128456608D01*
X131999594Y-128540701D01*
X132025402Y-128588984D01*
X132025402Y-128588985D01*
X132068974Y-128732623D01*
X132080000Y-128844575D01*
X132080000Y-129219426D01*
X132068974Y-129331378D01*
X132039926Y-129427136D01*
X132025402Y-129475016D01*
X131999594Y-129523299D01*
X131954645Y-129607392D01*
X131954643Y-129607394D01*
X131859425Y-129723419D01*
X131859423Y-129723420D01*
X131859422Y-129723422D01*
X131743391Y-129818645D01*
X131677203Y-129854023D01*
X131611015Y-129889402D01*
X131563135Y-129903926D01*
X131467377Y-129932974D01*
X131318000Y-129947686D01*
X131168622Y-129932974D01*
X131072864Y-129903926D01*
X131024984Y-129889402D01*
X130976701Y-129863594D01*
X130892608Y-129818645D01*
X130846196Y-129780556D01*
X130776581Y-129723425D01*
X130776580Y-129723423D01*
X130776578Y-129723422D01*
X130681355Y-129607391D01*
X130610599Y-129475016D01*
X130610598Y-129475015D01*
X130596074Y-129427135D01*
X130567026Y-129331377D01*
X130556000Y-129219425D01*
X130556000Y-128844574D01*
X130567026Y-128732622D01*
X130610598Y-128588985D01*
X130610598Y-128588984D01*
X130636406Y-128540701D01*
X130681355Y-128456608D01*
X130719444Y-128410196D01*
X130776575Y-128340581D01*
X130776577Y-128340580D01*
X130776578Y-128340578D01*
X130892609Y-128245355D01*
X130958797Y-128209977D01*
X131024985Y-128174598D01*
X131072865Y-128160074D01*
X131168623Y-128131026D01*
X131318000Y-128116314D01*
X131467378Y-128131026D01*
X131467378Y-128131026D01*
G37*
G36*
X132737378Y-123051026D02*
X132833136Y-123080074D01*
X132881016Y-123094598D01*
X132929299Y-123120406D01*
X133013392Y-123165355D01*
X133129422Y-123260578D01*
X133224645Y-123376608D01*
X133269594Y-123460701D01*
X133295402Y-123508984D01*
X133295402Y-123508985D01*
X133338974Y-123652623D01*
X133350000Y-123764575D01*
X133350000Y-124139426D01*
X133338974Y-124251378D01*
X133309926Y-124347136D01*
X133295402Y-124395016D01*
X133269594Y-124443299D01*
X133224645Y-124527392D01*
X133224643Y-124527394D01*
X133129425Y-124643419D01*
X133129423Y-124643420D01*
X133129422Y-124643422D01*
X133013391Y-124738645D01*
X132947203Y-124774023D01*
X132881015Y-124809402D01*
X132833135Y-124823926D01*
X132737377Y-124852974D01*
X132588000Y-124867686D01*
X132438622Y-124852974D01*
X132342864Y-124823926D01*
X132294984Y-124809402D01*
X132246701Y-124783594D01*
X132162608Y-124738645D01*
X132116196Y-124700556D01*
X132046581Y-124643425D01*
X132046580Y-124643423D01*
X132046578Y-124643422D01*
X131951355Y-124527391D01*
X131880599Y-124395016D01*
X131880598Y-124395015D01*
X131866074Y-124347135D01*
X131837026Y-124251377D01*
X131826000Y-124139425D01*
X131826000Y-123764574D01*
X131837026Y-123652622D01*
X131880598Y-123508985D01*
X131880598Y-123508984D01*
X131906406Y-123460701D01*
X131951355Y-123376608D01*
X131989444Y-123330196D01*
X132046575Y-123260581D01*
X132046577Y-123260580D01*
X132046578Y-123260578D01*
X132162609Y-123165355D01*
X132228798Y-123129976D01*
X132294985Y-123094598D01*
X132342865Y-123080074D01*
X132438623Y-123051026D01*
X132588000Y-123036314D01*
X132737378Y-123051026D01*
X132737378Y-123051026D01*
G37*
G36*
X142897378Y-123051026D02*
X142993136Y-123080074D01*
X143041016Y-123094598D01*
X143089299Y-123120406D01*
X143173392Y-123165355D01*
X143289422Y-123260578D01*
X143384645Y-123376608D01*
X143429594Y-123460701D01*
X143455402Y-123508984D01*
X143455402Y-123508985D01*
X143498974Y-123652623D01*
X143510000Y-123764575D01*
X143510000Y-124139426D01*
X143498974Y-124251378D01*
X143469926Y-124347136D01*
X143455402Y-124395016D01*
X143429594Y-124443299D01*
X143384645Y-124527392D01*
X143384643Y-124527394D01*
X143289425Y-124643419D01*
X143289423Y-124643420D01*
X143289422Y-124643422D01*
X143173391Y-124738645D01*
X143107203Y-124774023D01*
X143041015Y-124809402D01*
X142993135Y-124823926D01*
X142897377Y-124852974D01*
X142748000Y-124867686D01*
X142598622Y-124852974D01*
X142502864Y-124823926D01*
X142454984Y-124809402D01*
X142406701Y-124783594D01*
X142322608Y-124738645D01*
X142276196Y-124700556D01*
X142206581Y-124643425D01*
X142206580Y-124643423D01*
X142206578Y-124643422D01*
X142111355Y-124527391D01*
X142040599Y-124395016D01*
X142040598Y-124395015D01*
X142026074Y-124347135D01*
X141997026Y-124251377D01*
X141986000Y-124139425D01*
X141986000Y-123764574D01*
X141997026Y-123652622D01*
X142040598Y-123508985D01*
X142040598Y-123508984D01*
X142066406Y-123460701D01*
X142111355Y-123376608D01*
X142149444Y-123330196D01*
X142206575Y-123260581D01*
X142206577Y-123260580D01*
X142206578Y-123260578D01*
X142322609Y-123165355D01*
X142388798Y-123129976D01*
X142454985Y-123094598D01*
X142502865Y-123080074D01*
X142598623Y-123051026D01*
X142748000Y-123036314D01*
X142897378Y-123051026D01*
X142897378Y-123051026D01*
G37*
G36*
X145437378Y-123051026D02*
X145533136Y-123080074D01*
X145581016Y-123094598D01*
X145629299Y-123120406D01*
X145713392Y-123165355D01*
X145829422Y-123260578D01*
X145924645Y-123376608D01*
X145969594Y-123460701D01*
X145995402Y-123508984D01*
X145995402Y-123508985D01*
X146038974Y-123652623D01*
X146050000Y-123764575D01*
X146050000Y-124139426D01*
X146038974Y-124251378D01*
X146009926Y-124347136D01*
X145995402Y-124395016D01*
X145969594Y-124443299D01*
X145924645Y-124527392D01*
X145924643Y-124527394D01*
X145829425Y-124643419D01*
X145829423Y-124643420D01*
X145829422Y-124643422D01*
X145713391Y-124738645D01*
X145647203Y-124774023D01*
X145581015Y-124809402D01*
X145533135Y-124823926D01*
X145437377Y-124852974D01*
X145288000Y-124867686D01*
X145138622Y-124852974D01*
X145042864Y-124823926D01*
X144994984Y-124809402D01*
X144946701Y-124783594D01*
X144862608Y-124738645D01*
X144816196Y-124700556D01*
X144746581Y-124643425D01*
X144746580Y-124643423D01*
X144746578Y-124643422D01*
X144651355Y-124527391D01*
X144580599Y-124395016D01*
X144580598Y-124395015D01*
X144566074Y-124347135D01*
X144537026Y-124251377D01*
X144526000Y-124139425D01*
X144526000Y-123764574D01*
X144537026Y-123652622D01*
X144580598Y-123508985D01*
X144580598Y-123508984D01*
X144606406Y-123460701D01*
X144651355Y-123376608D01*
X144689444Y-123330196D01*
X144746575Y-123260581D01*
X144746577Y-123260580D01*
X144746578Y-123260578D01*
X144862609Y-123165355D01*
X144928798Y-123129976D01*
X144994985Y-123094598D01*
X145042865Y-123080074D01*
X145138623Y-123051026D01*
X145288000Y-123036314D01*
X145437378Y-123051026D01*
X145437378Y-123051026D01*
G37*
G36*
X140357378Y-123051026D02*
X140453136Y-123080074D01*
X140501016Y-123094598D01*
X140549299Y-123120406D01*
X140633392Y-123165355D01*
X140749422Y-123260578D01*
X140844645Y-123376608D01*
X140889594Y-123460701D01*
X140915402Y-123508984D01*
X140915402Y-123508985D01*
X140958974Y-123652623D01*
X140970000Y-123764575D01*
X140970000Y-124139426D01*
X140958974Y-124251378D01*
X140929926Y-124347136D01*
X140915402Y-124395016D01*
X140889594Y-124443299D01*
X140844645Y-124527392D01*
X140844643Y-124527394D01*
X140749425Y-124643419D01*
X140749423Y-124643420D01*
X140749422Y-124643422D01*
X140633391Y-124738645D01*
X140567203Y-124774023D01*
X140501015Y-124809402D01*
X140453135Y-124823926D01*
X140357377Y-124852974D01*
X140208000Y-124867686D01*
X140058622Y-124852974D01*
X139962864Y-124823926D01*
X139914984Y-124809402D01*
X139866701Y-124783594D01*
X139782608Y-124738645D01*
X139736196Y-124700556D01*
X139666581Y-124643425D01*
X139666580Y-124643423D01*
X139666578Y-124643422D01*
X139571355Y-124527391D01*
X139500599Y-124395016D01*
X139500598Y-124395015D01*
X139486074Y-124347135D01*
X139457026Y-124251377D01*
X139446000Y-124139425D01*
X139446000Y-123764574D01*
X139457026Y-123652622D01*
X139500598Y-123508985D01*
X139500598Y-123508984D01*
X139526406Y-123460701D01*
X139571355Y-123376608D01*
X139609444Y-123330196D01*
X139666575Y-123260581D01*
X139666577Y-123260580D01*
X139666578Y-123260578D01*
X139782609Y-123165355D01*
X139848798Y-123129976D01*
X139914985Y-123094598D01*
X139962865Y-123080074D01*
X140058623Y-123051026D01*
X140208000Y-123036314D01*
X140357378Y-123051026D01*
X140357378Y-123051026D01*
G37*
G36*
X137817378Y-123051026D02*
X137913136Y-123080074D01*
X137961016Y-123094598D01*
X138009299Y-123120406D01*
X138093392Y-123165355D01*
X138209422Y-123260578D01*
X138304645Y-123376608D01*
X138349594Y-123460701D01*
X138375402Y-123508984D01*
X138375402Y-123508985D01*
X138418974Y-123652623D01*
X138430000Y-123764575D01*
X138430000Y-124139426D01*
X138418974Y-124251378D01*
X138389926Y-124347136D01*
X138375402Y-124395016D01*
X138349594Y-124443299D01*
X138304645Y-124527392D01*
X138304643Y-124527394D01*
X138209425Y-124643419D01*
X138209423Y-124643420D01*
X138209422Y-124643422D01*
X138093391Y-124738645D01*
X138027203Y-124774023D01*
X137961015Y-124809402D01*
X137913135Y-124823926D01*
X137817377Y-124852974D01*
X137668000Y-124867686D01*
X137518622Y-124852974D01*
X137422864Y-124823926D01*
X137374984Y-124809402D01*
X137326701Y-124783594D01*
X137242608Y-124738645D01*
X137196196Y-124700556D01*
X137126581Y-124643425D01*
X137126580Y-124643423D01*
X137126578Y-124643422D01*
X137031355Y-124527391D01*
X136960599Y-124395016D01*
X136960598Y-124395015D01*
X136946074Y-124347135D01*
X136917026Y-124251377D01*
X136906000Y-124139425D01*
X136906000Y-123764574D01*
X136917026Y-123652622D01*
X136960598Y-123508985D01*
X136960598Y-123508984D01*
X136986406Y-123460701D01*
X137031355Y-123376608D01*
X137069444Y-123330196D01*
X137126575Y-123260581D01*
X137126577Y-123260580D01*
X137126578Y-123260578D01*
X137242609Y-123165355D01*
X137308798Y-123129976D01*
X137374985Y-123094598D01*
X137422865Y-123080074D01*
X137518623Y-123051026D01*
X137668000Y-123036314D01*
X137817378Y-123051026D01*
X137817378Y-123051026D01*
G37*
G36*
X135277378Y-123051026D02*
X135373136Y-123080074D01*
X135421016Y-123094598D01*
X135469299Y-123120406D01*
X135553392Y-123165355D01*
X135669422Y-123260578D01*
X135764645Y-123376608D01*
X135809594Y-123460701D01*
X135835402Y-123508984D01*
X135835402Y-123508985D01*
X135878974Y-123652623D01*
X135890000Y-123764575D01*
X135890000Y-124139426D01*
X135878974Y-124251378D01*
X135849926Y-124347136D01*
X135835402Y-124395016D01*
X135809594Y-124443299D01*
X135764645Y-124527392D01*
X135764643Y-124527394D01*
X135669425Y-124643419D01*
X135669423Y-124643420D01*
X135669422Y-124643422D01*
X135553391Y-124738645D01*
X135487203Y-124774023D01*
X135421015Y-124809402D01*
X135373135Y-124823926D01*
X135277377Y-124852974D01*
X135128000Y-124867686D01*
X134978622Y-124852974D01*
X134882864Y-124823926D01*
X134834984Y-124809402D01*
X134786701Y-124783594D01*
X134702608Y-124738645D01*
X134656196Y-124700556D01*
X134586581Y-124643425D01*
X134586580Y-124643423D01*
X134586578Y-124643422D01*
X134491355Y-124527391D01*
X134420599Y-124395016D01*
X134420598Y-124395015D01*
X134406074Y-124347135D01*
X134377026Y-124251377D01*
X134366000Y-124139425D01*
X134366000Y-123764574D01*
X134377026Y-123652622D01*
X134420598Y-123508985D01*
X134420598Y-123508984D01*
X134446406Y-123460701D01*
X134491355Y-123376608D01*
X134529444Y-123330196D01*
X134586575Y-123260581D01*
X134586577Y-123260580D01*
X134586578Y-123260578D01*
X134702609Y-123165355D01*
X134768798Y-123129976D01*
X134834985Y-123094598D01*
X134882865Y-123080074D01*
X134978623Y-123051026D01*
X135128000Y-123036314D01*
X135277378Y-123051026D01*
X135277378Y-123051026D01*
G37*
G36*
X130197378Y-123051026D02*
X130293136Y-123080074D01*
X130341016Y-123094598D01*
X130389299Y-123120406D01*
X130473392Y-123165355D01*
X130589422Y-123260578D01*
X130684645Y-123376608D01*
X130729594Y-123460701D01*
X130755402Y-123508984D01*
X130755402Y-123508985D01*
X130798974Y-123652623D01*
X130810000Y-123764575D01*
X130810000Y-124139426D01*
X130798974Y-124251378D01*
X130769926Y-124347136D01*
X130755402Y-124395016D01*
X130729594Y-124443299D01*
X130684645Y-124527392D01*
X130684643Y-124527394D01*
X130589425Y-124643419D01*
X130589423Y-124643420D01*
X130589422Y-124643422D01*
X130473391Y-124738645D01*
X130407203Y-124774023D01*
X130341015Y-124809402D01*
X130293135Y-124823926D01*
X130197377Y-124852974D01*
X130048000Y-124867686D01*
X129898622Y-124852974D01*
X129802864Y-124823926D01*
X129754984Y-124809402D01*
X129706701Y-124783594D01*
X129622608Y-124738645D01*
X129576196Y-124700556D01*
X129506581Y-124643425D01*
X129506580Y-124643423D01*
X129506578Y-124643422D01*
X129411355Y-124527391D01*
X129340599Y-124395016D01*
X129340598Y-124395015D01*
X129326074Y-124347135D01*
X129297026Y-124251377D01*
X129286000Y-124139425D01*
X129286000Y-123764574D01*
X129297026Y-123652622D01*
X129340598Y-123508985D01*
X129340598Y-123508984D01*
X129366406Y-123460701D01*
X129411355Y-123376608D01*
X129449444Y-123330196D01*
X129506575Y-123260581D01*
X129506577Y-123260580D01*
X129506578Y-123260578D01*
X129622609Y-123165355D01*
X129688798Y-123129976D01*
X129754985Y-123094598D01*
X129802865Y-123080074D01*
X129898623Y-123051026D01*
X130048000Y-123036314D01*
X130197378Y-123051026D01*
X130197378Y-123051026D01*
G37*
G36*
X127657378Y-123051026D02*
X127753136Y-123080074D01*
X127801016Y-123094598D01*
X127849299Y-123120406D01*
X127933392Y-123165355D01*
X128049422Y-123260578D01*
X128144645Y-123376608D01*
X128189594Y-123460701D01*
X128215402Y-123508984D01*
X128215402Y-123508985D01*
X128258974Y-123652623D01*
X128270000Y-123764575D01*
X128270000Y-124139426D01*
X128258974Y-124251378D01*
X128229926Y-124347136D01*
X128215402Y-124395016D01*
X128189594Y-124443299D01*
X128144645Y-124527392D01*
X128144643Y-124527394D01*
X128049425Y-124643419D01*
X128049423Y-124643420D01*
X128049422Y-124643422D01*
X127933391Y-124738645D01*
X127867203Y-124774023D01*
X127801015Y-124809402D01*
X127753135Y-124823926D01*
X127657377Y-124852974D01*
X127508000Y-124867686D01*
X127358622Y-124852974D01*
X127262864Y-124823926D01*
X127214984Y-124809402D01*
X127166701Y-124783594D01*
X127082608Y-124738645D01*
X127036196Y-124700556D01*
X126966581Y-124643425D01*
X126966580Y-124643423D01*
X126966578Y-124643422D01*
X126871355Y-124527391D01*
X126800599Y-124395016D01*
X126800598Y-124395015D01*
X126786074Y-124347135D01*
X126757026Y-124251377D01*
X126746000Y-124139425D01*
X126746000Y-123764574D01*
X126757026Y-123652622D01*
X126800598Y-123508985D01*
X126800598Y-123508984D01*
X126826406Y-123460701D01*
X126871355Y-123376608D01*
X126909444Y-123330196D01*
X126966575Y-123260581D01*
X126966577Y-123260580D01*
X126966578Y-123260578D01*
X127082609Y-123165355D01*
X127148798Y-123129976D01*
X127214985Y-123094598D01*
X127262865Y-123080074D01*
X127358623Y-123051026D01*
X127508000Y-123036314D01*
X127657378Y-123051026D01*
X127657378Y-123051026D01*
G37*
G36*
X117857228Y-121292625D02*
X118016467Y-121358584D01*
X118159783Y-121454345D01*
X118281655Y-121576217D01*
X118377416Y-121719533D01*
X118443375Y-121878772D01*
X118477000Y-122047819D01*
X118477000Y-122220181D01*
X118443375Y-122389228D01*
X118377416Y-122548467D01*
X118281655Y-122691783D01*
X118159783Y-122813655D01*
X118016467Y-122909416D01*
X117857228Y-122975375D01*
X117688181Y-123009000D01*
X117515819Y-123009000D01*
X117346772Y-122975375D01*
X117187533Y-122909416D01*
X117044217Y-122813655D01*
X116922345Y-122691783D01*
X116826584Y-122548467D01*
X116760625Y-122389228D01*
X116727000Y-122220181D01*
X116727000Y-122047819D01*
X116760625Y-121878772D01*
X116826584Y-121719533D01*
X116922345Y-121576217D01*
X117044217Y-121454345D01*
X117187533Y-121358584D01*
X117346772Y-121292625D01*
X117515819Y-121259000D01*
X117688181Y-121259000D01*
X117857228Y-121292625D01*
X117857228Y-121292625D01*
G37*
G36*
X109221228Y-121292625D02*
X109380467Y-121358584D01*
X109523783Y-121454345D01*
X109645655Y-121576217D01*
X109741416Y-121719533D01*
X109807375Y-121878772D01*
X109841000Y-122047819D01*
X109841000Y-122220181D01*
X109807375Y-122389228D01*
X109741416Y-122548467D01*
X109645655Y-122691783D01*
X109523783Y-122813655D01*
X109380467Y-122909416D01*
X109221228Y-122975375D01*
X109052181Y-123009000D01*
X108879819Y-123009000D01*
X108710772Y-122975375D01*
X108551533Y-122909416D01*
X108408217Y-122813655D01*
X108286345Y-122691783D01*
X108190584Y-122548467D01*
X108124625Y-122389228D01*
X108091000Y-122220181D01*
X108091000Y-122047819D01*
X108124625Y-121878772D01*
X108190584Y-121719533D01*
X108286345Y-121576217D01*
X108408217Y-121454345D01*
X108551533Y-121358584D01*
X108710772Y-121292625D01*
X108879819Y-121259000D01*
X109052181Y-121259000D01*
X109221228Y-121292625D01*
X109221228Y-121292625D01*
G37*
G36*
X170555920Y-122654060D02*
X167055800Y-122654060D01*
X167055800Y-119153940D01*
X170555920Y-119153940D01*
X170555920Y-122654060D01*
X170555920Y-122654060D01*
G37*
G36*
X176555400Y-122654060D02*
X173055280Y-122654060D01*
X173055280Y-119153940D01*
X176555400Y-119153940D01*
X176555400Y-122654060D01*
X176555400Y-122654060D01*
G37*
G36*
X135789352Y-119372743D02*
X135934941Y-119433048D01*
X136065973Y-119520601D01*
X136177399Y-119632027D01*
X136264952Y-119763059D01*
X136325257Y-119908648D01*
X136356000Y-120063205D01*
X136356000Y-120220795D01*
X136325257Y-120375352D01*
X136264952Y-120520941D01*
X136177399Y-120651973D01*
X136065973Y-120763399D01*
X135934941Y-120850952D01*
X135789352Y-120911257D01*
X135634795Y-120942000D01*
X135477205Y-120942000D01*
X135322648Y-120911257D01*
X135177059Y-120850952D01*
X135046027Y-120763399D01*
X134934601Y-120651973D01*
X134847048Y-120520941D01*
X134786743Y-120375352D01*
X134756000Y-120220795D01*
X134756000Y-120063205D01*
X134786743Y-119908648D01*
X134847048Y-119763059D01*
X134934601Y-119632027D01*
X135046027Y-119520601D01*
X135177059Y-119433048D01*
X135322648Y-119372743D01*
X135477205Y-119342000D01*
X135634795Y-119342000D01*
X135789352Y-119372743D01*
X135789352Y-119372743D01*
G37*
G36*
X130789352Y-119372743D02*
X130934941Y-119433048D01*
X131065973Y-119520601D01*
X131177399Y-119632027D01*
X131264952Y-119763059D01*
X131325257Y-119908648D01*
X131356000Y-120063205D01*
X131356000Y-120220795D01*
X131325257Y-120375352D01*
X131264952Y-120520941D01*
X131177399Y-120651973D01*
X131065973Y-120763399D01*
X130934941Y-120850952D01*
X130789352Y-120911257D01*
X130634795Y-120942000D01*
X130477205Y-120942000D01*
X130322648Y-120911257D01*
X130177059Y-120850952D01*
X130046027Y-120763399D01*
X129934601Y-120651973D01*
X129847048Y-120520941D01*
X129786743Y-120375352D01*
X129756000Y-120220795D01*
X129756000Y-120063205D01*
X129786743Y-119908648D01*
X129847048Y-119763059D01*
X129934601Y-119632027D01*
X130046027Y-119520601D01*
X130177059Y-119433048D01*
X130322648Y-119372743D01*
X130477205Y-119342000D01*
X130634795Y-119342000D01*
X130789352Y-119372743D01*
X130789352Y-119372743D01*
G37*
G36*
X140187352Y-119372743D02*
X140332941Y-119433048D01*
X140463973Y-119520601D01*
X140575399Y-119632027D01*
X140662952Y-119763059D01*
X140723257Y-119908648D01*
X140754000Y-120063205D01*
X140754000Y-120220795D01*
X140723257Y-120375352D01*
X140662952Y-120520941D01*
X140575399Y-120651973D01*
X140463973Y-120763399D01*
X140332941Y-120850952D01*
X140187352Y-120911257D01*
X140032795Y-120942000D01*
X139875205Y-120942000D01*
X139720648Y-120911257D01*
X139575059Y-120850952D01*
X139444027Y-120763399D01*
X139332601Y-120651973D01*
X139245048Y-120520941D01*
X139184743Y-120375352D01*
X139154000Y-120220795D01*
X139154000Y-120063205D01*
X139184743Y-119908648D01*
X139245048Y-119763059D01*
X139332601Y-119632027D01*
X139444027Y-119520601D01*
X139575059Y-119433048D01*
X139720648Y-119372743D01*
X139875205Y-119342000D01*
X140032795Y-119342000D01*
X140187352Y-119372743D01*
X140187352Y-119372743D01*
G37*
G36*
X145187352Y-119372743D02*
X145332941Y-119433048D01*
X145463973Y-119520601D01*
X145575399Y-119632027D01*
X145662952Y-119763059D01*
X145723257Y-119908648D01*
X145754000Y-120063205D01*
X145754000Y-120220795D01*
X145723257Y-120375352D01*
X145662952Y-120520941D01*
X145575399Y-120651973D01*
X145463973Y-120763399D01*
X145332941Y-120850952D01*
X145187352Y-120911257D01*
X145032795Y-120942000D01*
X144875205Y-120942000D01*
X144720648Y-120911257D01*
X144575059Y-120850952D01*
X144444027Y-120763399D01*
X144332601Y-120651973D01*
X144245048Y-120520941D01*
X144184743Y-120375352D01*
X144154000Y-120220795D01*
X144154000Y-120063205D01*
X144184743Y-119908648D01*
X144245048Y-119763059D01*
X144332601Y-119632027D01*
X144444027Y-119520601D01*
X144575059Y-119433048D01*
X144720648Y-119372743D01*
X144875205Y-119342000D01*
X145032795Y-119342000D01*
X145187352Y-119372743D01*
X145187352Y-119372743D01*
G37*
G36*
X118477000Y-120509000D02*
X116727000Y-120509000D01*
X116727000Y-118759000D01*
X118477000Y-118759000D01*
X118477000Y-120509000D01*
X118477000Y-120509000D01*
G37*
G36*
X109841000Y-120509000D02*
X108091000Y-120509000D01*
X108091000Y-118759000D01*
X109841000Y-118759000D01*
X109841000Y-120509000D01*
X109841000Y-120509000D01*
G37*
G36*
X126236000Y-119378000D02*
X124716000Y-119378000D01*
X124716000Y-117858000D01*
X126236000Y-117858000D01*
X126236000Y-119378000D01*
X126236000Y-119378000D01*
G37*
G36*
X154786511Y-115718005D02*
X154932405Y-115747025D01*
X155163531Y-115842761D01*
X155371541Y-115981749D01*
X155548431Y-116158639D01*
X155548433Y-116158642D01*
X155687419Y-116366649D01*
X155783155Y-116597775D01*
X155797189Y-116668330D01*
X155830939Y-116838000D01*
X155831960Y-116843136D01*
X155831960Y-117093304D01*
X155783155Y-117338665D01*
X155687419Y-117569791D01*
X155548431Y-117777801D01*
X155371541Y-117954691D01*
X155371538Y-117954693D01*
X155163531Y-118093679D01*
X154932405Y-118189415D01*
X154809724Y-118213818D01*
X154687046Y-118238220D01*
X154436874Y-118238220D01*
X154314196Y-118213818D01*
X154191515Y-118189415D01*
X153960389Y-118093679D01*
X153752382Y-117954693D01*
X153752379Y-117954691D01*
X153575489Y-117777801D01*
X153436501Y-117569791D01*
X153340765Y-117338665D01*
X153291960Y-117093304D01*
X153291960Y-116843136D01*
X153292982Y-116838000D01*
X153326731Y-116668330D01*
X153340765Y-116597775D01*
X153436501Y-116366649D01*
X153575487Y-116158642D01*
X153575489Y-116158639D01*
X153752379Y-115981749D01*
X153960389Y-115842761D01*
X154191515Y-115747025D01*
X154337409Y-115718005D01*
X154436874Y-115698220D01*
X154687046Y-115698220D01*
X154786511Y-115718005D01*
X154786511Y-115718005D01*
G37*
G36*
X173555660Y-117955060D02*
X170055540Y-117955060D01*
X170055540Y-114454940D01*
X173555660Y-114454940D01*
X173555660Y-117955060D01*
X173555660Y-117955060D01*
G37*
G36*
X125697683Y-115347206D02*
X125835992Y-115404495D01*
X125960476Y-115487673D01*
X126066327Y-115593524D01*
X126149505Y-115718008D01*
X126206794Y-115856317D01*
X126236000Y-116003145D01*
X126236000Y-116152855D01*
X126206794Y-116299683D01*
X126149505Y-116437992D01*
X126066327Y-116562476D01*
X125960476Y-116668327D01*
X125835992Y-116751505D01*
X125697683Y-116808794D01*
X125550855Y-116838000D01*
X125401145Y-116838000D01*
X125254317Y-116808794D01*
X125116008Y-116751505D01*
X124991524Y-116668327D01*
X124885673Y-116562476D01*
X124802495Y-116437992D01*
X124745206Y-116299683D01*
X124716000Y-116152855D01*
X124716000Y-116003145D01*
X124745206Y-115856317D01*
X124802495Y-115718008D01*
X124885673Y-115593524D01*
X124991524Y-115487673D01*
X125116008Y-115404495D01*
X125254317Y-115347206D01*
X125401145Y-115318000D01*
X125550855Y-115318000D01*
X125697683Y-115347206D01*
X125697683Y-115347206D01*
G37*
G36*
X145382208Y-112341473D02*
X145523241Y-112355363D01*
X145749442Y-112423981D01*
X145749444Y-112423982D01*
X145749447Y-112423983D01*
X145957910Y-112535408D01*
X146140634Y-112685366D01*
X146290592Y-112868090D01*
X146402017Y-113076553D01*
X146402018Y-113076556D01*
X146402019Y-113076558D01*
X146470637Y-113302759D01*
X146493806Y-113538000D01*
X146470637Y-113773241D01*
X146402019Y-113999442D01*
X146402017Y-113999447D01*
X146290592Y-114207910D01*
X146140634Y-114390634D01*
X145957910Y-114540592D01*
X145749447Y-114652017D01*
X145749444Y-114652018D01*
X145749442Y-114652019D01*
X145523241Y-114720637D01*
X145382208Y-114734527D01*
X145346951Y-114738000D01*
X145229049Y-114738000D01*
X145193792Y-114734527D01*
X145052759Y-114720637D01*
X144826558Y-114652019D01*
X144826556Y-114652018D01*
X144826553Y-114652017D01*
X144618090Y-114540592D01*
X144435366Y-114390634D01*
X144285408Y-114207910D01*
X144173983Y-113999447D01*
X144173981Y-113999442D01*
X144105363Y-113773241D01*
X144082194Y-113538000D01*
X144105363Y-113302759D01*
X144173981Y-113076558D01*
X144173982Y-113076556D01*
X144173983Y-113076553D01*
X144285408Y-112868090D01*
X144435366Y-112685366D01*
X144618090Y-112535408D01*
X144826553Y-112423983D01*
X144826556Y-112423982D01*
X144826558Y-112423981D01*
X145052759Y-112355363D01*
X145193792Y-112341473D01*
X145229049Y-112338000D01*
X145346951Y-112338000D01*
X145382208Y-112341473D01*
X145382208Y-112341473D01*
G37*
G36*
X132938026Y-112384115D02*
X133156412Y-112474573D01*
X133352958Y-112605901D01*
X133520099Y-112773042D01*
X133651427Y-112969588D01*
X133741885Y-113187974D01*
X133788000Y-113419809D01*
X133788000Y-113656191D01*
X133741885Y-113888026D01*
X133651427Y-114106412D01*
X133520099Y-114302958D01*
X133352958Y-114470099D01*
X133156412Y-114601427D01*
X132938026Y-114691885D01*
X132706191Y-114738000D01*
X132469809Y-114738000D01*
X132237974Y-114691885D01*
X132019588Y-114601427D01*
X131823042Y-114470099D01*
X131655901Y-114302958D01*
X131524573Y-114106412D01*
X131434115Y-113888026D01*
X131388000Y-113656191D01*
X131388000Y-113419809D01*
X131434115Y-113187974D01*
X131524573Y-112969588D01*
X131655901Y-112773042D01*
X131823042Y-112605901D01*
X132019588Y-112474573D01*
X132237974Y-112384115D01*
X132469809Y-112338000D01*
X132706191Y-112338000D01*
X132938026Y-112384115D01*
X132938026Y-112384115D01*
G37*
G36*
X125697683Y-112807206D02*
X125835992Y-112864495D01*
X125835995Y-112864497D01*
X125905933Y-112911228D01*
X125960476Y-112947673D01*
X126066327Y-113053524D01*
X126149505Y-113178008D01*
X126206794Y-113316317D01*
X126236000Y-113463145D01*
X126236000Y-113612855D01*
X126206794Y-113759683D01*
X126149505Y-113897992D01*
X126066327Y-114022476D01*
X125960476Y-114128327D01*
X125835992Y-114211505D01*
X125697683Y-114268794D01*
X125550855Y-114298000D01*
X125401145Y-114298000D01*
X125254317Y-114268794D01*
X125116008Y-114211505D01*
X124991524Y-114128327D01*
X124885673Y-114022476D01*
X124802495Y-113897992D01*
X124745206Y-113759683D01*
X124716000Y-113612855D01*
X124716000Y-113463145D01*
X124745206Y-113316317D01*
X124802495Y-113178008D01*
X124885673Y-113053524D01*
X124991524Y-112947673D01*
X125046068Y-112911228D01*
X125116005Y-112864497D01*
X125116008Y-112864495D01*
X125254317Y-112807206D01*
X125401145Y-112778000D01*
X125550855Y-112778000D01*
X125697683Y-112807206D01*
X125697683Y-112807206D01*
G37*
G36*
X117857228Y-111814625D02*
X118016467Y-111880584D01*
X118159783Y-111976345D01*
X118281655Y-112098217D01*
X118377416Y-112241533D01*
X118443375Y-112400772D01*
X118477000Y-112569819D01*
X118477000Y-112742181D01*
X118443375Y-112911228D01*
X118377416Y-113070467D01*
X118281655Y-113213783D01*
X118159783Y-113335655D01*
X118016467Y-113431416D01*
X117857228Y-113497375D01*
X117688181Y-113531000D01*
X117515819Y-113531000D01*
X117346772Y-113497375D01*
X117187533Y-113431416D01*
X117044217Y-113335655D01*
X116922345Y-113213783D01*
X116826584Y-113070467D01*
X116760625Y-112911228D01*
X116727000Y-112742181D01*
X116727000Y-112569819D01*
X116760625Y-112400772D01*
X116826584Y-112241533D01*
X116922345Y-112098217D01*
X117044217Y-111976345D01*
X117187533Y-111880584D01*
X117346772Y-111814625D01*
X117515819Y-111781000D01*
X117688181Y-111781000D01*
X117857228Y-111814625D01*
X117857228Y-111814625D01*
G37*
G36*
X109221228Y-111600625D02*
X109380467Y-111666584D01*
X109523783Y-111762345D01*
X109645655Y-111884217D01*
X109741416Y-112027533D01*
X109807375Y-112186772D01*
X109841000Y-112355819D01*
X109841000Y-112528181D01*
X109807375Y-112697228D01*
X109741416Y-112856467D01*
X109645655Y-112999783D01*
X109523783Y-113121655D01*
X109380467Y-113217416D01*
X109221228Y-113283375D01*
X109052181Y-113317000D01*
X108879819Y-113317000D01*
X108710772Y-113283375D01*
X108551533Y-113217416D01*
X108408217Y-113121655D01*
X108286345Y-112999783D01*
X108190584Y-112856467D01*
X108124625Y-112697228D01*
X108091000Y-112528181D01*
X108091000Y-112355819D01*
X108124625Y-112186772D01*
X108190584Y-112027533D01*
X108286345Y-111884217D01*
X108408217Y-111762345D01*
X108551533Y-111666584D01*
X108710772Y-111600625D01*
X108879819Y-111567000D01*
X109052181Y-111567000D01*
X109221228Y-111600625D01*
X109221228Y-111600625D01*
G37*
G36*
X170417811Y-110796546D02*
X170417814Y-110796547D01*
X170417813Y-110796547D01*
X170586152Y-110866275D01*
X170683642Y-110931416D01*
X170737656Y-110967507D01*
X170866493Y-111096344D01*
X170866495Y-111096347D01*
X170967725Y-111247848D01*
X171021657Y-111378052D01*
X171037454Y-111416189D01*
X171073000Y-111594894D01*
X171073000Y-111777106D01*
X171037454Y-111955811D01*
X171037453Y-111955813D01*
X170967725Y-112124152D01*
X170889294Y-112241532D01*
X170866493Y-112275656D01*
X170737656Y-112404493D01*
X170737653Y-112404495D01*
X170586152Y-112505725D01*
X170514488Y-112535409D01*
X170417811Y-112575454D01*
X170239106Y-112611000D01*
X170056894Y-112611000D01*
X169878189Y-112575454D01*
X169781512Y-112535409D01*
X169709848Y-112505725D01*
X169558347Y-112404495D01*
X169558344Y-112404493D01*
X169429507Y-112275656D01*
X169406706Y-112241532D01*
X169328275Y-112124152D01*
X169258547Y-111955813D01*
X169258546Y-111955811D01*
X169223000Y-111777106D01*
X169223000Y-111594894D01*
X169258546Y-111416189D01*
X169274343Y-111378052D01*
X169328275Y-111247848D01*
X169429505Y-111096347D01*
X169429507Y-111096344D01*
X169558344Y-110967507D01*
X169612358Y-110931416D01*
X169709848Y-110866275D01*
X169878187Y-110796547D01*
X169878186Y-110796547D01*
X169878189Y-110796546D01*
X170056894Y-110761000D01*
X170239106Y-110761000D01*
X170417811Y-110796546D01*
X170417811Y-110796546D01*
G37*
G36*
X163417811Y-110796546D02*
X163417814Y-110796547D01*
X163417813Y-110796547D01*
X163586152Y-110866275D01*
X163683642Y-110931416D01*
X163737656Y-110967507D01*
X163866493Y-111096344D01*
X163866495Y-111096347D01*
X163967725Y-111247848D01*
X164021657Y-111378052D01*
X164037454Y-111416189D01*
X164073000Y-111594894D01*
X164073000Y-111777106D01*
X164037454Y-111955811D01*
X164037453Y-111955813D01*
X163967725Y-112124152D01*
X163889294Y-112241532D01*
X163866493Y-112275656D01*
X163737656Y-112404493D01*
X163737653Y-112404495D01*
X163586152Y-112505725D01*
X163514488Y-112535409D01*
X163417811Y-112575454D01*
X163239106Y-112611000D01*
X163056894Y-112611000D01*
X162878189Y-112575454D01*
X162781512Y-112535409D01*
X162709848Y-112505725D01*
X162558347Y-112404495D01*
X162558344Y-112404493D01*
X162429507Y-112275656D01*
X162406706Y-112241532D01*
X162328275Y-112124152D01*
X162258547Y-111955813D01*
X162258546Y-111955811D01*
X162223000Y-111777106D01*
X162223000Y-111594894D01*
X162258546Y-111416189D01*
X162274343Y-111378052D01*
X162328275Y-111247848D01*
X162429505Y-111096347D01*
X162429507Y-111096344D01*
X162558344Y-110967507D01*
X162612358Y-110931416D01*
X162709848Y-110866275D01*
X162878187Y-110796547D01*
X162878186Y-110796547D01*
X162878189Y-110796546D01*
X163056894Y-110761000D01*
X163239106Y-110761000D01*
X163417811Y-110796546D01*
X163417811Y-110796546D01*
G37*
G36*
X117857228Y-109314625D02*
X118016467Y-109380584D01*
X118159783Y-109476345D01*
X118281655Y-109598217D01*
X118377416Y-109741533D01*
X118443375Y-109900772D01*
X118477000Y-110069819D01*
X118477000Y-110242181D01*
X118443375Y-110411228D01*
X118377416Y-110570467D01*
X118281655Y-110713783D01*
X118159783Y-110835655D01*
X118016467Y-110931416D01*
X117857228Y-110997375D01*
X117688181Y-111031000D01*
X117515819Y-111031000D01*
X117346772Y-110997375D01*
X117187533Y-110931416D01*
X117044217Y-110835655D01*
X116922345Y-110713783D01*
X116826584Y-110570467D01*
X116760625Y-110411228D01*
X116727000Y-110242181D01*
X116727000Y-110069819D01*
X116760625Y-109900772D01*
X116826584Y-109741533D01*
X116922345Y-109598217D01*
X117044217Y-109476345D01*
X117187533Y-109380584D01*
X117346772Y-109314625D01*
X117515819Y-109281000D01*
X117688181Y-109281000D01*
X117857228Y-109314625D01*
X117857228Y-109314625D01*
G37*
G36*
X109221228Y-109100625D02*
X109380467Y-109166584D01*
X109523783Y-109262345D01*
X109645655Y-109384217D01*
X109741416Y-109527533D01*
X109807375Y-109686772D01*
X109841000Y-109855819D01*
X109841000Y-110028181D01*
X109807375Y-110197228D01*
X109741416Y-110356467D01*
X109645655Y-110499783D01*
X109523783Y-110621655D01*
X109380467Y-110717416D01*
X109221228Y-110783375D01*
X109052181Y-110817000D01*
X108879819Y-110817000D01*
X108710772Y-110783375D01*
X108551533Y-110717416D01*
X108408217Y-110621655D01*
X108286345Y-110499783D01*
X108190584Y-110356467D01*
X108124625Y-110197228D01*
X108091000Y-110028181D01*
X108091000Y-109855819D01*
X108124625Y-109686772D01*
X108190584Y-109527533D01*
X108286345Y-109384217D01*
X108408217Y-109262345D01*
X108551533Y-109166584D01*
X108710772Y-109100625D01*
X108879819Y-109067000D01*
X109052181Y-109067000D01*
X109221228Y-109100625D01*
X109221228Y-109100625D01*
G37*
G36*
X132938026Y-107558115D02*
X133156412Y-107648573D01*
X133352958Y-107779901D01*
X133520099Y-107947042D01*
X133651427Y-108143588D01*
X133741885Y-108361974D01*
X133788000Y-108593809D01*
X133788000Y-108830191D01*
X133741885Y-109062026D01*
X133651427Y-109280412D01*
X133520099Y-109476958D01*
X133352958Y-109644099D01*
X133156412Y-109775427D01*
X132938026Y-109865885D01*
X132706191Y-109912000D01*
X132469809Y-109912000D01*
X132237974Y-109865885D01*
X132019588Y-109775427D01*
X131823042Y-109644099D01*
X131655901Y-109476958D01*
X131524573Y-109280412D01*
X131434115Y-109062026D01*
X131388000Y-108830191D01*
X131388000Y-108593809D01*
X131434115Y-108361974D01*
X131524573Y-108143588D01*
X131655901Y-107947042D01*
X131823042Y-107779901D01*
X132019588Y-107648573D01*
X132237974Y-107558115D01*
X132469809Y-107512000D01*
X132706191Y-107512000D01*
X132938026Y-107558115D01*
X132938026Y-107558115D01*
G37*
G36*
X145382208Y-107515473D02*
X145523241Y-107529363D01*
X145749442Y-107597981D01*
X145749444Y-107597982D01*
X145749447Y-107597983D01*
X145957910Y-107709408D01*
X146140634Y-107859366D01*
X146290592Y-108042090D01*
X146402017Y-108250553D01*
X146402018Y-108250556D01*
X146402019Y-108250558D01*
X146470637Y-108476759D01*
X146493806Y-108712000D01*
X146470637Y-108947241D01*
X146404099Y-109166584D01*
X146402017Y-109173447D01*
X146290592Y-109381910D01*
X146140634Y-109564634D01*
X145957910Y-109714592D01*
X145749447Y-109826017D01*
X145749444Y-109826018D01*
X145749442Y-109826019D01*
X145523241Y-109894637D01*
X145382208Y-109908527D01*
X145346951Y-109912000D01*
X145229049Y-109912000D01*
X145193792Y-109908527D01*
X145052759Y-109894637D01*
X144826558Y-109826019D01*
X144826556Y-109826018D01*
X144826553Y-109826017D01*
X144618090Y-109714592D01*
X144435366Y-109564634D01*
X144285408Y-109381910D01*
X144173983Y-109173447D01*
X144171901Y-109166584D01*
X144105363Y-108947241D01*
X144082194Y-108712000D01*
X144105363Y-108476759D01*
X144173981Y-108250558D01*
X144173982Y-108250556D01*
X144173983Y-108250553D01*
X144285408Y-108042090D01*
X144435366Y-107859366D01*
X144618090Y-107709408D01*
X144826553Y-107597983D01*
X144826556Y-107597982D01*
X144826558Y-107597981D01*
X145052759Y-107529363D01*
X145193792Y-107515473D01*
X145229049Y-107512000D01*
X145346951Y-107512000D01*
X145382208Y-107515473D01*
X145382208Y-107515473D01*
G37*
G36*
X169654268Y-108187128D02*
X169801679Y-108248187D01*
X169934348Y-108336834D01*
X170047166Y-108449652D01*
X170135813Y-108582321D01*
X170196872Y-108729732D01*
X170228000Y-108886222D01*
X170228000Y-109045778D01*
X170196872Y-109202268D01*
X170135813Y-109349679D01*
X170047166Y-109482348D01*
X169934348Y-109595166D01*
X169801679Y-109683813D01*
X169654268Y-109744872D01*
X169497778Y-109776000D01*
X169338222Y-109776000D01*
X169181732Y-109744872D01*
X169034321Y-109683813D01*
X168901652Y-109595166D01*
X168788834Y-109482348D01*
X168700187Y-109349679D01*
X168639128Y-109202268D01*
X168608000Y-109045778D01*
X168608000Y-108886222D01*
X168639128Y-108729732D01*
X168700187Y-108582321D01*
X168788834Y-108449652D01*
X168901652Y-108336834D01*
X169034321Y-108248187D01*
X169181732Y-108187128D01*
X169338222Y-108156000D01*
X169497778Y-108156000D01*
X169654268Y-108187128D01*
X169654268Y-108187128D01*
G37*
G36*
X167654268Y-108187128D02*
X167801679Y-108248187D01*
X167934348Y-108336834D01*
X168047166Y-108449652D01*
X168135813Y-108582321D01*
X168196872Y-108729732D01*
X168228000Y-108886222D01*
X168228000Y-109045778D01*
X168196872Y-109202268D01*
X168135813Y-109349679D01*
X168047166Y-109482348D01*
X167934348Y-109595166D01*
X167801679Y-109683813D01*
X167654268Y-109744872D01*
X167497778Y-109776000D01*
X167338222Y-109776000D01*
X167181732Y-109744872D01*
X167034321Y-109683813D01*
X166901652Y-109595166D01*
X166788834Y-109482348D01*
X166700187Y-109349679D01*
X166639128Y-109202268D01*
X166608000Y-109045778D01*
X166608000Y-108886222D01*
X166639128Y-108729732D01*
X166700187Y-108582321D01*
X166788834Y-108449652D01*
X166901652Y-108336834D01*
X167034321Y-108248187D01*
X167181732Y-108187128D01*
X167338222Y-108156000D01*
X167497778Y-108156000D01*
X167654268Y-108187128D01*
X167654268Y-108187128D01*
G37*
G36*
X165654268Y-108187128D02*
X165801679Y-108248187D01*
X165934348Y-108336834D01*
X166047166Y-108449652D01*
X166135813Y-108582321D01*
X166196872Y-108729732D01*
X166228000Y-108886222D01*
X166228000Y-109045778D01*
X166196872Y-109202268D01*
X166135813Y-109349679D01*
X166047166Y-109482348D01*
X165934348Y-109595166D01*
X165801679Y-109683813D01*
X165654268Y-109744872D01*
X165497778Y-109776000D01*
X165338222Y-109776000D01*
X165181732Y-109744872D01*
X165034321Y-109683813D01*
X164901652Y-109595166D01*
X164788834Y-109482348D01*
X164700187Y-109349679D01*
X164639128Y-109202268D01*
X164608000Y-109045778D01*
X164608000Y-108886222D01*
X164639128Y-108729732D01*
X164700187Y-108582321D01*
X164788834Y-108449652D01*
X164901652Y-108336834D01*
X165034321Y-108248187D01*
X165181732Y-108187128D01*
X165338222Y-108156000D01*
X165497778Y-108156000D01*
X165654268Y-108187128D01*
X165654268Y-108187128D01*
G37*
G36*
X163654268Y-108187128D02*
X163801679Y-108248187D01*
X163934348Y-108336834D01*
X164047166Y-108449652D01*
X164135813Y-108582321D01*
X164196872Y-108729732D01*
X164228000Y-108886222D01*
X164228000Y-109045778D01*
X164196872Y-109202268D01*
X164135813Y-109349679D01*
X164047166Y-109482348D01*
X163934348Y-109595166D01*
X163801679Y-109683813D01*
X163654268Y-109744872D01*
X163497778Y-109776000D01*
X163338222Y-109776000D01*
X163181732Y-109744872D01*
X163034321Y-109683813D01*
X162901652Y-109595166D01*
X162788834Y-109482348D01*
X162700187Y-109349679D01*
X162639128Y-109202268D01*
X162608000Y-109045778D01*
X162608000Y-108886222D01*
X162639128Y-108729732D01*
X162700187Y-108582321D01*
X162788834Y-108449652D01*
X162901652Y-108336834D01*
X163034321Y-108248187D01*
X163181732Y-108187128D01*
X163338222Y-108156000D01*
X163497778Y-108156000D01*
X163654268Y-108187128D01*
X163654268Y-108187128D01*
G37*
G36*
X117857228Y-106814625D02*
X118016467Y-106880584D01*
X118159783Y-106976345D01*
X118281655Y-107098217D01*
X118377416Y-107241533D01*
X118443375Y-107400772D01*
X118477000Y-107569819D01*
X118477000Y-107742181D01*
X118443375Y-107911228D01*
X118377416Y-108070467D01*
X118281655Y-108213783D01*
X118159783Y-108335655D01*
X118016467Y-108431416D01*
X117857228Y-108497375D01*
X117688181Y-108531000D01*
X117515819Y-108531000D01*
X117346772Y-108497375D01*
X117187533Y-108431416D01*
X117044217Y-108335655D01*
X116922345Y-108213783D01*
X116826584Y-108070467D01*
X116760625Y-107911228D01*
X116727000Y-107742181D01*
X116727000Y-107569819D01*
X116760625Y-107400772D01*
X116826584Y-107241533D01*
X116922345Y-107098217D01*
X117044217Y-106976345D01*
X117187533Y-106880584D01*
X117346772Y-106814625D01*
X117515819Y-106781000D01*
X117688181Y-106781000D01*
X117857228Y-106814625D01*
X117857228Y-106814625D01*
G37*
G36*
X109841000Y-108317000D02*
X108091000Y-108317000D01*
X108091000Y-106567000D01*
X109841000Y-106567000D01*
X109841000Y-108317000D01*
X109841000Y-108317000D01*
G37*
G36*
X163417811Y-105356546D02*
X163417814Y-105356547D01*
X163417813Y-105356547D01*
X163586152Y-105426275D01*
X163586153Y-105426276D01*
X163737656Y-105527507D01*
X163866493Y-105656344D01*
X163866495Y-105656347D01*
X163967725Y-105807848D01*
X164021657Y-105938052D01*
X164037454Y-105976189D01*
X164073000Y-106154894D01*
X164073000Y-106337106D01*
X164037454Y-106515811D01*
X164037453Y-106515813D01*
X163967725Y-106684152D01*
X163967724Y-106684153D01*
X163866493Y-106835656D01*
X163737656Y-106964493D01*
X163737653Y-106964495D01*
X163586152Y-107065725D01*
X163455948Y-107119657D01*
X163417811Y-107135454D01*
X163239106Y-107171000D01*
X163056894Y-107171000D01*
X162878189Y-107135454D01*
X162840052Y-107119657D01*
X162709848Y-107065725D01*
X162558347Y-106964495D01*
X162558344Y-106964493D01*
X162429507Y-106835656D01*
X162328276Y-106684153D01*
X162328275Y-106684152D01*
X162258547Y-106515813D01*
X162258546Y-106515811D01*
X162223000Y-106337106D01*
X162223000Y-106154894D01*
X162258546Y-105976189D01*
X162274343Y-105938052D01*
X162328275Y-105807848D01*
X162429505Y-105656347D01*
X162429507Y-105656344D01*
X162558344Y-105527507D01*
X162709847Y-105426276D01*
X162709848Y-105426275D01*
X162878187Y-105356547D01*
X162878186Y-105356547D01*
X162878189Y-105356546D01*
X163056894Y-105321000D01*
X163239106Y-105321000D01*
X163417811Y-105356546D01*
X163417811Y-105356546D01*
G37*
G36*
X170417811Y-105356546D02*
X170417814Y-105356547D01*
X170417813Y-105356547D01*
X170586152Y-105426275D01*
X170586153Y-105426276D01*
X170737656Y-105527507D01*
X170866493Y-105656344D01*
X170866495Y-105656347D01*
X170967725Y-105807848D01*
X171021657Y-105938052D01*
X171037454Y-105976189D01*
X171073000Y-106154894D01*
X171073000Y-106337106D01*
X171037454Y-106515811D01*
X171037453Y-106515813D01*
X170967725Y-106684152D01*
X170967724Y-106684153D01*
X170866493Y-106835656D01*
X170737656Y-106964493D01*
X170737653Y-106964495D01*
X170586152Y-107065725D01*
X170455948Y-107119657D01*
X170417811Y-107135454D01*
X170239106Y-107171000D01*
X170056894Y-107171000D01*
X169878189Y-107135454D01*
X169840052Y-107119657D01*
X169709848Y-107065725D01*
X169558347Y-106964495D01*
X169558344Y-106964493D01*
X169429507Y-106835656D01*
X169328276Y-106684153D01*
X169328275Y-106684152D01*
X169258547Y-106515813D01*
X169258546Y-106515811D01*
X169223000Y-106337106D01*
X169223000Y-106154894D01*
X169258546Y-105976189D01*
X169274343Y-105938052D01*
X169328275Y-105807848D01*
X169429505Y-105656347D01*
X169429507Y-105656344D01*
X169558344Y-105527507D01*
X169709847Y-105426276D01*
X169709848Y-105426275D01*
X169878187Y-105356547D01*
X169878186Y-105356547D01*
X169878189Y-105356546D01*
X170056894Y-105321000D01*
X170239106Y-105321000D01*
X170417811Y-105356546D01*
X170417811Y-105356546D01*
G37*
G36*
X118477000Y-106031000D02*
X116727000Y-106031000D01*
X116727000Y-104281000D01*
X118477000Y-104281000D01*
X118477000Y-106031000D01*
X118477000Y-106031000D01*
G37*
G36*
X145382208Y-101927473D02*
X145523241Y-101941363D01*
X145749442Y-102009981D01*
X145749444Y-102009982D01*
X145749447Y-102009983D01*
X145957910Y-102121408D01*
X146140634Y-102271366D01*
X146290592Y-102454090D01*
X146402017Y-102662553D01*
X146402018Y-102662556D01*
X146402019Y-102662558D01*
X146470637Y-102888759D01*
X146493806Y-103124000D01*
X146470637Y-103359241D01*
X146411565Y-103553973D01*
X146402017Y-103585447D01*
X146290592Y-103793910D01*
X146140634Y-103976634D01*
X145957910Y-104126592D01*
X145749447Y-104238017D01*
X145749444Y-104238018D01*
X145749442Y-104238019D01*
X145523241Y-104306637D01*
X145382208Y-104320527D01*
X145346951Y-104324000D01*
X145229049Y-104324000D01*
X145193792Y-104320527D01*
X145052759Y-104306637D01*
X144826558Y-104238019D01*
X144826556Y-104238018D01*
X144826553Y-104238017D01*
X144618090Y-104126592D01*
X144435366Y-103976634D01*
X144285408Y-103793910D01*
X144173983Y-103585447D01*
X144164435Y-103553973D01*
X144105363Y-103359241D01*
X144082194Y-103124000D01*
X144105363Y-102888759D01*
X144173981Y-102662558D01*
X144173982Y-102662556D01*
X144173983Y-102662553D01*
X144285408Y-102454090D01*
X144435366Y-102271366D01*
X144618090Y-102121408D01*
X144826553Y-102009983D01*
X144826556Y-102009982D01*
X144826558Y-102009981D01*
X145052759Y-101941363D01*
X145193792Y-101927473D01*
X145229049Y-101924000D01*
X145346951Y-101924000D01*
X145382208Y-101927473D01*
X145382208Y-101927473D01*
G37*
G36*
X132938026Y-101970115D02*
X133156412Y-102060573D01*
X133352958Y-102191901D01*
X133520099Y-102359042D01*
X133651427Y-102555588D01*
X133741885Y-102773974D01*
X133788000Y-103005809D01*
X133788000Y-103242191D01*
X133741885Y-103474026D01*
X133651427Y-103692412D01*
X133520099Y-103888958D01*
X133352958Y-104056099D01*
X133156412Y-104187427D01*
X132938026Y-104277885D01*
X132706191Y-104324000D01*
X132469809Y-104324000D01*
X132237974Y-104277885D01*
X132019588Y-104187427D01*
X131823042Y-104056099D01*
X131655901Y-103888958D01*
X131524573Y-103692412D01*
X131434115Y-103474026D01*
X131388000Y-103242191D01*
X131388000Y-103005809D01*
X131434115Y-102773974D01*
X131524573Y-102555588D01*
X131655901Y-102359042D01*
X131823042Y-102191901D01*
X132019588Y-102060573D01*
X132237974Y-101970115D01*
X132469809Y-101924000D01*
X132706191Y-101924000D01*
X132938026Y-101970115D01*
X132938026Y-101970115D01*
G37*
G36*
X127741352Y-102274743D02*
X127886941Y-102335048D01*
X128017973Y-102422601D01*
X128129399Y-102534027D01*
X128216952Y-102665059D01*
X128277257Y-102810648D01*
X128308000Y-102965205D01*
X128308000Y-103122795D01*
X128277257Y-103277352D01*
X128216952Y-103422941D01*
X128129399Y-103553973D01*
X128017973Y-103665399D01*
X127886941Y-103752952D01*
X127741352Y-103813257D01*
X127586795Y-103844000D01*
X127429205Y-103844000D01*
X127274648Y-103813257D01*
X127129059Y-103752952D01*
X126998027Y-103665399D01*
X126886601Y-103553973D01*
X126799048Y-103422941D01*
X126738743Y-103277352D01*
X126708000Y-103122795D01*
X126708000Y-102965205D01*
X126738743Y-102810648D01*
X126799048Y-102665059D01*
X126886601Y-102534027D01*
X126998027Y-102422601D01*
X127129059Y-102335048D01*
X127274648Y-102274743D01*
X127429205Y-102244000D01*
X127586795Y-102244000D01*
X127741352Y-102274743D01*
X127741352Y-102274743D01*
G37*
G36*
X155831960Y-102998220D02*
X153291960Y-102998220D01*
X153291960Y-100458220D01*
X155831960Y-100458220D01*
X155831960Y-102998220D01*
X155831960Y-102998220D01*
G37*
G36*
X163263286Y-100134172D02*
X163427152Y-100202048D01*
X163427154Y-100202049D01*
X163572671Y-100299281D01*
X163574634Y-100300592D01*
X163700048Y-100426006D01*
X163798592Y-100573488D01*
X163866468Y-100737354D01*
X163901070Y-100911314D01*
X163901070Y-101088686D01*
X163866468Y-101262646D01*
X163798592Y-101426512D01*
X163700048Y-101573994D01*
X163574634Y-101699408D01*
X163574631Y-101699410D01*
X163427154Y-101797951D01*
X163427153Y-101797952D01*
X163427152Y-101797952D01*
X163263286Y-101865828D01*
X163089326Y-101900430D01*
X162911954Y-101900430D01*
X162737994Y-101865828D01*
X162574128Y-101797952D01*
X162574127Y-101797952D01*
X162574126Y-101797951D01*
X162426649Y-101699410D01*
X162426646Y-101699408D01*
X162301232Y-101573994D01*
X162202688Y-101426512D01*
X162134812Y-101262646D01*
X162100210Y-101088686D01*
X162100210Y-100911314D01*
X162134812Y-100737354D01*
X162202688Y-100573488D01*
X162301232Y-100426006D01*
X162426646Y-100300592D01*
X162428609Y-100299281D01*
X162574126Y-100202049D01*
X162574128Y-100202048D01*
X162737994Y-100134172D01*
X162911954Y-100099570D01*
X163089326Y-100099570D01*
X163263286Y-100134172D01*
X163263286Y-100134172D01*
G37*
G36*
X168262006Y-100134172D02*
X168425872Y-100202048D01*
X168425874Y-100202049D01*
X168571391Y-100299281D01*
X168573354Y-100300592D01*
X168698768Y-100426006D01*
X168797312Y-100573488D01*
X168865188Y-100737354D01*
X168899790Y-100911314D01*
X168899790Y-101088686D01*
X168865188Y-101262646D01*
X168797312Y-101426512D01*
X168698768Y-101573994D01*
X168573354Y-101699408D01*
X168573351Y-101699410D01*
X168425874Y-101797951D01*
X168425873Y-101797952D01*
X168425872Y-101797952D01*
X168262006Y-101865828D01*
X168088046Y-101900430D01*
X167910674Y-101900430D01*
X167736714Y-101865828D01*
X167572848Y-101797952D01*
X167572847Y-101797952D01*
X167572846Y-101797951D01*
X167425369Y-101699410D01*
X167425366Y-101699408D01*
X167299952Y-101573994D01*
X167201408Y-101426512D01*
X167133532Y-101262646D01*
X167098930Y-101088686D01*
X167098930Y-100911314D01*
X167133532Y-100737354D01*
X167201408Y-100573488D01*
X167299952Y-100426006D01*
X167425366Y-100300592D01*
X167427329Y-100299281D01*
X167572846Y-100202049D01*
X167572848Y-100202048D01*
X167736714Y-100134172D01*
X167910674Y-100099570D01*
X168088046Y-100099570D01*
X168262006Y-100134172D01*
X168262006Y-100134172D01*
G37*
G36*
X123286026Y-97652115D02*
X123504412Y-97742573D01*
X123700958Y-97873901D01*
X123868099Y-98041042D01*
X123999427Y-98237588D01*
X124089885Y-98455974D01*
X124136000Y-98687809D01*
X124136000Y-98924191D01*
X124089885Y-99156026D01*
X123999427Y-99374412D01*
X123868099Y-99570958D01*
X123700958Y-99738099D01*
X123504412Y-99869427D01*
X123286026Y-99959885D01*
X123054191Y-100006000D01*
X122817809Y-100006000D01*
X122585974Y-99959885D01*
X122367588Y-99869427D01*
X122171042Y-99738099D01*
X122003901Y-99570958D01*
X121872573Y-99374412D01*
X121782115Y-99156026D01*
X121736000Y-98924191D01*
X121736000Y-98687809D01*
X121782115Y-98455974D01*
X121872573Y-98237588D01*
X122003901Y-98041042D01*
X122171042Y-97873901D01*
X122367588Y-97742573D01*
X122585974Y-97652115D01*
X122817809Y-97606000D01*
X123054191Y-97606000D01*
X123286026Y-97652115D01*
X123286026Y-97652115D01*
G37*
G36*
X110330208Y-97609473D02*
X110471241Y-97623363D01*
X110697442Y-97691981D01*
X110697444Y-97691982D01*
X110697447Y-97691983D01*
X110905910Y-97803408D01*
X111088634Y-97953366D01*
X111238592Y-98136090D01*
X111350017Y-98344553D01*
X111350018Y-98344556D01*
X111350019Y-98344558D01*
X111418637Y-98570759D01*
X111441806Y-98806000D01*
X111418637Y-99041241D01*
X111350019Y-99267442D01*
X111350017Y-99267447D01*
X111238592Y-99475910D01*
X111088634Y-99658634D01*
X110905910Y-99808592D01*
X110697447Y-99920017D01*
X110697444Y-99920018D01*
X110697442Y-99920019D01*
X110471241Y-99988637D01*
X110330208Y-100002527D01*
X110294951Y-100006000D01*
X110177049Y-100006000D01*
X110141792Y-100002527D01*
X110000759Y-99988637D01*
X109774558Y-99920019D01*
X109774556Y-99920018D01*
X109774553Y-99920017D01*
X109566090Y-99808592D01*
X109383366Y-99658634D01*
X109233408Y-99475910D01*
X109121983Y-99267447D01*
X109121981Y-99267442D01*
X109053363Y-99041241D01*
X109030194Y-98806000D01*
X109053363Y-98570759D01*
X109121981Y-98344558D01*
X109121982Y-98344556D01*
X109121983Y-98344553D01*
X109233408Y-98136090D01*
X109383366Y-97953366D01*
X109566090Y-97803408D01*
X109774553Y-97691983D01*
X109774556Y-97691982D01*
X109774558Y-97691981D01*
X110000759Y-97623363D01*
X110141792Y-97609473D01*
X110177049Y-97606000D01*
X110294951Y-97606000D01*
X110330208Y-97609473D01*
X110330208Y-97609473D01*
G37*
G36*
X173545021Y-98102086D02*
X173708809Y-98169929D01*
X173856220Y-98268426D01*
X173981574Y-98393780D01*
X174080071Y-98541191D01*
X174147914Y-98704979D01*
X174182500Y-98878856D01*
X174182500Y-99056144D01*
X174147914Y-99230021D01*
X174080071Y-99393809D01*
X173981574Y-99541220D01*
X173856220Y-99666574D01*
X173708809Y-99765071D01*
X173545021Y-99832914D01*
X173371144Y-99867500D01*
X173193856Y-99867500D01*
X173019979Y-99832914D01*
X172856191Y-99765071D01*
X172708780Y-99666574D01*
X172583426Y-99541220D01*
X172484929Y-99393809D01*
X172417086Y-99230021D01*
X172382500Y-99056144D01*
X172382500Y-98878856D01*
X172417086Y-98704979D01*
X172484929Y-98541191D01*
X172583426Y-98393780D01*
X172708780Y-98268426D01*
X172856191Y-98169929D01*
X173019979Y-98102086D01*
X173193856Y-98067500D01*
X173371144Y-98067500D01*
X173545021Y-98102086D01*
X173545021Y-98102086D01*
G37*
G36*
X145382208Y-97355473D02*
X145523241Y-97369363D01*
X145749442Y-97437981D01*
X145749444Y-97437982D01*
X145749447Y-97437983D01*
X145957910Y-97549408D01*
X146140634Y-97699366D01*
X146290592Y-97882090D01*
X146402017Y-98090553D01*
X146402018Y-98090556D01*
X146402019Y-98090558D01*
X146470637Y-98316759D01*
X146493806Y-98552000D01*
X146470637Y-98787241D01*
X146402019Y-99013442D01*
X146402017Y-99013447D01*
X146290592Y-99221910D01*
X146140634Y-99404634D01*
X145957910Y-99554592D01*
X145749447Y-99666017D01*
X145749444Y-99666018D01*
X145749442Y-99666019D01*
X145523241Y-99734637D01*
X145382208Y-99748527D01*
X145346951Y-99752000D01*
X145229049Y-99752000D01*
X145193792Y-99748527D01*
X145052759Y-99734637D01*
X144826558Y-99666019D01*
X144826556Y-99666018D01*
X144826553Y-99666017D01*
X144618090Y-99554592D01*
X144435366Y-99404634D01*
X144285408Y-99221910D01*
X144173983Y-99013447D01*
X144173981Y-99013442D01*
X144105363Y-98787241D01*
X144082194Y-98552000D01*
X144105363Y-98316759D01*
X144173981Y-98090558D01*
X144173982Y-98090556D01*
X144173983Y-98090553D01*
X144285408Y-97882090D01*
X144435366Y-97699366D01*
X144618090Y-97549408D01*
X144826553Y-97437983D01*
X144826556Y-97437982D01*
X144826558Y-97437981D01*
X145052759Y-97369363D01*
X145193792Y-97355473D01*
X145229049Y-97352000D01*
X145346951Y-97352000D01*
X145382208Y-97355473D01*
X145382208Y-97355473D01*
G37*
G36*
X132938026Y-97398115D02*
X133156412Y-97488573D01*
X133352958Y-97619901D01*
X133520099Y-97787042D01*
X133651427Y-97983588D01*
X133741885Y-98201974D01*
X133788000Y-98433809D01*
X133788000Y-98670191D01*
X133741885Y-98902026D01*
X133651427Y-99120412D01*
X133520099Y-99316958D01*
X133352958Y-99484099D01*
X133156412Y-99615427D01*
X132938026Y-99705885D01*
X132706191Y-99752000D01*
X132469809Y-99752000D01*
X132237974Y-99705885D01*
X132019588Y-99615427D01*
X131823042Y-99484099D01*
X131655901Y-99316958D01*
X131524573Y-99120412D01*
X131434115Y-98902026D01*
X131388000Y-98670191D01*
X131388000Y-98433809D01*
X131434115Y-98201974D01*
X131524573Y-97983588D01*
X131655901Y-97787042D01*
X131823042Y-97619901D01*
X132019588Y-97488573D01*
X132237974Y-97398115D01*
X132469809Y-97352000D01*
X132706191Y-97352000D01*
X132938026Y-97398115D01*
X132938026Y-97398115D01*
G37*
G36*
X127741352Y-97274743D02*
X127886941Y-97335048D01*
X128017973Y-97422601D01*
X128129399Y-97534027D01*
X128216952Y-97665059D01*
X128277257Y-97810648D01*
X128308000Y-97965205D01*
X128308000Y-98122795D01*
X128277257Y-98277352D01*
X128216952Y-98422941D01*
X128129399Y-98553973D01*
X128017973Y-98665399D01*
X127886941Y-98752952D01*
X127741352Y-98813257D01*
X127586795Y-98844000D01*
X127429205Y-98844000D01*
X127274648Y-98813257D01*
X127129059Y-98752952D01*
X126998027Y-98665399D01*
X126886601Y-98553973D01*
X126799048Y-98422941D01*
X126738743Y-98277352D01*
X126708000Y-98122795D01*
X126708000Y-97965205D01*
X126738743Y-97810648D01*
X126799048Y-97665059D01*
X126886601Y-97534027D01*
X126998027Y-97422601D01*
X127129059Y-97335048D01*
X127274648Y-97274743D01*
X127429205Y-97244000D01*
X127586795Y-97244000D01*
X127741352Y-97274743D01*
X127741352Y-97274743D01*
G37*
G36*
X177745021Y-96402086D02*
X177908809Y-96469929D01*
X178056220Y-96568426D01*
X178181574Y-96693780D01*
X178280071Y-96841191D01*
X178347914Y-97004979D01*
X178382500Y-97178856D01*
X178382500Y-97356144D01*
X178347914Y-97530021D01*
X178280071Y-97693809D01*
X178181574Y-97841220D01*
X178056220Y-97966574D01*
X177908809Y-98065071D01*
X177745021Y-98132914D01*
X177571144Y-98167500D01*
X177393856Y-98167500D01*
X177219979Y-98132914D01*
X177056191Y-98065071D01*
X176908780Y-97966574D01*
X176783426Y-97841220D01*
X176684929Y-97693809D01*
X176617086Y-97530021D01*
X176582500Y-97356144D01*
X176582500Y-97178856D01*
X176617086Y-97004979D01*
X176684929Y-96841191D01*
X176783426Y-96693780D01*
X176908780Y-96568426D01*
X177056191Y-96469929D01*
X177219979Y-96402086D01*
X177393856Y-96367500D01*
X177571144Y-96367500D01*
X177745021Y-96402086D01*
X177745021Y-96402086D01*
G37*
G36*
X173545021Y-94702086D02*
X173708809Y-94769929D01*
X173856220Y-94868426D01*
X173981574Y-94993780D01*
X174080071Y-95141191D01*
X174147914Y-95304979D01*
X174182500Y-95478856D01*
X174182500Y-95656144D01*
X174147914Y-95830021D01*
X174080071Y-95993809D01*
X173981574Y-96141220D01*
X173856220Y-96266574D01*
X173708809Y-96365071D01*
X173545021Y-96432914D01*
X173371144Y-96467500D01*
X173193856Y-96467500D01*
X173019979Y-96432914D01*
X172856191Y-96365071D01*
X172708780Y-96266574D01*
X172583426Y-96141220D01*
X172484929Y-95993809D01*
X172417086Y-95830021D01*
X172382500Y-95656144D01*
X172382500Y-95478856D01*
X172417086Y-95304979D01*
X172484929Y-95141191D01*
X172583426Y-94993780D01*
X172708780Y-94868426D01*
X172856191Y-94769929D01*
X173019979Y-94702086D01*
X173193856Y-94667500D01*
X173371144Y-94667500D01*
X173545021Y-94702086D01*
X173545021Y-94702086D01*
G37*
G36*
X158650000Y-96150000D02*
X157350000Y-96150000D01*
X157350000Y-94850000D01*
X158650000Y-94850000D01*
X158650000Y-96150000D01*
X158650000Y-96150000D01*
G37*
G36*
X177745021Y-93002086D02*
X177908809Y-93069929D01*
X178056220Y-93168426D01*
X178181574Y-93293780D01*
X178280071Y-93441191D01*
X178347914Y-93604979D01*
X178382500Y-93778856D01*
X178382500Y-93956144D01*
X178347914Y-94130021D01*
X178280071Y-94293809D01*
X178181574Y-94441220D01*
X178056220Y-94566574D01*
X177908809Y-94665071D01*
X177745021Y-94732914D01*
X177571144Y-94767500D01*
X177393856Y-94767500D01*
X177219979Y-94732914D01*
X177056191Y-94665071D01*
X176908780Y-94566574D01*
X176783426Y-94441220D01*
X176684929Y-94293809D01*
X176617086Y-94130021D01*
X176582500Y-93956144D01*
X176582500Y-93778856D01*
X176617086Y-93604979D01*
X176684929Y-93441191D01*
X176783426Y-93293780D01*
X176908780Y-93168426D01*
X177056191Y-93069929D01*
X177219979Y-93002086D01*
X177393856Y-92967500D01*
X177571144Y-92967500D01*
X177745021Y-93002086D01*
X177745021Y-93002086D01*
G37*
G36*
X173545021Y-91302086D02*
X173708809Y-91369929D01*
X173856220Y-91468426D01*
X173981574Y-91593780D01*
X174080071Y-91741191D01*
X174147914Y-91904979D01*
X174182500Y-92078856D01*
X174182500Y-92256144D01*
X174147914Y-92430021D01*
X174080071Y-92593809D01*
X173981574Y-92741220D01*
X173856220Y-92866574D01*
X173708809Y-92965071D01*
X173545021Y-93032914D01*
X173371144Y-93067500D01*
X173193856Y-93067500D01*
X173019979Y-93032914D01*
X172856191Y-92965071D01*
X172708780Y-92866574D01*
X172583426Y-92741220D01*
X172484929Y-92593809D01*
X172417086Y-92430021D01*
X172382500Y-92256144D01*
X172382500Y-92078856D01*
X172417086Y-91904979D01*
X172484929Y-91741191D01*
X172583426Y-91593780D01*
X172708780Y-91468426D01*
X172856191Y-91369929D01*
X173019979Y-91302086D01*
X173193856Y-91267500D01*
X173371144Y-91267500D01*
X173545021Y-91302086D01*
X173545021Y-91302086D01*
G37*
G36*
X130898000Y-92798000D02*
X129198000Y-92798000D01*
X129198000Y-91098000D01*
X130898000Y-91098000D01*
X130898000Y-92798000D01*
X130898000Y-92798000D01*
G37*
G36*
X109475228Y-91026625D02*
X109634467Y-91092584D01*
X109777783Y-91188345D01*
X109899655Y-91310217D01*
X109995416Y-91453533D01*
X110061375Y-91612772D01*
X110095000Y-91781819D01*
X110095000Y-91954181D01*
X110061375Y-92123228D01*
X109995416Y-92282467D01*
X109899655Y-92425783D01*
X109777783Y-92547655D01*
X109634467Y-92643416D01*
X109475228Y-92709375D01*
X109306181Y-92743000D01*
X109133819Y-92743000D01*
X108964772Y-92709375D01*
X108805533Y-92643416D01*
X108662217Y-92547655D01*
X108540345Y-92425783D01*
X108444584Y-92282467D01*
X108378625Y-92123228D01*
X108345000Y-91954181D01*
X108345000Y-91781819D01*
X108378625Y-91612772D01*
X108444584Y-91453533D01*
X108540345Y-91310217D01*
X108662217Y-91188345D01*
X108805533Y-91092584D01*
X108964772Y-91026625D01*
X109133819Y-90993000D01*
X109306181Y-90993000D01*
X109475228Y-91026625D01*
X109475228Y-91026625D01*
G37*
G36*
X118870000Y-92454000D02*
X117350000Y-92454000D01*
X117350000Y-90934000D01*
X118870000Y-90934000D01*
X118870000Y-92454000D01*
X118870000Y-92454000D01*
G37*
G36*
X158147738Y-91066653D02*
X158189598Y-91074979D01*
X158224245Y-91089330D01*
X158307890Y-91123977D01*
X158414354Y-91195114D01*
X158504886Y-91285646D01*
X158576023Y-91392110D01*
X158625021Y-91510403D01*
X158650000Y-91635979D01*
X158650000Y-91764021D01*
X158625021Y-91889597D01*
X158576023Y-92007890D01*
X158504886Y-92114354D01*
X158414354Y-92204886D01*
X158307890Y-92276023D01*
X158224245Y-92310670D01*
X158189598Y-92325021D01*
X158147738Y-92333347D01*
X158064021Y-92350000D01*
X157935979Y-92350000D01*
X157852262Y-92333347D01*
X157810402Y-92325021D01*
X157775755Y-92310670D01*
X157692110Y-92276023D01*
X157585646Y-92204886D01*
X157495114Y-92114354D01*
X157423977Y-92007890D01*
X157374979Y-91889597D01*
X157350000Y-91764021D01*
X157350000Y-91635979D01*
X157374979Y-91510403D01*
X157423977Y-91392110D01*
X157495114Y-91285646D01*
X157585646Y-91195114D01*
X157692110Y-91123977D01*
X157775755Y-91089330D01*
X157810402Y-91074979D01*
X157852262Y-91066653D01*
X157935979Y-91050000D01*
X158064021Y-91050000D01*
X158147738Y-91066653D01*
X158147738Y-91066653D01*
G37*
G36*
X150835649Y-88869717D02*
X150874827Y-88873576D01*
X150950227Y-88896448D01*
X151025629Y-88919321D01*
X151164608Y-88993608D01*
X151286422Y-89093578D01*
X151386392Y-89215392D01*
X151460679Y-89354371D01*
X151460679Y-89354372D01*
X151506424Y-89505173D01*
X151521870Y-89662000D01*
X151506424Y-89818827D01*
X151487103Y-89882519D01*
X151460679Y-89969629D01*
X151386392Y-90108608D01*
X151286422Y-90230422D01*
X151164608Y-90330392D01*
X151025629Y-90404679D01*
X150950228Y-90427551D01*
X150874827Y-90450424D01*
X150835649Y-90454283D01*
X150757295Y-90462000D01*
X149978705Y-90462000D01*
X149900351Y-90454283D01*
X149861173Y-90450424D01*
X149785772Y-90427551D01*
X149710371Y-90404679D01*
X149571392Y-90330392D01*
X149449578Y-90230422D01*
X149349608Y-90108608D01*
X149275321Y-89969629D01*
X149248897Y-89882519D01*
X149229576Y-89818827D01*
X149214130Y-89662000D01*
X149229576Y-89505173D01*
X149275321Y-89354372D01*
X149275321Y-89354371D01*
X149349608Y-89215392D01*
X149449578Y-89093578D01*
X149571392Y-88993608D01*
X149710371Y-88919321D01*
X149785773Y-88896448D01*
X149861173Y-88873576D01*
X149900351Y-88869717D01*
X149978705Y-88862000D01*
X150757295Y-88862000D01*
X150835649Y-88869717D01*
X150835649Y-88869717D01*
G37*
G36*
X135595649Y-88869717D02*
X135634827Y-88873576D01*
X135710227Y-88896448D01*
X135785629Y-88919321D01*
X135924608Y-88993608D01*
X136046422Y-89093578D01*
X136146392Y-89215392D01*
X136220679Y-89354371D01*
X136220679Y-89354372D01*
X136266424Y-89505173D01*
X136281870Y-89662000D01*
X136266424Y-89818827D01*
X136247103Y-89882519D01*
X136220679Y-89969629D01*
X136146392Y-90108608D01*
X136046422Y-90230422D01*
X135924608Y-90330392D01*
X135785629Y-90404679D01*
X135710228Y-90427551D01*
X135634827Y-90450424D01*
X135595649Y-90454283D01*
X135517295Y-90462000D01*
X134738705Y-90462000D01*
X134660351Y-90454283D01*
X134621173Y-90450424D01*
X134545772Y-90427551D01*
X134470371Y-90404679D01*
X134331392Y-90330392D01*
X134209578Y-90230422D01*
X134109608Y-90108608D01*
X134035321Y-89969629D01*
X134008897Y-89882519D01*
X133989576Y-89818827D01*
X133974130Y-89662000D01*
X133989576Y-89505173D01*
X134035321Y-89354372D01*
X134035321Y-89354371D01*
X134109608Y-89215392D01*
X134209578Y-89093578D01*
X134331392Y-88993608D01*
X134470371Y-88919321D01*
X134545773Y-88896448D01*
X134621173Y-88873576D01*
X134660351Y-88869717D01*
X134738705Y-88862000D01*
X135517295Y-88862000D01*
X135595649Y-88869717D01*
X135595649Y-88869717D01*
G37*
G36*
X130214630Y-88570299D02*
X130374855Y-88618903D01*
X130522520Y-88697831D01*
X130651949Y-88804051D01*
X130758169Y-88933480D01*
X130837097Y-89081145D01*
X130885701Y-89241370D01*
X130902112Y-89408000D01*
X130885701Y-89574630D01*
X130837097Y-89734855D01*
X130758169Y-89882520D01*
X130651949Y-90011949D01*
X130522520Y-90118169D01*
X130374855Y-90197097D01*
X130214630Y-90245701D01*
X130089752Y-90258000D01*
X130006248Y-90258000D01*
X129881370Y-90245701D01*
X129721145Y-90197097D01*
X129573480Y-90118169D01*
X129444051Y-90011949D01*
X129337831Y-89882520D01*
X129258903Y-89734855D01*
X129210299Y-89574630D01*
X129193888Y-89408000D01*
X129210299Y-89241370D01*
X129258903Y-89081145D01*
X129337831Y-88933480D01*
X129444051Y-88804051D01*
X129573480Y-88697831D01*
X129721145Y-88618903D01*
X129881370Y-88570299D01*
X130006248Y-88558000D01*
X130089752Y-88558000D01*
X130214630Y-88570299D01*
X130214630Y-88570299D01*
G37*
G36*
X109475228Y-88526625D02*
X109634467Y-88592584D01*
X109777783Y-88688345D01*
X109899655Y-88810217D01*
X109995416Y-88953533D01*
X110061375Y-89112772D01*
X110095000Y-89281819D01*
X110095000Y-89454181D01*
X110061375Y-89623228D01*
X109995416Y-89782467D01*
X109899655Y-89925783D01*
X109777783Y-90047655D01*
X109634467Y-90143416D01*
X109475228Y-90209375D01*
X109306181Y-90243000D01*
X109133819Y-90243000D01*
X108964772Y-90209375D01*
X108805533Y-90143416D01*
X108662217Y-90047655D01*
X108540345Y-89925783D01*
X108444584Y-89782467D01*
X108378625Y-89623228D01*
X108345000Y-89454181D01*
X108345000Y-89281819D01*
X108378625Y-89112772D01*
X108444584Y-88953533D01*
X108540345Y-88810217D01*
X108662217Y-88688345D01*
X108805533Y-88592584D01*
X108964772Y-88526625D01*
X109133819Y-88493000D01*
X109306181Y-88493000D01*
X109475228Y-88526625D01*
X109475228Y-88526625D01*
G37*
G36*
X118331683Y-88423206D02*
X118469992Y-88480495D01*
X118594476Y-88563673D01*
X118700327Y-88669524D01*
X118783505Y-88794008D01*
X118840794Y-88932317D01*
X118870000Y-89079145D01*
X118870000Y-89228855D01*
X118840794Y-89375683D01*
X118783505Y-89513992D01*
X118783503Y-89513995D01*
X118710516Y-89623228D01*
X118700327Y-89638476D01*
X118594476Y-89744327D01*
X118594473Y-89744329D01*
X118594472Y-89744330D01*
X118469995Y-89827503D01*
X118469992Y-89827505D01*
X118331683Y-89884794D01*
X118184855Y-89914000D01*
X118035145Y-89914000D01*
X117888317Y-89884794D01*
X117750008Y-89827505D01*
X117750005Y-89827503D01*
X117625528Y-89744330D01*
X117625527Y-89744329D01*
X117625524Y-89744327D01*
X117519673Y-89638476D01*
X117509485Y-89623228D01*
X117436497Y-89513995D01*
X117436495Y-89513992D01*
X117379206Y-89375683D01*
X117350000Y-89228855D01*
X117350000Y-89079145D01*
X117379206Y-88932317D01*
X117436495Y-88794008D01*
X117519673Y-88669524D01*
X117625524Y-88563673D01*
X117750008Y-88480495D01*
X117888317Y-88423206D01*
X118035145Y-88394000D01*
X118184855Y-88394000D01*
X118331683Y-88423206D01*
X118331683Y-88423206D01*
G37*
G36*
X150835649Y-86329717D02*
X150874827Y-86333576D01*
X150950227Y-86356448D01*
X151025629Y-86379321D01*
X151164608Y-86453608D01*
X151286422Y-86553578D01*
X151386392Y-86675392D01*
X151460679Y-86814371D01*
X151460679Y-86814372D01*
X151506424Y-86965173D01*
X151521870Y-87122000D01*
X151506424Y-87278827D01*
X151487103Y-87342519D01*
X151460679Y-87429629D01*
X151386392Y-87568608D01*
X151286422Y-87690422D01*
X151164608Y-87790392D01*
X151025629Y-87864679D01*
X150950228Y-87887551D01*
X150874827Y-87910424D01*
X150835649Y-87914283D01*
X150757295Y-87922000D01*
X149978705Y-87922000D01*
X149900351Y-87914283D01*
X149861173Y-87910424D01*
X149785772Y-87887551D01*
X149710371Y-87864679D01*
X149571392Y-87790392D01*
X149449578Y-87690422D01*
X149349608Y-87568608D01*
X149275321Y-87429629D01*
X149248897Y-87342519D01*
X149229576Y-87278827D01*
X149214130Y-87122000D01*
X149229576Y-86965173D01*
X149275321Y-86814372D01*
X149275321Y-86814371D01*
X149349608Y-86675392D01*
X149449578Y-86553578D01*
X149571392Y-86453608D01*
X149710371Y-86379321D01*
X149785773Y-86356448D01*
X149861173Y-86333576D01*
X149900351Y-86329717D01*
X149978705Y-86322000D01*
X150757295Y-86322000D01*
X150835649Y-86329717D01*
X150835649Y-86329717D01*
G37*
G36*
X135595649Y-86329717D02*
X135634827Y-86333576D01*
X135710227Y-86356448D01*
X135785629Y-86379321D01*
X135924608Y-86453608D01*
X136046422Y-86553578D01*
X136146392Y-86675392D01*
X136220679Y-86814371D01*
X136220679Y-86814372D01*
X136266424Y-86965173D01*
X136281870Y-87122000D01*
X136266424Y-87278827D01*
X136247103Y-87342519D01*
X136220679Y-87429629D01*
X136146392Y-87568608D01*
X136046422Y-87690422D01*
X135924608Y-87790392D01*
X135785629Y-87864679D01*
X135710228Y-87887551D01*
X135634827Y-87910424D01*
X135595649Y-87914283D01*
X135517295Y-87922000D01*
X134738705Y-87922000D01*
X134660351Y-87914283D01*
X134621173Y-87910424D01*
X134545772Y-87887551D01*
X134470371Y-87864679D01*
X134331392Y-87790392D01*
X134209578Y-87690422D01*
X134109608Y-87568608D01*
X134035321Y-87429629D01*
X134008897Y-87342519D01*
X133989576Y-87278827D01*
X133974130Y-87122000D01*
X133989576Y-86965173D01*
X134035321Y-86814372D01*
X134035321Y-86814371D01*
X134109608Y-86675392D01*
X134209578Y-86553578D01*
X134331392Y-86453608D01*
X134470371Y-86379321D01*
X134545773Y-86356448D01*
X134621173Y-86333576D01*
X134660351Y-86329717D01*
X134738705Y-86322000D01*
X135517295Y-86322000D01*
X135595649Y-86329717D01*
X135595649Y-86329717D01*
G37*
G36*
X167147000Y-87899000D02*
X165847000Y-87899000D01*
X165847000Y-86599000D01*
X167147000Y-86599000D01*
X167147000Y-87899000D01*
X167147000Y-87899000D01*
G37*
G36*
X110095000Y-87743000D02*
X108345000Y-87743000D01*
X108345000Y-85993000D01*
X110095000Y-85993000D01*
X110095000Y-87743000D01*
X110095000Y-87743000D01*
G37*
G36*
X130214630Y-86030299D02*
X130374855Y-86078903D01*
X130522520Y-86157831D01*
X130651949Y-86264051D01*
X130758169Y-86393480D01*
X130837097Y-86541145D01*
X130885701Y-86701370D01*
X130902112Y-86868000D01*
X130885701Y-87034630D01*
X130837097Y-87194855D01*
X130758169Y-87342520D01*
X130651949Y-87471949D01*
X130522520Y-87578169D01*
X130374855Y-87657097D01*
X130214630Y-87705701D01*
X130089752Y-87718000D01*
X130006248Y-87718000D01*
X129881370Y-87705701D01*
X129721145Y-87657097D01*
X129573480Y-87578169D01*
X129444051Y-87471949D01*
X129337831Y-87342520D01*
X129258903Y-87194855D01*
X129210299Y-87034630D01*
X129193888Y-86868000D01*
X129210299Y-86701370D01*
X129258903Y-86541145D01*
X129337831Y-86393480D01*
X129444051Y-86264051D01*
X129573480Y-86157831D01*
X129721145Y-86078903D01*
X129881370Y-86030299D01*
X130006248Y-86018000D01*
X130089752Y-86018000D01*
X130214630Y-86030299D01*
X130214630Y-86030299D01*
G37*
G36*
X118331683Y-85883206D02*
X118469992Y-85940495D01*
X118594476Y-86023673D01*
X118700327Y-86129524D01*
X118783505Y-86254008D01*
X118840794Y-86392317D01*
X118870000Y-86539145D01*
X118870000Y-86688855D01*
X118840794Y-86835683D01*
X118783505Y-86973992D01*
X118783503Y-86973995D01*
X118742989Y-87034629D01*
X118700327Y-87098476D01*
X118594476Y-87204327D01*
X118594473Y-87204329D01*
X118594472Y-87204330D01*
X118469995Y-87287503D01*
X118469992Y-87287505D01*
X118331683Y-87344794D01*
X118184855Y-87374000D01*
X118035145Y-87374000D01*
X117888317Y-87344794D01*
X117750008Y-87287505D01*
X117750005Y-87287503D01*
X117625528Y-87204330D01*
X117625527Y-87204329D01*
X117625524Y-87204327D01*
X117519673Y-87098476D01*
X117477012Y-87034629D01*
X117436497Y-86973995D01*
X117436495Y-86973992D01*
X117379206Y-86835683D01*
X117350000Y-86688855D01*
X117350000Y-86539145D01*
X117379206Y-86392317D01*
X117436495Y-86254008D01*
X117519673Y-86129524D01*
X117625524Y-86023673D01*
X117750008Y-85940495D01*
X117888317Y-85883206D01*
X118035145Y-85854000D01*
X118184855Y-85854000D01*
X118331683Y-85883206D01*
X118331683Y-85883206D01*
G37*
G36*
X135595649Y-83789717D02*
X135634827Y-83793576D01*
X135710228Y-83816449D01*
X135785629Y-83839321D01*
X135924608Y-83913608D01*
X136046422Y-84013578D01*
X136146392Y-84135392D01*
X136220679Y-84274371D01*
X136266424Y-84425174D01*
X136281870Y-84582000D01*
X136266424Y-84738826D01*
X136220679Y-84889629D01*
X136146392Y-85028608D01*
X136046422Y-85150422D01*
X135924608Y-85250392D01*
X135785629Y-85324679D01*
X135710227Y-85347552D01*
X135634827Y-85370424D01*
X135595649Y-85374283D01*
X135517295Y-85382000D01*
X134738705Y-85382000D01*
X134660351Y-85374283D01*
X134621173Y-85370424D01*
X134545773Y-85347552D01*
X134470371Y-85324679D01*
X134331392Y-85250392D01*
X134209578Y-85150422D01*
X134109608Y-85028608D01*
X134035321Y-84889629D01*
X133989576Y-84738826D01*
X133974130Y-84582000D01*
X133989576Y-84425174D01*
X134035321Y-84274371D01*
X134109608Y-84135392D01*
X134209578Y-84013578D01*
X134331392Y-83913608D01*
X134470371Y-83839321D01*
X134545772Y-83816449D01*
X134621173Y-83793576D01*
X134660351Y-83789717D01*
X134738705Y-83782000D01*
X135517295Y-83782000D01*
X135595649Y-83789717D01*
X135595649Y-83789717D01*
G37*
G36*
X150835649Y-83789717D02*
X150874827Y-83793576D01*
X150950228Y-83816449D01*
X151025629Y-83839321D01*
X151164608Y-83913608D01*
X151286422Y-84013578D01*
X151386392Y-84135392D01*
X151460679Y-84274371D01*
X151506424Y-84425174D01*
X151521870Y-84582000D01*
X151506424Y-84738826D01*
X151460679Y-84889629D01*
X151386392Y-85028608D01*
X151286422Y-85150422D01*
X151164608Y-85250392D01*
X151025629Y-85324679D01*
X150950227Y-85347552D01*
X150874827Y-85370424D01*
X150835649Y-85374283D01*
X150757295Y-85382000D01*
X149978705Y-85382000D01*
X149900351Y-85374283D01*
X149861173Y-85370424D01*
X149785773Y-85347552D01*
X149710371Y-85324679D01*
X149571392Y-85250392D01*
X149449578Y-85150422D01*
X149349608Y-85028608D01*
X149275321Y-84889629D01*
X149229576Y-84738826D01*
X149214130Y-84582000D01*
X149229576Y-84425174D01*
X149275321Y-84274371D01*
X149349608Y-84135392D01*
X149449578Y-84013578D01*
X149571392Y-83913608D01*
X149710371Y-83839321D01*
X149785772Y-83816449D01*
X149861173Y-83793576D01*
X149900351Y-83789717D01*
X149978705Y-83782000D01*
X150757295Y-83782000D01*
X150835649Y-83789717D01*
X150835649Y-83789717D01*
G37*
G36*
X130214630Y-83490299D02*
X130374855Y-83538903D01*
X130522520Y-83617831D01*
X130651949Y-83724051D01*
X130758169Y-83853480D01*
X130837097Y-84001145D01*
X130885701Y-84161370D01*
X130902112Y-84328000D01*
X130885701Y-84494630D01*
X130837097Y-84654855D01*
X130758169Y-84802520D01*
X130651949Y-84931949D01*
X130522520Y-85038169D01*
X130374855Y-85117097D01*
X130214630Y-85165701D01*
X130089752Y-85178000D01*
X130006248Y-85178000D01*
X129881370Y-85165701D01*
X129721145Y-85117097D01*
X129573480Y-85038169D01*
X129444051Y-84931949D01*
X129337831Y-84802520D01*
X129258903Y-84654855D01*
X129210299Y-84494630D01*
X129193888Y-84328000D01*
X129210299Y-84161370D01*
X129258903Y-84001145D01*
X129337831Y-83853480D01*
X129444051Y-83724051D01*
X129573480Y-83617831D01*
X129721145Y-83538903D01*
X129881370Y-83490299D01*
X130006248Y-83478000D01*
X130089752Y-83478000D01*
X130214630Y-83490299D01*
X130214630Y-83490299D01*
G37*
G36*
X166644738Y-81615653D02*
X166686598Y-81623979D01*
X166721245Y-81638330D01*
X166804890Y-81672977D01*
X166911354Y-81744114D01*
X167001886Y-81834646D01*
X167073023Y-81941110D01*
X167122021Y-82059403D01*
X167147000Y-82184979D01*
X167147000Y-82313021D01*
X167122021Y-82438597D01*
X167073023Y-82556890D01*
X167001886Y-82663354D01*
X166911354Y-82753886D01*
X166804890Y-82825023D01*
X166721245Y-82859670D01*
X166686598Y-82874021D01*
X166644738Y-82882347D01*
X166561021Y-82899000D01*
X166432979Y-82899000D01*
X166349262Y-82882347D01*
X166307402Y-82874021D01*
X166272755Y-82859670D01*
X166189110Y-82825023D01*
X166082646Y-82753886D01*
X165992114Y-82663354D01*
X165920977Y-82556890D01*
X165871979Y-82438597D01*
X165847000Y-82313021D01*
X165847000Y-82184979D01*
X165871979Y-82059403D01*
X165920977Y-81941110D01*
X165992114Y-81834646D01*
X166082646Y-81744114D01*
X166189110Y-81672977D01*
X166272755Y-81638330D01*
X166307402Y-81623979D01*
X166349262Y-81615653D01*
X166432979Y-81599000D01*
X166561021Y-81599000D01*
X166644738Y-81615653D01*
X166644738Y-81615653D01*
G37*
G36*
X150835649Y-81249717D02*
X150874827Y-81253576D01*
X150950227Y-81276448D01*
X151025629Y-81299321D01*
X151164608Y-81373608D01*
X151286422Y-81473578D01*
X151386392Y-81595392D01*
X151460679Y-81734371D01*
X151506424Y-81885174D01*
X151521870Y-82042000D01*
X151506424Y-82198826D01*
X151460679Y-82349629D01*
X151386392Y-82488608D01*
X151286422Y-82610422D01*
X151164608Y-82710392D01*
X151025629Y-82784679D01*
X150950228Y-82807551D01*
X150874827Y-82830424D01*
X150835649Y-82834283D01*
X150757295Y-82842000D01*
X149978705Y-82842000D01*
X149900351Y-82834283D01*
X149861173Y-82830424D01*
X149785772Y-82807551D01*
X149710371Y-82784679D01*
X149571392Y-82710392D01*
X149449578Y-82610422D01*
X149349608Y-82488608D01*
X149275321Y-82349629D01*
X149229576Y-82198826D01*
X149214130Y-82042000D01*
X149229576Y-81885174D01*
X149275321Y-81734371D01*
X149349608Y-81595392D01*
X149449578Y-81473578D01*
X149571392Y-81373608D01*
X149710371Y-81299321D01*
X149785773Y-81276448D01*
X149861173Y-81253576D01*
X149900351Y-81249717D01*
X149978705Y-81242000D01*
X150757295Y-81242000D01*
X150835649Y-81249717D01*
X150835649Y-81249717D01*
G37*
G36*
X135595649Y-81249717D02*
X135634827Y-81253576D01*
X135710227Y-81276448D01*
X135785629Y-81299321D01*
X135924608Y-81373608D01*
X136046422Y-81473578D01*
X136146392Y-81595392D01*
X136220679Y-81734371D01*
X136266424Y-81885174D01*
X136281870Y-82042000D01*
X136266424Y-82198826D01*
X136220679Y-82349629D01*
X136146392Y-82488608D01*
X136046422Y-82610422D01*
X135924608Y-82710392D01*
X135785629Y-82784679D01*
X135710228Y-82807551D01*
X135634827Y-82830424D01*
X135595649Y-82834283D01*
X135517295Y-82842000D01*
X134738705Y-82842000D01*
X134660351Y-82834283D01*
X134621173Y-82830424D01*
X134545772Y-82807551D01*
X134470371Y-82784679D01*
X134331392Y-82710392D01*
X134209578Y-82610422D01*
X134109608Y-82488608D01*
X134035321Y-82349629D01*
X133989576Y-82198826D01*
X133974130Y-82042000D01*
X133989576Y-81885174D01*
X134035321Y-81734371D01*
X134109608Y-81595392D01*
X134209578Y-81473578D01*
X134331392Y-81373608D01*
X134470371Y-81299321D01*
X134545773Y-81276448D01*
X134621173Y-81253576D01*
X134660351Y-81249717D01*
X134738705Y-81242000D01*
X135517295Y-81242000D01*
X135595649Y-81249717D01*
X135595649Y-81249717D01*
G37*
G36*
X122014208Y-78559473D02*
X122155241Y-78573363D01*
X122381442Y-78641981D01*
X122381444Y-78641982D01*
X122381447Y-78641983D01*
X122589910Y-78753408D01*
X122772634Y-78903366D01*
X122922592Y-79086090D01*
X123034017Y-79294553D01*
X123034018Y-79294556D01*
X123034019Y-79294558D01*
X123102637Y-79520759D01*
X123125806Y-79756000D01*
X123102637Y-79991241D01*
X123048291Y-80170393D01*
X123034017Y-80217447D01*
X122922592Y-80425910D01*
X122772634Y-80608634D01*
X122589910Y-80758592D01*
X122381447Y-80870017D01*
X122381444Y-80870018D01*
X122381442Y-80870019D01*
X122155241Y-80938637D01*
X122014208Y-80952527D01*
X121978951Y-80956000D01*
X121861049Y-80956000D01*
X121825792Y-80952527D01*
X121684759Y-80938637D01*
X121458558Y-80870019D01*
X121458556Y-80870018D01*
X121458553Y-80870017D01*
X121250090Y-80758592D01*
X121067366Y-80608634D01*
X120917408Y-80425910D01*
X120805983Y-80217447D01*
X120791709Y-80170393D01*
X120737363Y-79991241D01*
X120714194Y-79756000D01*
X120737363Y-79520759D01*
X120805981Y-79294558D01*
X120805982Y-79294556D01*
X120805983Y-79294553D01*
X120917408Y-79086090D01*
X121067366Y-78903366D01*
X121250090Y-78753408D01*
X121458553Y-78641983D01*
X121458556Y-78641982D01*
X121458558Y-78641981D01*
X121684759Y-78573363D01*
X121825792Y-78559473D01*
X121861049Y-78556000D01*
X121978951Y-78556000D01*
X122014208Y-78559473D01*
X122014208Y-78559473D01*
G37*
G36*
X109570026Y-78602115D02*
X109788412Y-78692573D01*
X109984958Y-78823901D01*
X110152099Y-78991042D01*
X110283427Y-79187588D01*
X110373885Y-79405974D01*
X110420000Y-79637809D01*
X110420000Y-79874191D01*
X110373885Y-80106026D01*
X110283427Y-80324412D01*
X110152099Y-80520958D01*
X109984958Y-80688099D01*
X109788412Y-80819427D01*
X109570026Y-80909885D01*
X109338191Y-80956000D01*
X109101809Y-80956000D01*
X108869974Y-80909885D01*
X108651588Y-80819427D01*
X108455042Y-80688099D01*
X108287901Y-80520958D01*
X108156573Y-80324412D01*
X108066115Y-80106026D01*
X108020000Y-79874191D01*
X108020000Y-79637809D01*
X108066115Y-79405974D01*
X108156573Y-79187588D01*
X108287901Y-78991042D01*
X108455042Y-78823901D01*
X108651588Y-78692573D01*
X108869974Y-78602115D01*
X109101809Y-78556000D01*
X109338191Y-78556000D01*
X109570026Y-78602115D01*
X109570026Y-78602115D01*
G37*
G36*
X150835649Y-78709717D02*
X150874827Y-78713576D01*
X150950228Y-78736449D01*
X151025629Y-78759321D01*
X151164608Y-78833608D01*
X151286422Y-78933578D01*
X151386392Y-79055392D01*
X151460679Y-79194371D01*
X151460679Y-79194372D01*
X151506424Y-79345173D01*
X151512412Y-79405973D01*
X151521870Y-79502000D01*
X151506424Y-79658826D01*
X151460679Y-79809629D01*
X151386392Y-79948608D01*
X151286422Y-80070422D01*
X151164608Y-80170392D01*
X151025629Y-80244679D01*
X150950228Y-80267551D01*
X150874827Y-80290424D01*
X150835649Y-80294283D01*
X150757295Y-80302000D01*
X149978705Y-80302000D01*
X149900351Y-80294283D01*
X149861173Y-80290424D01*
X149785772Y-80267551D01*
X149710371Y-80244679D01*
X149571392Y-80170392D01*
X149449578Y-80070422D01*
X149349608Y-79948608D01*
X149275321Y-79809629D01*
X149229576Y-79658826D01*
X149214130Y-79502000D01*
X149223588Y-79405973D01*
X149229576Y-79345173D01*
X149275321Y-79194372D01*
X149275321Y-79194371D01*
X149349608Y-79055392D01*
X149449578Y-78933578D01*
X149571392Y-78833608D01*
X149710371Y-78759321D01*
X149785772Y-78736449D01*
X149861173Y-78713576D01*
X149900351Y-78709717D01*
X149978705Y-78702000D01*
X150757295Y-78702000D01*
X150835649Y-78709717D01*
X150835649Y-78709717D01*
G37*
G36*
X135595649Y-78709717D02*
X135634827Y-78713576D01*
X135710228Y-78736449D01*
X135785629Y-78759321D01*
X135924608Y-78833608D01*
X136046422Y-78933578D01*
X136146392Y-79055392D01*
X136220679Y-79194371D01*
X136220679Y-79194372D01*
X136266424Y-79345173D01*
X136272412Y-79405973D01*
X136281870Y-79502000D01*
X136266424Y-79658826D01*
X136220679Y-79809629D01*
X136146392Y-79948608D01*
X136046422Y-80070422D01*
X135924608Y-80170392D01*
X135785629Y-80244679D01*
X135710228Y-80267551D01*
X135634827Y-80290424D01*
X135595649Y-80294283D01*
X135517295Y-80302000D01*
X134738705Y-80302000D01*
X134660351Y-80294283D01*
X134621173Y-80290424D01*
X134545772Y-80267551D01*
X134470371Y-80244679D01*
X134331392Y-80170392D01*
X134209578Y-80070422D01*
X134109608Y-79948608D01*
X134035321Y-79809629D01*
X133989576Y-79658826D01*
X133974130Y-79502000D01*
X133983588Y-79405973D01*
X133989576Y-79345173D01*
X134035321Y-79194372D01*
X134035321Y-79194371D01*
X134109608Y-79055392D01*
X134209578Y-78933578D01*
X134331392Y-78833608D01*
X134470371Y-78759321D01*
X134545772Y-78736449D01*
X134621173Y-78713576D01*
X134660351Y-78709717D01*
X134738705Y-78702000D01*
X135517295Y-78702000D01*
X135595649Y-78709717D01*
X135595649Y-78709717D01*
G37*
G36*
X157858040Y-79373780D02*
X155318040Y-79373780D01*
X155318040Y-76833780D01*
X157858040Y-76833780D01*
X157858040Y-79373780D01*
X157858040Y-79373780D01*
G37*
G36*
X173893738Y-77598653D02*
X173935598Y-77606979D01*
X173970245Y-77621330D01*
X174053890Y-77655977D01*
X174160354Y-77727114D01*
X174250886Y-77817646D01*
X174322023Y-77924110D01*
X174371021Y-78042403D01*
X174396000Y-78167979D01*
X174396000Y-78296021D01*
X174371021Y-78421597D01*
X174322023Y-78539890D01*
X174250886Y-78646354D01*
X174160354Y-78736886D01*
X174053890Y-78808023D01*
X173970245Y-78842670D01*
X173935598Y-78857021D01*
X173893738Y-78865347D01*
X173810021Y-78882000D01*
X173681979Y-78882000D01*
X173598262Y-78865347D01*
X173556402Y-78857021D01*
X173521755Y-78842670D01*
X173438110Y-78808023D01*
X173331646Y-78736886D01*
X173241114Y-78646354D01*
X173169977Y-78539890D01*
X173120979Y-78421597D01*
X173096000Y-78296021D01*
X173096000Y-78167979D01*
X173120979Y-78042403D01*
X173169977Y-77924110D01*
X173241114Y-77817646D01*
X173331646Y-77727114D01*
X173438110Y-77655977D01*
X173521755Y-77621330D01*
X173556402Y-77606979D01*
X173598262Y-77598653D01*
X173681979Y-77582000D01*
X173810021Y-77582000D01*
X173893738Y-77598653D01*
X173893738Y-77598653D01*
G37*
G36*
X178196000Y-78882000D02*
X176896000Y-78882000D01*
X176896000Y-77582000D01*
X178196000Y-77582000D01*
X178196000Y-78882000D01*
X178196000Y-78882000D01*
G37*
G36*
X135595649Y-76169717D02*
X135634827Y-76173576D01*
X135710227Y-76196448D01*
X135785629Y-76219321D01*
X135924608Y-76293608D01*
X136046422Y-76393578D01*
X136146392Y-76515392D01*
X136220679Y-76654371D01*
X136220679Y-76654372D01*
X136266424Y-76805173D01*
X136281870Y-76962000D01*
X136266424Y-77118826D01*
X136220679Y-77269629D01*
X136146392Y-77408608D01*
X136046422Y-77530422D01*
X135924608Y-77630392D01*
X135785629Y-77704679D01*
X135711676Y-77727112D01*
X135634827Y-77750424D01*
X135595649Y-77754283D01*
X135517295Y-77762000D01*
X134738705Y-77762000D01*
X134660351Y-77754283D01*
X134621173Y-77750424D01*
X134544324Y-77727112D01*
X134470371Y-77704679D01*
X134331392Y-77630392D01*
X134209578Y-77530422D01*
X134109608Y-77408608D01*
X134035321Y-77269629D01*
X133989576Y-77118826D01*
X133974130Y-76962000D01*
X133989576Y-76805173D01*
X134035321Y-76654372D01*
X134035321Y-76654371D01*
X134109608Y-76515392D01*
X134209578Y-76393578D01*
X134331392Y-76293608D01*
X134470371Y-76219321D01*
X134545772Y-76196449D01*
X134621173Y-76173576D01*
X134660351Y-76169717D01*
X134738705Y-76162000D01*
X135517295Y-76162000D01*
X135595649Y-76169717D01*
X135595649Y-76169717D01*
G37*
G36*
X150835649Y-76169717D02*
X150874827Y-76173576D01*
X150950227Y-76196448D01*
X151025629Y-76219321D01*
X151164608Y-76293608D01*
X151286422Y-76393578D01*
X151386392Y-76515392D01*
X151460679Y-76654371D01*
X151460679Y-76654372D01*
X151506424Y-76805173D01*
X151521870Y-76962000D01*
X151506424Y-77118826D01*
X151460679Y-77269629D01*
X151386392Y-77408608D01*
X151286422Y-77530422D01*
X151164608Y-77630392D01*
X151025629Y-77704679D01*
X150951676Y-77727112D01*
X150874827Y-77750424D01*
X150835649Y-77754283D01*
X150757295Y-77762000D01*
X149978705Y-77762000D01*
X149900351Y-77754283D01*
X149861173Y-77750424D01*
X149784324Y-77727112D01*
X149710371Y-77704679D01*
X149571392Y-77630392D01*
X149449578Y-77530422D01*
X149349608Y-77408608D01*
X149275321Y-77269629D01*
X149229576Y-77118826D01*
X149214130Y-76962000D01*
X149229576Y-76805173D01*
X149275321Y-76654372D01*
X149275321Y-76654371D01*
X149349608Y-76515392D01*
X149449578Y-76393578D01*
X149571392Y-76293608D01*
X149710371Y-76219321D01*
X149785772Y-76196449D01*
X149861173Y-76173576D01*
X149900351Y-76169717D01*
X149978705Y-76162000D01*
X150757295Y-76162000D01*
X150835649Y-76169717D01*
X150835649Y-76169717D01*
G37*
G36*
X125347000Y-76071000D02*
X123827000Y-76071000D01*
X123827000Y-74551000D01*
X125347000Y-74551000D01*
X125347000Y-76071000D01*
X125347000Y-76071000D01*
G37*
G36*
X150835649Y-73629717D02*
X150874827Y-73633576D01*
X150950228Y-73656449D01*
X151025629Y-73679321D01*
X151164608Y-73753608D01*
X151286422Y-73853578D01*
X151386392Y-73975392D01*
X151460679Y-74114371D01*
X151465062Y-74128820D01*
X151506424Y-74265173D01*
X151521870Y-74422000D01*
X151506424Y-74578827D01*
X151491062Y-74629468D01*
X151460679Y-74729629D01*
X151386392Y-74868608D01*
X151286422Y-74990422D01*
X151164608Y-75090392D01*
X151025629Y-75164679D01*
X150950228Y-75187551D01*
X150874827Y-75210424D01*
X150835649Y-75214283D01*
X150757295Y-75222000D01*
X149978705Y-75222000D01*
X149900351Y-75214283D01*
X149861173Y-75210424D01*
X149785772Y-75187551D01*
X149710371Y-75164679D01*
X149571392Y-75090392D01*
X149449578Y-74990422D01*
X149349608Y-74868608D01*
X149275321Y-74729629D01*
X149244938Y-74629468D01*
X149229576Y-74578827D01*
X149214130Y-74422000D01*
X149229576Y-74265173D01*
X149270938Y-74128820D01*
X149275321Y-74114371D01*
X149349608Y-73975392D01*
X149449578Y-73853578D01*
X149571392Y-73753608D01*
X149710371Y-73679321D01*
X149785772Y-73656449D01*
X149861173Y-73633576D01*
X149900351Y-73629717D01*
X149978705Y-73622000D01*
X150757295Y-73622000D01*
X150835649Y-73629717D01*
X150835649Y-73629717D01*
G37*
G36*
X135595649Y-73629717D02*
X135634827Y-73633576D01*
X135710228Y-73656449D01*
X135785629Y-73679321D01*
X135924608Y-73753608D01*
X136046422Y-73853578D01*
X136146392Y-73975392D01*
X136220679Y-74114371D01*
X136225062Y-74128820D01*
X136266424Y-74265173D01*
X136281870Y-74422000D01*
X136266424Y-74578827D01*
X136251062Y-74629468D01*
X136220679Y-74729629D01*
X136146392Y-74868608D01*
X136046422Y-74990422D01*
X135924608Y-75090392D01*
X135785629Y-75164679D01*
X135710228Y-75187551D01*
X135634827Y-75210424D01*
X135595649Y-75214283D01*
X135517295Y-75222000D01*
X134738705Y-75222000D01*
X134660351Y-75214283D01*
X134621173Y-75210424D01*
X134545772Y-75187551D01*
X134470371Y-75164679D01*
X134331392Y-75090392D01*
X134209578Y-74990422D01*
X134109608Y-74868608D01*
X134035321Y-74729629D01*
X134004938Y-74629468D01*
X133989576Y-74578827D01*
X133974130Y-74422000D01*
X133989576Y-74265173D01*
X134030938Y-74128820D01*
X134035321Y-74114371D01*
X134109608Y-73975392D01*
X134209578Y-73853578D01*
X134331392Y-73753608D01*
X134470371Y-73679321D01*
X134545772Y-73656449D01*
X134621173Y-73633576D01*
X134660351Y-73629717D01*
X134738705Y-73622000D01*
X135517295Y-73622000D01*
X135595649Y-73629717D01*
X135595649Y-73629717D01*
G37*
G36*
X109348228Y-73373625D02*
X109507467Y-73439584D01*
X109650783Y-73535345D01*
X109772655Y-73657217D01*
X109868416Y-73800533D01*
X109934375Y-73959772D01*
X109968000Y-74128819D01*
X109968000Y-74301181D01*
X109934375Y-74470228D01*
X109868416Y-74629467D01*
X109772655Y-74772783D01*
X109650783Y-74894655D01*
X109507467Y-74990416D01*
X109348228Y-75056375D01*
X109179181Y-75090000D01*
X109006819Y-75090000D01*
X108837772Y-75056375D01*
X108678533Y-74990416D01*
X108535217Y-74894655D01*
X108413345Y-74772783D01*
X108317584Y-74629467D01*
X108251625Y-74470228D01*
X108218000Y-74301181D01*
X108218000Y-74128819D01*
X108251625Y-73959772D01*
X108317584Y-73800533D01*
X108413345Y-73657217D01*
X108535217Y-73535345D01*
X108678533Y-73439584D01*
X108837772Y-73373625D01*
X109006819Y-73340000D01*
X109179181Y-73340000D01*
X109348228Y-73373625D01*
X109348228Y-73373625D01*
G37*
G36*
X117984228Y-73286625D02*
X118143467Y-73352584D01*
X118286783Y-73448345D01*
X118408655Y-73570217D01*
X118504416Y-73713533D01*
X118570375Y-73872772D01*
X118604000Y-74041819D01*
X118604000Y-74214181D01*
X118570375Y-74383228D01*
X118504416Y-74542467D01*
X118408655Y-74685783D01*
X118286783Y-74807655D01*
X118143467Y-74903416D01*
X117984228Y-74969375D01*
X117815181Y-75003000D01*
X117642819Y-75003000D01*
X117473772Y-74969375D01*
X117314533Y-74903416D01*
X117171217Y-74807655D01*
X117049345Y-74685783D01*
X116953584Y-74542467D01*
X116887625Y-74383228D01*
X116854000Y-74214181D01*
X116854000Y-74041819D01*
X116887625Y-73872772D01*
X116953584Y-73713533D01*
X117049345Y-73570217D01*
X117171217Y-73448345D01*
X117314533Y-73352584D01*
X117473772Y-73286625D01*
X117642819Y-73253000D01*
X117815181Y-73253000D01*
X117984228Y-73286625D01*
X117984228Y-73286625D01*
G37*
G36*
X124808683Y-72040206D02*
X124946992Y-72097495D01*
X125071476Y-72180673D01*
X125177327Y-72286524D01*
X125177329Y-72286527D01*
X125177330Y-72286528D01*
X125205447Y-72328608D01*
X125260505Y-72411008D01*
X125317794Y-72549317D01*
X125347000Y-72696145D01*
X125347000Y-72845855D01*
X125317794Y-72992683D01*
X125260505Y-73130992D01*
X125260503Y-73130995D01*
X125178982Y-73253000D01*
X125177327Y-73255476D01*
X125071476Y-73361327D01*
X125071473Y-73361329D01*
X125071472Y-73361330D01*
X124954357Y-73439584D01*
X124946992Y-73444505D01*
X124808683Y-73501794D01*
X124661855Y-73531000D01*
X124512145Y-73531000D01*
X124365317Y-73501794D01*
X124227008Y-73444505D01*
X124219643Y-73439584D01*
X124102528Y-73361330D01*
X124102527Y-73361329D01*
X124102524Y-73361327D01*
X123996673Y-73255476D01*
X123995019Y-73253000D01*
X123913497Y-73130995D01*
X123913495Y-73130992D01*
X123856206Y-72992683D01*
X123827000Y-72845855D01*
X123827000Y-72696145D01*
X123856206Y-72549317D01*
X123913495Y-72411008D01*
X123968553Y-72328608D01*
X123996670Y-72286528D01*
X123996671Y-72286527D01*
X123996673Y-72286524D01*
X124102524Y-72180673D01*
X124227008Y-72097495D01*
X124365317Y-72040206D01*
X124512145Y-72011000D01*
X124661855Y-72011000D01*
X124808683Y-72040206D01*
X124808683Y-72040206D01*
G37*
G36*
X135595649Y-71089717D02*
X135634827Y-71093576D01*
X135710227Y-71116448D01*
X135785629Y-71139321D01*
X135924608Y-71213608D01*
X136046422Y-71313578D01*
X136146392Y-71435392D01*
X136220679Y-71574371D01*
X136220679Y-71574372D01*
X136266424Y-71725173D01*
X136281870Y-71882000D01*
X136266424Y-72038827D01*
X136266005Y-72040207D01*
X136220679Y-72189629D01*
X136146392Y-72328608D01*
X136046422Y-72450422D01*
X135924608Y-72550392D01*
X135785629Y-72624679D01*
X135710227Y-72647552D01*
X135634827Y-72670424D01*
X135595649Y-72674283D01*
X135517295Y-72682000D01*
X134738705Y-72682000D01*
X134660351Y-72674283D01*
X134621173Y-72670424D01*
X134545773Y-72647552D01*
X134470371Y-72624679D01*
X134331392Y-72550392D01*
X134209578Y-72450422D01*
X134109608Y-72328608D01*
X134035321Y-72189629D01*
X133989995Y-72040207D01*
X133989576Y-72038827D01*
X133974130Y-71882000D01*
X133989576Y-71725173D01*
X134035321Y-71574372D01*
X134035321Y-71574371D01*
X134109608Y-71435392D01*
X134209578Y-71313578D01*
X134331392Y-71213608D01*
X134470371Y-71139321D01*
X134545773Y-71116448D01*
X134621173Y-71093576D01*
X134660351Y-71089717D01*
X134738705Y-71082000D01*
X135517295Y-71082000D01*
X135595649Y-71089717D01*
X135595649Y-71089717D01*
G37*
G36*
X150835649Y-71089717D02*
X150874827Y-71093576D01*
X150950227Y-71116448D01*
X151025629Y-71139321D01*
X151164608Y-71213608D01*
X151286422Y-71313578D01*
X151386392Y-71435392D01*
X151460679Y-71574371D01*
X151460679Y-71574372D01*
X151506424Y-71725173D01*
X151521870Y-71882000D01*
X151506424Y-72038827D01*
X151506005Y-72040207D01*
X151460679Y-72189629D01*
X151386392Y-72328608D01*
X151286422Y-72450422D01*
X151164608Y-72550392D01*
X151025629Y-72624679D01*
X150950227Y-72647552D01*
X150874827Y-72670424D01*
X150835649Y-72674283D01*
X150757295Y-72682000D01*
X149978705Y-72682000D01*
X149900351Y-72674283D01*
X149861173Y-72670424D01*
X149785773Y-72647552D01*
X149710371Y-72624679D01*
X149571392Y-72550392D01*
X149449578Y-72450422D01*
X149349608Y-72328608D01*
X149275321Y-72189629D01*
X149229995Y-72040207D01*
X149229576Y-72038827D01*
X149214130Y-71882000D01*
X149229576Y-71725173D01*
X149275321Y-71574372D01*
X149275321Y-71574371D01*
X149349608Y-71435392D01*
X149449578Y-71313578D01*
X149571392Y-71213608D01*
X149710371Y-71139321D01*
X149785773Y-71116448D01*
X149861173Y-71093576D01*
X149900351Y-71089717D01*
X149978705Y-71082000D01*
X150757295Y-71082000D01*
X150835649Y-71089717D01*
X150835649Y-71089717D01*
G37*
G36*
X109348228Y-70873625D02*
X109507467Y-70939584D01*
X109650783Y-71035345D01*
X109772655Y-71157217D01*
X109868416Y-71300533D01*
X109934375Y-71459772D01*
X109968000Y-71628819D01*
X109968000Y-71801181D01*
X109934375Y-71970228D01*
X109868416Y-72129467D01*
X109772655Y-72272783D01*
X109650783Y-72394655D01*
X109507467Y-72490416D01*
X109348228Y-72556375D01*
X109179181Y-72590000D01*
X109006819Y-72590000D01*
X108837772Y-72556375D01*
X108678533Y-72490416D01*
X108535217Y-72394655D01*
X108413345Y-72272783D01*
X108317584Y-72129467D01*
X108251625Y-71970228D01*
X108218000Y-71801181D01*
X108218000Y-71628819D01*
X108251625Y-71459772D01*
X108317584Y-71300533D01*
X108413345Y-71157217D01*
X108535217Y-71035345D01*
X108678533Y-70939584D01*
X108837772Y-70873625D01*
X109006819Y-70840000D01*
X109179181Y-70840000D01*
X109348228Y-70873625D01*
X109348228Y-70873625D01*
G37*
G36*
X118604000Y-72503000D02*
X116854000Y-72503000D01*
X116854000Y-70753000D01*
X118604000Y-70753000D01*
X118604000Y-72503000D01*
X118604000Y-72503000D01*
G37*
G36*
X166759646Y-69578532D02*
X166923512Y-69646408D01*
X166923514Y-69646409D01*
X166928333Y-69649629D01*
X167070994Y-69744952D01*
X167196408Y-69870366D01*
X167196410Y-69870369D01*
X167278557Y-69993310D01*
X167294952Y-70017848D01*
X167362828Y-70181714D01*
X167397430Y-70355674D01*
X167397430Y-70533046D01*
X167362828Y-70707006D01*
X167294952Y-70870872D01*
X167196408Y-71018354D01*
X167070994Y-71143768D01*
X167070991Y-71143770D01*
X166923514Y-71242311D01*
X166923513Y-71242312D01*
X166923512Y-71242312D01*
X166759646Y-71310188D01*
X166585686Y-71344790D01*
X166408314Y-71344790D01*
X166234354Y-71310188D01*
X166070488Y-71242312D01*
X166070487Y-71242312D01*
X166070486Y-71242311D01*
X165923009Y-71143770D01*
X165923006Y-71143768D01*
X165797592Y-71018354D01*
X165699048Y-70870872D01*
X165631172Y-70707006D01*
X165596570Y-70533046D01*
X165596570Y-70355674D01*
X165631172Y-70181714D01*
X165699048Y-70017848D01*
X165715444Y-69993310D01*
X165797590Y-69870369D01*
X165797592Y-69870366D01*
X165923006Y-69744952D01*
X166065667Y-69649629D01*
X166070486Y-69646409D01*
X166070488Y-69646408D01*
X166234354Y-69578532D01*
X166408314Y-69543930D01*
X166585686Y-69543930D01*
X166759646Y-69578532D01*
X166759646Y-69578532D01*
G37*
G36*
X124808683Y-69500206D02*
X124946992Y-69557495D01*
X124946995Y-69557497D01*
X124978478Y-69578533D01*
X125071476Y-69640673D01*
X125177327Y-69746524D01*
X125177329Y-69746527D01*
X125177330Y-69746528D01*
X125232784Y-69829521D01*
X125260505Y-69871008D01*
X125317794Y-70009317D01*
X125347000Y-70156145D01*
X125347000Y-70305855D01*
X125317794Y-70452683D01*
X125260505Y-70590992D01*
X125177327Y-70715476D01*
X125071476Y-70821327D01*
X125071473Y-70821329D01*
X125071472Y-70821330D01*
X124946995Y-70904503D01*
X124946992Y-70904505D01*
X124808683Y-70961794D01*
X124661855Y-70991000D01*
X124512145Y-70991000D01*
X124365317Y-70961794D01*
X124227008Y-70904505D01*
X124227005Y-70904503D01*
X124102528Y-70821330D01*
X124102527Y-70821329D01*
X124102524Y-70821327D01*
X123996673Y-70715476D01*
X123913495Y-70590992D01*
X123856206Y-70452683D01*
X123827000Y-70305855D01*
X123827000Y-70156145D01*
X123856206Y-70009317D01*
X123913495Y-69871008D01*
X123941216Y-69829521D01*
X123996670Y-69746528D01*
X123996671Y-69746527D01*
X123996673Y-69746524D01*
X124102524Y-69640673D01*
X124195523Y-69578533D01*
X124227005Y-69557497D01*
X124227008Y-69557495D01*
X124365317Y-69500206D01*
X124512145Y-69471000D01*
X124661855Y-69471000D01*
X124808683Y-69500206D01*
X124808683Y-69500206D01*
G37*
G36*
X173608521Y-68701586D02*
X173772309Y-68769429D01*
X173919720Y-68867926D01*
X174045074Y-68993280D01*
X174143571Y-69140691D01*
X174211414Y-69304479D01*
X174246000Y-69478356D01*
X174246000Y-69655644D01*
X174211414Y-69829521D01*
X174143571Y-69993309D01*
X174045074Y-70140720D01*
X173919720Y-70266074D01*
X173772309Y-70364571D01*
X173608521Y-70432414D01*
X173434644Y-70467000D01*
X173257356Y-70467000D01*
X173083479Y-70432414D01*
X172919691Y-70364571D01*
X172772280Y-70266074D01*
X172646926Y-70140720D01*
X172548429Y-69993309D01*
X172480586Y-69829521D01*
X172446000Y-69655644D01*
X172446000Y-69478356D01*
X172480586Y-69304479D01*
X172548429Y-69140691D01*
X172646926Y-68993280D01*
X172772280Y-68867926D01*
X172919691Y-68769429D01*
X173083479Y-68701586D01*
X173257356Y-68667000D01*
X173434644Y-68667000D01*
X173608521Y-68701586D01*
X173608521Y-68701586D01*
G37*
G36*
X150835649Y-68549717D02*
X150874827Y-68553576D01*
X150916027Y-68566074D01*
X151025629Y-68599321D01*
X151164608Y-68673608D01*
X151286422Y-68773578D01*
X151386392Y-68895392D01*
X151460679Y-69034371D01*
X151460679Y-69034372D01*
X151506424Y-69185173D01*
X151521870Y-69342000D01*
X151506424Y-69498827D01*
X151506005Y-69500207D01*
X151460679Y-69649629D01*
X151386392Y-69788608D01*
X151286422Y-69910422D01*
X151164608Y-70010392D01*
X151025629Y-70084679D01*
X150950228Y-70107551D01*
X150874827Y-70130424D01*
X150835649Y-70134283D01*
X150757295Y-70142000D01*
X149978705Y-70142000D01*
X149900351Y-70134283D01*
X149861173Y-70130424D01*
X149785773Y-70107552D01*
X149710371Y-70084679D01*
X149571392Y-70010392D01*
X149449578Y-69910422D01*
X149349608Y-69788608D01*
X149275321Y-69649629D01*
X149229995Y-69500207D01*
X149229576Y-69498827D01*
X149214130Y-69342000D01*
X149229576Y-69185173D01*
X149275321Y-69034372D01*
X149275321Y-69034371D01*
X149349608Y-68895392D01*
X149449578Y-68773578D01*
X149571392Y-68673608D01*
X149710371Y-68599321D01*
X149819973Y-68566074D01*
X149861173Y-68553576D01*
X149900351Y-68549717D01*
X149978705Y-68542000D01*
X150757295Y-68542000D01*
X150835649Y-68549717D01*
X150835649Y-68549717D01*
G37*
G36*
X135595649Y-68549717D02*
X135634827Y-68553576D01*
X135676027Y-68566074D01*
X135785629Y-68599321D01*
X135924608Y-68673608D01*
X136046422Y-68773578D01*
X136146392Y-68895392D01*
X136220679Y-69034371D01*
X136220679Y-69034372D01*
X136266424Y-69185173D01*
X136281870Y-69342000D01*
X136266424Y-69498827D01*
X136266005Y-69500207D01*
X136220679Y-69649629D01*
X136146392Y-69788608D01*
X136046422Y-69910422D01*
X135924608Y-70010392D01*
X135785629Y-70084679D01*
X135710228Y-70107551D01*
X135634827Y-70130424D01*
X135595649Y-70134283D01*
X135517295Y-70142000D01*
X134738705Y-70142000D01*
X134660351Y-70134283D01*
X134621173Y-70130424D01*
X134545773Y-70107552D01*
X134470371Y-70084679D01*
X134331392Y-70010392D01*
X134209578Y-69910422D01*
X134109608Y-69788608D01*
X134035321Y-69649629D01*
X133989995Y-69500207D01*
X133989576Y-69498827D01*
X133974130Y-69342000D01*
X133989576Y-69185173D01*
X134035321Y-69034372D01*
X134035321Y-69034371D01*
X134109608Y-68895392D01*
X134209578Y-68773578D01*
X134331392Y-68673608D01*
X134470371Y-68599321D01*
X134579973Y-68566074D01*
X134621173Y-68553576D01*
X134660351Y-68549717D01*
X134738705Y-68542000D01*
X135517295Y-68542000D01*
X135595649Y-68549717D01*
X135595649Y-68549717D01*
G37*
G36*
X109968000Y-70090000D02*
X108218000Y-70090000D01*
X108218000Y-68340000D01*
X109968000Y-68340000D01*
X109968000Y-70090000D01*
X109968000Y-70090000D01*
G37*
G36*
X177808521Y-67001586D02*
X177972309Y-67069429D01*
X178119720Y-67167926D01*
X178245074Y-67293280D01*
X178343571Y-67440691D01*
X178411414Y-67604479D01*
X178446000Y-67778356D01*
X178446000Y-67955644D01*
X178411414Y-68129521D01*
X178343571Y-68293309D01*
X178245074Y-68440720D01*
X178119720Y-68566074D01*
X177972309Y-68664571D01*
X177808521Y-68732414D01*
X177634644Y-68767000D01*
X177457356Y-68767000D01*
X177283479Y-68732414D01*
X177119691Y-68664571D01*
X176972280Y-68566074D01*
X176846926Y-68440720D01*
X176748429Y-68293309D01*
X176680586Y-68129521D01*
X176646000Y-67955644D01*
X176646000Y-67778356D01*
X176680586Y-67604479D01*
X176748429Y-67440691D01*
X176846926Y-67293280D01*
X176972280Y-67167926D01*
X177119691Y-67069429D01*
X177283479Y-67001586D01*
X177457356Y-66967000D01*
X177634644Y-66967000D01*
X177808521Y-67001586D01*
X177808521Y-67001586D01*
G37*
G36*
X150835649Y-66009717D02*
X150874827Y-66013576D01*
X150950227Y-66036448D01*
X151025629Y-66059321D01*
X151164608Y-66133608D01*
X151286422Y-66233578D01*
X151386392Y-66355392D01*
X151460679Y-66494371D01*
X151460679Y-66494372D01*
X151506424Y-66645173D01*
X151521870Y-66802000D01*
X151506424Y-66958827D01*
X151493453Y-67001586D01*
X151460679Y-67109629D01*
X151386392Y-67248608D01*
X151286422Y-67370422D01*
X151164608Y-67470392D01*
X151025629Y-67544679D01*
X150950228Y-67567551D01*
X150874827Y-67590424D01*
X150835649Y-67594283D01*
X150757295Y-67602000D01*
X149978705Y-67602000D01*
X149900351Y-67594283D01*
X149861173Y-67590424D01*
X149785772Y-67567551D01*
X149710371Y-67544679D01*
X149571392Y-67470392D01*
X149449578Y-67370422D01*
X149349608Y-67248608D01*
X149275321Y-67109629D01*
X149242547Y-67001586D01*
X149229576Y-66958827D01*
X149214130Y-66802000D01*
X149229576Y-66645173D01*
X149275321Y-66494372D01*
X149275321Y-66494371D01*
X149349608Y-66355392D01*
X149449578Y-66233578D01*
X149571392Y-66133608D01*
X149710371Y-66059321D01*
X149785773Y-66036448D01*
X149861173Y-66013576D01*
X149900351Y-66009717D01*
X149978705Y-66002000D01*
X150757295Y-66002000D01*
X150835649Y-66009717D01*
X150835649Y-66009717D01*
G37*
G36*
X135595649Y-66009717D02*
X135634827Y-66013576D01*
X135710227Y-66036448D01*
X135785629Y-66059321D01*
X135924608Y-66133608D01*
X136046422Y-66233578D01*
X136146392Y-66355392D01*
X136220679Y-66494371D01*
X136220679Y-66494372D01*
X136266424Y-66645173D01*
X136281870Y-66802000D01*
X136266424Y-66958827D01*
X136253453Y-67001586D01*
X136220679Y-67109629D01*
X136146392Y-67248608D01*
X136046422Y-67370422D01*
X135924608Y-67470392D01*
X135785629Y-67544679D01*
X135710228Y-67567551D01*
X135634827Y-67590424D01*
X135595649Y-67594283D01*
X135517295Y-67602000D01*
X134738705Y-67602000D01*
X134660351Y-67594283D01*
X134621173Y-67590424D01*
X134545772Y-67567551D01*
X134470371Y-67544679D01*
X134331392Y-67470392D01*
X134209578Y-67370422D01*
X134109608Y-67248608D01*
X134035321Y-67109629D01*
X134002547Y-67001586D01*
X133989576Y-66958827D01*
X133974130Y-66802000D01*
X133989576Y-66645173D01*
X134035321Y-66494372D01*
X134035321Y-66494371D01*
X134109608Y-66355392D01*
X134209578Y-66233578D01*
X134331392Y-66133608D01*
X134470371Y-66059321D01*
X134545773Y-66036448D01*
X134621173Y-66013576D01*
X134660351Y-66009717D01*
X134738705Y-66002000D01*
X135517295Y-66002000D01*
X135595649Y-66009717D01*
X135595649Y-66009717D01*
G37*
G36*
X173608521Y-65301586D02*
X173772309Y-65369429D01*
X173919720Y-65467926D01*
X174045074Y-65593280D01*
X174143571Y-65740691D01*
X174211414Y-65904479D01*
X174246000Y-66078356D01*
X174246000Y-66255644D01*
X174211414Y-66429521D01*
X174143571Y-66593309D01*
X174045074Y-66740720D01*
X173919720Y-66866074D01*
X173772309Y-66964571D01*
X173608521Y-67032414D01*
X173434644Y-67067000D01*
X173257356Y-67067000D01*
X173083479Y-67032414D01*
X172919691Y-66964571D01*
X172772280Y-66866074D01*
X172646926Y-66740720D01*
X172548429Y-66593309D01*
X172480586Y-66429521D01*
X172446000Y-66255644D01*
X172446000Y-66078356D01*
X172480586Y-65904479D01*
X172548429Y-65740691D01*
X172646926Y-65593280D01*
X172772280Y-65467926D01*
X172919691Y-65369429D01*
X173083479Y-65301586D01*
X173257356Y-65267000D01*
X173434644Y-65267000D01*
X173608521Y-65301586D01*
X173608521Y-65301586D01*
G37*
G36*
X166759646Y-64579812D02*
X166923512Y-64647688D01*
X166923514Y-64647689D01*
X167014683Y-64708606D01*
X167070994Y-64746232D01*
X167196408Y-64871646D01*
X167196410Y-64871649D01*
X167267099Y-64977442D01*
X167294952Y-65019128D01*
X167362828Y-65182994D01*
X167397430Y-65356954D01*
X167397430Y-65534326D01*
X167362828Y-65708286D01*
X167294952Y-65872152D01*
X167196408Y-66019634D01*
X167070994Y-66145048D01*
X167070991Y-66145050D01*
X166923514Y-66243591D01*
X166923513Y-66243592D01*
X166923512Y-66243592D01*
X166759646Y-66311468D01*
X166585686Y-66346070D01*
X166408314Y-66346070D01*
X166234354Y-66311468D01*
X166070488Y-66243592D01*
X166070487Y-66243592D01*
X166070486Y-66243591D01*
X165923009Y-66145050D01*
X165923006Y-66145048D01*
X165797592Y-66019634D01*
X165699048Y-65872152D01*
X165631172Y-65708286D01*
X165596570Y-65534326D01*
X165596570Y-65356954D01*
X165631172Y-65182994D01*
X165699048Y-65019128D01*
X165726902Y-64977442D01*
X165797590Y-64871649D01*
X165797592Y-64871646D01*
X165923006Y-64746232D01*
X165979317Y-64708606D01*
X166070486Y-64647689D01*
X166070488Y-64647688D01*
X166234354Y-64579812D01*
X166408314Y-64545210D01*
X166585686Y-64545210D01*
X166759646Y-64579812D01*
X166759646Y-64579812D01*
G37*
G36*
X118206026Y-63362115D02*
X118424412Y-63452573D01*
X118620958Y-63583901D01*
X118788099Y-63751042D01*
X118919427Y-63947588D01*
X119009885Y-64165974D01*
X119056000Y-64397809D01*
X119056000Y-64634191D01*
X119009885Y-64866026D01*
X118919427Y-65084412D01*
X118788099Y-65280958D01*
X118620958Y-65448099D01*
X118424412Y-65579427D01*
X118206026Y-65669885D01*
X117974191Y-65716000D01*
X117737809Y-65716000D01*
X117505974Y-65669885D01*
X117287588Y-65579427D01*
X117091042Y-65448099D01*
X116923901Y-65280958D01*
X116792573Y-65084412D01*
X116702115Y-64866026D01*
X116656000Y-64634191D01*
X116656000Y-64397809D01*
X116702115Y-64165974D01*
X116792573Y-63947588D01*
X116923901Y-63751042D01*
X117091042Y-63583901D01*
X117287588Y-63452573D01*
X117505974Y-63362115D01*
X117737809Y-63316000D01*
X117974191Y-63316000D01*
X118206026Y-63362115D01*
X118206026Y-63362115D01*
G37*
G36*
X130650208Y-63319473D02*
X130791241Y-63333363D01*
X131017442Y-63401981D01*
X131017444Y-63401982D01*
X131017447Y-63401983D01*
X131225910Y-63513408D01*
X131408634Y-63663366D01*
X131558592Y-63846090D01*
X131670017Y-64054553D01*
X131670018Y-64054556D01*
X131670019Y-64054558D01*
X131738637Y-64280759D01*
X131761806Y-64516000D01*
X131738637Y-64751241D01*
X131684291Y-64930393D01*
X131670017Y-64977447D01*
X131558592Y-65185910D01*
X131408634Y-65368634D01*
X131225910Y-65518592D01*
X131017447Y-65630017D01*
X131017444Y-65630018D01*
X131017442Y-65630019D01*
X130791241Y-65698637D01*
X130650208Y-65712527D01*
X130614951Y-65716000D01*
X130497049Y-65716000D01*
X130461792Y-65712527D01*
X130320759Y-65698637D01*
X130094558Y-65630019D01*
X130094556Y-65630018D01*
X130094553Y-65630017D01*
X129886090Y-65518592D01*
X129703366Y-65368634D01*
X129553408Y-65185910D01*
X129441983Y-64977447D01*
X129427709Y-64930393D01*
X129373363Y-64751241D01*
X129350194Y-64516000D01*
X129373363Y-64280759D01*
X129441981Y-64054558D01*
X129441982Y-64054556D01*
X129441983Y-64054553D01*
X129553408Y-63846090D01*
X129703366Y-63663366D01*
X129886090Y-63513408D01*
X130094553Y-63401983D01*
X130094556Y-63401982D01*
X130094558Y-63401981D01*
X130320759Y-63333363D01*
X130461792Y-63319473D01*
X130497049Y-63316000D01*
X130614951Y-63316000D01*
X130650208Y-63319473D01*
X130650208Y-63319473D01*
G37*
G36*
X177808521Y-63601586D02*
X177972309Y-63669429D01*
X178119720Y-63767926D01*
X178245074Y-63893280D01*
X178343571Y-64040691D01*
X178411414Y-64204479D01*
X178446000Y-64378356D01*
X178446000Y-64555644D01*
X178411414Y-64729521D01*
X178343571Y-64893309D01*
X178245074Y-65040720D01*
X178119720Y-65166074D01*
X177972309Y-65264571D01*
X177808521Y-65332414D01*
X177634644Y-65367000D01*
X177457356Y-65367000D01*
X177283479Y-65332414D01*
X177119691Y-65264571D01*
X176972280Y-65166074D01*
X176846926Y-65040720D01*
X176748429Y-64893309D01*
X176680586Y-64729521D01*
X176646000Y-64555644D01*
X176646000Y-64378356D01*
X176680586Y-64204479D01*
X176748429Y-64040691D01*
X176846926Y-63893280D01*
X176972280Y-63767926D01*
X177119691Y-63669429D01*
X177283479Y-63601586D01*
X177457356Y-63567000D01*
X177634644Y-63567000D01*
X177808521Y-63601586D01*
X177808521Y-63601586D01*
G37*
G36*
X150835649Y-63469717D02*
X150874827Y-63473576D01*
X150950227Y-63496448D01*
X151025629Y-63519321D01*
X151164608Y-63593608D01*
X151286422Y-63693578D01*
X151386392Y-63815392D01*
X151460679Y-63954371D01*
X151460679Y-63954372D01*
X151506424Y-64105173D01*
X151512412Y-64165973D01*
X151521870Y-64262000D01*
X151506424Y-64418826D01*
X151460679Y-64569629D01*
X151386392Y-64708608D01*
X151286422Y-64830422D01*
X151164608Y-64930392D01*
X151025629Y-65004679D01*
X150978003Y-65019126D01*
X150874827Y-65050424D01*
X150835649Y-65054283D01*
X150757295Y-65062000D01*
X149978705Y-65062000D01*
X149900351Y-65054283D01*
X149861173Y-65050424D01*
X149757997Y-65019126D01*
X149710371Y-65004679D01*
X149571392Y-64930392D01*
X149449578Y-64830422D01*
X149349608Y-64708608D01*
X149275321Y-64569629D01*
X149229576Y-64418826D01*
X149214130Y-64262000D01*
X149223588Y-64165973D01*
X149229576Y-64105173D01*
X149275321Y-63954372D01*
X149275321Y-63954371D01*
X149349608Y-63815392D01*
X149449578Y-63693578D01*
X149571392Y-63593608D01*
X149710371Y-63519321D01*
X149785773Y-63496448D01*
X149861173Y-63473576D01*
X149900351Y-63469717D01*
X149978705Y-63462000D01*
X150757295Y-63462000D01*
X150835649Y-63469717D01*
X150835649Y-63469717D01*
G37*
G36*
X135595649Y-63469717D02*
X135634827Y-63473576D01*
X135710227Y-63496448D01*
X135785629Y-63519321D01*
X135924608Y-63593608D01*
X136046422Y-63693578D01*
X136146392Y-63815392D01*
X136220679Y-63954371D01*
X136220679Y-63954372D01*
X136266424Y-64105173D01*
X136272412Y-64165973D01*
X136281870Y-64262000D01*
X136266424Y-64418826D01*
X136220679Y-64569629D01*
X136146392Y-64708608D01*
X136046422Y-64830422D01*
X135924608Y-64930392D01*
X135785629Y-65004679D01*
X135738003Y-65019126D01*
X135634827Y-65050424D01*
X135595649Y-65054283D01*
X135517295Y-65062000D01*
X134738705Y-65062000D01*
X134660351Y-65054283D01*
X134621173Y-65050424D01*
X134517997Y-65019126D01*
X134470371Y-65004679D01*
X134331392Y-64930392D01*
X134209578Y-64830422D01*
X134109608Y-64708608D01*
X134035321Y-64569629D01*
X133989576Y-64418826D01*
X133974130Y-64262000D01*
X133983588Y-64165973D01*
X133989576Y-64105173D01*
X134035321Y-63954372D01*
X134035321Y-63954371D01*
X134109608Y-63815392D01*
X134209578Y-63693578D01*
X134331392Y-63593608D01*
X134470371Y-63519321D01*
X134545773Y-63496448D01*
X134621173Y-63473576D01*
X134660351Y-63469717D01*
X134738705Y-63462000D01*
X135517295Y-63462000D01*
X135595649Y-63469717D01*
X135595649Y-63469717D01*
G37*
G36*
X156835804Y-61618182D02*
X156958485Y-61642585D01*
X157182595Y-61735415D01*
X157189611Y-61738321D01*
X157397621Y-61877309D01*
X157574511Y-62054199D01*
X157574513Y-62054202D01*
X157713499Y-62262209D01*
X157809235Y-62493335D01*
X157858040Y-62738696D01*
X157858040Y-62988864D01*
X157809235Y-63234225D01*
X157739748Y-63401981D01*
X157713499Y-63465351D01*
X157574511Y-63673361D01*
X157397621Y-63850251D01*
X157397618Y-63850253D01*
X157189611Y-63989239D01*
X156958485Y-64084975D01*
X156856942Y-64105173D01*
X156713126Y-64133780D01*
X156462954Y-64133780D01*
X156319138Y-64105173D01*
X156217595Y-64084975D01*
X155986469Y-63989239D01*
X155778462Y-63850253D01*
X155778459Y-63850251D01*
X155601569Y-63673361D01*
X155462581Y-63465351D01*
X155436332Y-63401981D01*
X155366845Y-63234225D01*
X155318040Y-62988864D01*
X155318040Y-62738696D01*
X155366845Y-62493335D01*
X155462581Y-62262209D01*
X155601567Y-62054202D01*
X155601569Y-62054199D01*
X155778459Y-61877309D01*
X155986469Y-61738321D01*
X155993485Y-61735415D01*
X156217595Y-61642585D01*
X156340276Y-61618182D01*
X156462954Y-61593780D01*
X156713126Y-61593780D01*
X156835804Y-61618182D01*
X156835804Y-61618182D01*
G37*
G36*
X173608521Y-61901586D02*
X173772309Y-61969429D01*
X173919720Y-62067926D01*
X174045074Y-62193280D01*
X174143571Y-62340691D01*
X174211414Y-62504479D01*
X174246000Y-62678356D01*
X174246000Y-62855644D01*
X174211414Y-63029521D01*
X174143571Y-63193309D01*
X174045074Y-63340720D01*
X173919720Y-63466074D01*
X173772309Y-63564571D01*
X173608521Y-63632414D01*
X173434644Y-63667000D01*
X173257356Y-63667000D01*
X173083479Y-63632414D01*
X172919691Y-63564571D01*
X172772280Y-63466074D01*
X172646926Y-63340720D01*
X172548429Y-63193309D01*
X172480586Y-63029521D01*
X172446000Y-62855644D01*
X172446000Y-62678356D01*
X172480586Y-62504479D01*
X172548429Y-62340691D01*
X172646926Y-62193280D01*
X172772280Y-62067926D01*
X172919691Y-61969429D01*
X173083479Y-61901586D01*
X173257356Y-61867000D01*
X173434644Y-61867000D01*
X173608521Y-61901586D01*
X173608521Y-61901586D01*
G37*
G36*
X150835649Y-60929717D02*
X150874827Y-60933576D01*
X150917735Y-60946592D01*
X151025629Y-60979321D01*
X151164608Y-61053608D01*
X151286422Y-61153578D01*
X151386392Y-61275392D01*
X151460679Y-61414371D01*
X151460679Y-61414372D01*
X151506424Y-61565173D01*
X151521870Y-61722000D01*
X151506574Y-61877309D01*
X151506424Y-61878826D01*
X151460679Y-62029629D01*
X151386392Y-62168608D01*
X151286422Y-62290422D01*
X151164608Y-62390392D01*
X151025629Y-62464679D01*
X150950227Y-62487552D01*
X150874827Y-62510424D01*
X150835649Y-62514283D01*
X150757295Y-62522000D01*
X149978705Y-62522000D01*
X149900351Y-62514283D01*
X149861173Y-62510424D01*
X149785772Y-62487551D01*
X149710371Y-62464679D01*
X149571392Y-62390392D01*
X149449578Y-62290422D01*
X149349608Y-62168608D01*
X149275321Y-62029629D01*
X149229576Y-61878826D01*
X149229427Y-61877309D01*
X149214130Y-61722000D01*
X149229576Y-61565173D01*
X149275321Y-61414372D01*
X149275321Y-61414371D01*
X149349608Y-61275392D01*
X149449578Y-61153578D01*
X149571392Y-61053608D01*
X149710371Y-60979321D01*
X149818265Y-60946592D01*
X149861173Y-60933576D01*
X149900351Y-60929717D01*
X149978705Y-60922000D01*
X150757295Y-60922000D01*
X150835649Y-60929717D01*
X150835649Y-60929717D01*
G37*
G36*
X135595649Y-60929717D02*
X135634827Y-60933576D01*
X135677735Y-60946592D01*
X135785629Y-60979321D01*
X135924608Y-61053608D01*
X136046422Y-61153578D01*
X136146392Y-61275392D01*
X136220679Y-61414371D01*
X136220679Y-61414372D01*
X136266424Y-61565173D01*
X136281870Y-61722000D01*
X136266574Y-61877309D01*
X136266424Y-61878826D01*
X136220679Y-62029629D01*
X136146392Y-62168608D01*
X136046422Y-62290422D01*
X135924608Y-62390392D01*
X135785629Y-62464679D01*
X135710227Y-62487552D01*
X135634827Y-62510424D01*
X135595649Y-62514283D01*
X135517295Y-62522000D01*
X134738705Y-62522000D01*
X134660351Y-62514283D01*
X134621173Y-62510424D01*
X134545772Y-62487551D01*
X134470371Y-62464679D01*
X134331392Y-62390392D01*
X134209578Y-62290422D01*
X134109608Y-62168608D01*
X134035321Y-62029629D01*
X133989576Y-61878826D01*
X133989427Y-61877309D01*
X133974130Y-61722000D01*
X133989576Y-61565173D01*
X134035321Y-61414372D01*
X134035321Y-61414371D01*
X134109608Y-61275392D01*
X134209578Y-61153578D01*
X134331392Y-61053608D01*
X134470371Y-60979321D01*
X134578265Y-60946592D01*
X134621173Y-60933576D01*
X134660351Y-60929717D01*
X134738705Y-60922000D01*
X135517295Y-60922000D01*
X135595649Y-60929717D01*
X135595649Y-60929717D01*
G37*
G36*
X110222000Y-61835000D02*
X108472000Y-61835000D01*
X108472000Y-60085000D01*
X110222000Y-60085000D01*
X110222000Y-61835000D01*
X110222000Y-61835000D01*
G37*
G36*
X112102228Y-60118625D02*
X112261467Y-60184584D01*
X112404783Y-60280345D01*
X112526655Y-60402217D01*
X112622416Y-60545533D01*
X112688375Y-60704772D01*
X112722000Y-60873819D01*
X112722000Y-61046181D01*
X112688375Y-61215228D01*
X112622416Y-61374467D01*
X112526655Y-61517783D01*
X112404783Y-61639655D01*
X112261467Y-61735416D01*
X112102228Y-61801375D01*
X111933181Y-61835000D01*
X111760819Y-61835000D01*
X111591772Y-61801375D01*
X111432533Y-61735416D01*
X111289217Y-61639655D01*
X111167345Y-61517783D01*
X111071584Y-61374467D01*
X111005625Y-61215228D01*
X110972000Y-61046181D01*
X110972000Y-60873819D01*
X111005625Y-60704772D01*
X111071584Y-60545533D01*
X111167345Y-60402217D01*
X111289217Y-60280345D01*
X111432533Y-60184584D01*
X111591772Y-60118625D01*
X111760819Y-60085000D01*
X111933181Y-60085000D01*
X112102228Y-60118625D01*
X112102228Y-60118625D01*
G37*
G36*
X130650208Y-58747473D02*
X130791241Y-58761363D01*
X131017442Y-58829981D01*
X131017444Y-58829982D01*
X131017447Y-58829983D01*
X131225910Y-58941408D01*
X131408634Y-59091366D01*
X131558592Y-59274090D01*
X131670017Y-59482553D01*
X131670018Y-59482556D01*
X131670019Y-59482558D01*
X131738637Y-59708759D01*
X131761806Y-59944000D01*
X131738637Y-60179241D01*
X131670997Y-60402217D01*
X131670017Y-60405447D01*
X131558592Y-60613910D01*
X131408634Y-60796634D01*
X131225910Y-60946592D01*
X131017447Y-61058017D01*
X131017444Y-61058018D01*
X131017442Y-61058019D01*
X130791241Y-61126637D01*
X130650208Y-61140527D01*
X130614951Y-61144000D01*
X130497049Y-61144000D01*
X130461792Y-61140527D01*
X130320759Y-61126637D01*
X130094558Y-61058019D01*
X130094556Y-61058018D01*
X130094553Y-61058017D01*
X129886090Y-60946592D01*
X129703366Y-60796634D01*
X129553408Y-60613910D01*
X129441983Y-60405447D01*
X129441003Y-60402217D01*
X129373363Y-60179241D01*
X129350194Y-59944000D01*
X129373363Y-59708759D01*
X129441981Y-59482558D01*
X129441982Y-59482556D01*
X129441983Y-59482553D01*
X129553408Y-59274090D01*
X129703366Y-59091366D01*
X129886090Y-58941408D01*
X130094553Y-58829983D01*
X130094556Y-58829982D01*
X130094558Y-58829981D01*
X130320759Y-58761363D01*
X130461792Y-58747473D01*
X130497049Y-58744000D01*
X130614951Y-58744000D01*
X130650208Y-58747473D01*
X130650208Y-58747473D01*
G37*
G36*
X118206026Y-58790115D02*
X118424412Y-58880573D01*
X118620958Y-59011901D01*
X118788099Y-59179042D01*
X118919427Y-59375588D01*
X119009885Y-59593974D01*
X119056000Y-59825809D01*
X119056000Y-60062191D01*
X119009885Y-60294026D01*
X118919427Y-60512412D01*
X118788099Y-60708958D01*
X118620958Y-60876099D01*
X118424412Y-61007427D01*
X118206026Y-61097885D01*
X117974191Y-61144000D01*
X117737809Y-61144000D01*
X117505974Y-61097885D01*
X117287588Y-61007427D01*
X117091042Y-60876099D01*
X116923901Y-60708958D01*
X116792573Y-60512412D01*
X116702115Y-60294026D01*
X116656000Y-60062191D01*
X116656000Y-59825809D01*
X116702115Y-59593974D01*
X116792573Y-59375588D01*
X116923901Y-59179042D01*
X117091042Y-59011901D01*
X117287588Y-58880573D01*
X117505974Y-58790115D01*
X117737809Y-58744000D01*
X117974191Y-58744000D01*
X118206026Y-58790115D01*
X118206026Y-58790115D01*
G37*
G36*
X150835649Y-58389717D02*
X150874827Y-58393576D01*
X150950227Y-58416448D01*
X151025629Y-58439321D01*
X151164608Y-58513608D01*
X151286422Y-58613578D01*
X151386392Y-58735392D01*
X151460679Y-58874371D01*
X151506424Y-59025174D01*
X151521870Y-59182000D01*
X151506424Y-59338826D01*
X151460679Y-59489629D01*
X151386392Y-59628608D01*
X151286422Y-59750422D01*
X151164608Y-59850392D01*
X151025629Y-59924679D01*
X150961935Y-59944000D01*
X150874827Y-59970424D01*
X150835649Y-59974283D01*
X150757295Y-59982000D01*
X149978705Y-59982000D01*
X149900351Y-59974283D01*
X149861173Y-59970424D01*
X149774065Y-59944000D01*
X149710371Y-59924679D01*
X149571392Y-59850392D01*
X149449578Y-59750422D01*
X149349608Y-59628608D01*
X149275321Y-59489629D01*
X149229576Y-59338826D01*
X149214130Y-59182000D01*
X149229576Y-59025174D01*
X149275321Y-58874371D01*
X149349608Y-58735392D01*
X149449578Y-58613578D01*
X149571392Y-58513608D01*
X149710371Y-58439321D01*
X149785772Y-58416449D01*
X149861173Y-58393576D01*
X149900351Y-58389717D01*
X149978705Y-58382000D01*
X150757295Y-58382000D01*
X150835649Y-58389717D01*
X150835649Y-58389717D01*
G37*
G36*
X135595649Y-58389717D02*
X135634827Y-58393576D01*
X135710227Y-58416448D01*
X135785629Y-58439321D01*
X135924608Y-58513608D01*
X136046422Y-58613578D01*
X136146392Y-58735392D01*
X136220679Y-58874371D01*
X136266424Y-59025174D01*
X136281870Y-59182000D01*
X136266424Y-59338826D01*
X136220679Y-59489629D01*
X136146392Y-59628608D01*
X136046422Y-59750422D01*
X135924608Y-59850392D01*
X135785629Y-59924679D01*
X135721935Y-59944000D01*
X135634827Y-59970424D01*
X135595649Y-59974283D01*
X135517295Y-59982000D01*
X134738705Y-59982000D01*
X134660351Y-59974283D01*
X134621173Y-59970424D01*
X134534065Y-59944000D01*
X134470371Y-59924679D01*
X134331392Y-59850392D01*
X134209578Y-59750422D01*
X134109608Y-59628608D01*
X134035321Y-59489629D01*
X133989576Y-59338826D01*
X133974130Y-59182000D01*
X133989576Y-59025174D01*
X134035321Y-58874371D01*
X134109608Y-58735392D01*
X134209578Y-58613578D01*
X134331392Y-58513608D01*
X134470371Y-58439321D01*
X134545772Y-58416449D01*
X134621173Y-58393576D01*
X134660351Y-58389717D01*
X134738705Y-58382000D01*
X135517295Y-58382000D01*
X135595649Y-58389717D01*
X135595649Y-58389717D01*
G37*
G36*
X135595649Y-55849717D02*
X135634827Y-55853576D01*
X135710228Y-55876449D01*
X135785629Y-55899321D01*
X135924608Y-55973608D01*
X136046422Y-56073578D01*
X136146392Y-56195392D01*
X136220679Y-56334371D01*
X136266424Y-56485174D01*
X136281870Y-56642000D01*
X136266424Y-56798826D01*
X136220679Y-56949629D01*
X136146392Y-57088608D01*
X136046422Y-57210422D01*
X135924608Y-57310392D01*
X135785629Y-57384679D01*
X135710227Y-57407552D01*
X135634827Y-57430424D01*
X135595649Y-57434283D01*
X135517295Y-57442000D01*
X134738705Y-57442000D01*
X134660351Y-57434283D01*
X134621173Y-57430424D01*
X134545772Y-57407551D01*
X134470371Y-57384679D01*
X134331392Y-57310392D01*
X134209578Y-57210422D01*
X134109608Y-57088608D01*
X134035321Y-56949629D01*
X133989576Y-56798826D01*
X133974130Y-56642000D01*
X133989576Y-56485174D01*
X134035321Y-56334371D01*
X134109608Y-56195392D01*
X134209578Y-56073578D01*
X134331392Y-55973608D01*
X134470371Y-55899321D01*
X134545772Y-55876449D01*
X134621173Y-55853576D01*
X134660351Y-55849717D01*
X134738705Y-55842000D01*
X135517295Y-55842000D01*
X135595649Y-55849717D01*
X135595649Y-55849717D01*
G37*
G36*
X150835649Y-55849717D02*
X150874827Y-55853576D01*
X150950228Y-55876449D01*
X151025629Y-55899321D01*
X151164608Y-55973608D01*
X151286422Y-56073578D01*
X151386392Y-56195392D01*
X151460679Y-56334371D01*
X151506424Y-56485174D01*
X151521870Y-56642000D01*
X151506424Y-56798826D01*
X151460679Y-56949629D01*
X151386392Y-57088608D01*
X151286422Y-57210422D01*
X151164608Y-57310392D01*
X151025629Y-57384679D01*
X150950227Y-57407552D01*
X150874827Y-57430424D01*
X150835649Y-57434283D01*
X150757295Y-57442000D01*
X149978705Y-57442000D01*
X149900351Y-57434283D01*
X149861173Y-57430424D01*
X149785772Y-57407551D01*
X149710371Y-57384679D01*
X149571392Y-57310392D01*
X149449578Y-57210422D01*
X149349608Y-57088608D01*
X149275321Y-56949629D01*
X149229576Y-56798826D01*
X149214130Y-56642000D01*
X149229576Y-56485174D01*
X149275321Y-56334371D01*
X149349608Y-56195392D01*
X149449578Y-56073578D01*
X149571392Y-55973608D01*
X149710371Y-55899321D01*
X149785772Y-55876449D01*
X149861173Y-55853576D01*
X149900351Y-55849717D01*
X149978705Y-55842000D01*
X150757295Y-55842000D01*
X150835649Y-55849717D01*
X150835649Y-55849717D01*
G37*
G36*
X166639000Y-57038000D02*
X165339000Y-57038000D01*
X165339000Y-55738000D01*
X166639000Y-55738000D01*
X166639000Y-57038000D01*
X166639000Y-57038000D01*
G37*
G36*
X161136738Y-55754653D02*
X161178598Y-55762979D01*
X161192892Y-55768900D01*
X161296890Y-55811977D01*
X161403354Y-55883114D01*
X161493886Y-55973646D01*
X161565023Y-56080110D01*
X161614021Y-56198403D01*
X161639000Y-56323979D01*
X161639000Y-56452021D01*
X161614021Y-56577597D01*
X161565023Y-56695890D01*
X161493886Y-56802354D01*
X161403354Y-56892886D01*
X161296890Y-56964023D01*
X161213245Y-56998670D01*
X161178598Y-57013021D01*
X161136738Y-57021347D01*
X161053021Y-57038000D01*
X160924979Y-57038000D01*
X160841262Y-57021347D01*
X160799402Y-57013021D01*
X160764755Y-56998670D01*
X160681110Y-56964023D01*
X160574646Y-56892886D01*
X160484114Y-56802354D01*
X160412977Y-56695890D01*
X160363979Y-56577597D01*
X160339000Y-56452021D01*
X160339000Y-56323979D01*
X160363979Y-56198403D01*
X160412977Y-56080110D01*
X160484114Y-55973646D01*
X160574646Y-55883114D01*
X160681110Y-55811977D01*
X160785108Y-55768900D01*
X160799402Y-55762979D01*
X160841262Y-55754653D01*
X160924979Y-55738000D01*
X161053021Y-55738000D01*
X161136738Y-55754653D01*
X161136738Y-55754653D01*
G37*
G36*
X176568253Y-50847801D02*
X176838730Y-50901602D01*
X177049799Y-50989030D01*
X177348296Y-51112671D01*
X177806899Y-51419100D01*
X178196900Y-51809101D01*
X178503329Y-52267704D01*
X178714398Y-52777271D01*
X178822000Y-53318223D01*
X178822000Y-53869777D01*
X178775808Y-54102000D01*
X178742549Y-54269207D01*
X178714398Y-54410729D01*
X178503329Y-54920296D01*
X178196900Y-55378899D01*
X177806899Y-55768900D01*
X177348296Y-56075329D01*
X177058433Y-56195394D01*
X176838730Y-56286398D01*
X176597552Y-56334371D01*
X176297777Y-56394000D01*
X175746223Y-56394000D01*
X175446448Y-56334371D01*
X175205270Y-56286398D01*
X174985567Y-56195394D01*
X174695704Y-56075329D01*
X174237101Y-55768900D01*
X173847100Y-55378899D01*
X173540671Y-54920296D01*
X173329602Y-54410729D01*
X173301452Y-54269207D01*
X173268192Y-54102000D01*
X173222000Y-53869777D01*
X173222000Y-53318223D01*
X173329602Y-52777271D01*
X173540671Y-52267704D01*
X173847100Y-51809101D01*
X174237101Y-51419100D01*
X174695704Y-51112671D01*
X174994201Y-50989030D01*
X175205270Y-50901602D01*
X175475747Y-50847801D01*
X175746223Y-50794000D01*
X176297777Y-50794000D01*
X176568253Y-50847801D01*
X176568253Y-50847801D01*
G37*
G36*
X110782253Y-50847801D02*
X111052730Y-50901602D01*
X111263799Y-50989030D01*
X111562296Y-51112671D01*
X112020899Y-51419100D01*
X112410900Y-51809101D01*
X112717329Y-52267704D01*
X112928398Y-52777271D01*
X113036000Y-53318223D01*
X113036000Y-53869777D01*
X112989808Y-54102000D01*
X112956549Y-54269207D01*
X112928398Y-54410729D01*
X112717329Y-54920296D01*
X112410900Y-55378899D01*
X112020899Y-55768900D01*
X111562296Y-56075329D01*
X111272433Y-56195394D01*
X111052730Y-56286398D01*
X110811552Y-56334371D01*
X110511777Y-56394000D01*
X109960223Y-56394000D01*
X109660448Y-56334371D01*
X109419270Y-56286398D01*
X109199567Y-56195394D01*
X108909704Y-56075329D01*
X108451101Y-55768900D01*
X108061100Y-55378899D01*
X107754671Y-54920296D01*
X107543602Y-54410729D01*
X107515452Y-54269207D01*
X107482192Y-54102000D01*
X107436000Y-53869777D01*
X107436000Y-53318223D01*
X107543602Y-52777271D01*
X107754671Y-52267704D01*
X108061100Y-51809101D01*
X108451101Y-51419100D01*
X108909704Y-51112671D01*
X109208201Y-50989030D01*
X109419270Y-50901602D01*
X109689747Y-50847801D01*
X109960223Y-50794000D01*
X110511777Y-50794000D01*
X110782253Y-50847801D01*
X110782253Y-50847801D01*
G37*
G36*
X115760000Y-55760000D02*
X114240000Y-55760000D01*
X114240000Y-54240000D01*
X115760000Y-54240000D01*
X115760000Y-55760000D01*
X115760000Y-55760000D01*
G37*
G36*
X117761683Y-54269206D02*
X117899992Y-54326495D01*
X117899995Y-54326497D01*
X118024411Y-54409629D01*
X118024476Y-54409673D01*
X118130327Y-54515524D01*
X118213505Y-54640008D01*
X118270794Y-54778317D01*
X118300000Y-54925145D01*
X118300000Y-55074855D01*
X118270794Y-55221683D01*
X118213505Y-55359992D01*
X118130327Y-55484476D01*
X118024476Y-55590327D01*
X117899992Y-55673505D01*
X117761683Y-55730794D01*
X117614855Y-55760000D01*
X117465145Y-55760000D01*
X117318317Y-55730794D01*
X117180008Y-55673505D01*
X117055524Y-55590327D01*
X116949673Y-55484476D01*
X116866495Y-55359992D01*
X116809206Y-55221683D01*
X116780000Y-55074855D01*
X116780000Y-54925145D01*
X116809206Y-54778317D01*
X116866495Y-54640008D01*
X116949673Y-54515524D01*
X117055524Y-54409673D01*
X117055590Y-54409629D01*
X117180005Y-54326497D01*
X117180008Y-54326495D01*
X117318317Y-54269206D01*
X117465145Y-54240000D01*
X117614855Y-54240000D01*
X117761683Y-54269206D01*
X117761683Y-54269206D01*
G37*
G36*
X120301683Y-54269206D02*
X120439992Y-54326495D01*
X120439995Y-54326497D01*
X120564411Y-54409629D01*
X120564476Y-54409673D01*
X120670327Y-54515524D01*
X120753505Y-54640008D01*
X120810794Y-54778317D01*
X120840000Y-54925145D01*
X120840000Y-55074855D01*
X120810794Y-55221683D01*
X120753505Y-55359992D01*
X120670327Y-55484476D01*
X120564476Y-55590327D01*
X120439992Y-55673505D01*
X120301683Y-55730794D01*
X120154855Y-55760000D01*
X120005145Y-55760000D01*
X119858317Y-55730794D01*
X119720008Y-55673505D01*
X119595524Y-55590327D01*
X119489673Y-55484476D01*
X119406495Y-55359992D01*
X119349206Y-55221683D01*
X119320000Y-55074855D01*
X119320000Y-54925145D01*
X119349206Y-54778317D01*
X119406495Y-54640008D01*
X119489673Y-54515524D01*
X119595524Y-54409673D01*
X119595590Y-54409629D01*
X119720005Y-54326497D01*
X119720008Y-54326495D01*
X119858317Y-54269206D01*
X120005145Y-54240000D01*
X120154855Y-54240000D01*
X120301683Y-54269206D01*
X120301683Y-54269206D01*
G37*
G36*
X150835649Y-53309717D02*
X150874827Y-53313576D01*
X150890149Y-53318224D01*
X151025629Y-53359321D01*
X151164608Y-53433608D01*
X151286422Y-53533578D01*
X151386392Y-53655392D01*
X151460679Y-53794371D01*
X151460679Y-53794372D01*
X151506424Y-53945173D01*
X151521870Y-54102000D01*
X151506424Y-54258827D01*
X151483552Y-54334227D01*
X151460679Y-54409629D01*
X151386392Y-54548608D01*
X151286422Y-54670422D01*
X151164608Y-54770392D01*
X151025629Y-54844679D01*
X150950228Y-54867551D01*
X150874827Y-54890424D01*
X150835649Y-54894283D01*
X150757295Y-54902000D01*
X149978705Y-54902000D01*
X149900351Y-54894283D01*
X149861173Y-54890424D01*
X149785772Y-54867551D01*
X149710371Y-54844679D01*
X149571392Y-54770392D01*
X149449578Y-54670422D01*
X149349608Y-54548608D01*
X149275321Y-54409629D01*
X149252449Y-54334228D01*
X149229576Y-54258827D01*
X149214130Y-54102000D01*
X149229576Y-53945173D01*
X149275321Y-53794372D01*
X149275321Y-53794371D01*
X149349608Y-53655392D01*
X149449578Y-53533578D01*
X149571392Y-53433608D01*
X149710371Y-53359321D01*
X149845851Y-53318224D01*
X149861173Y-53313576D01*
X149900351Y-53309717D01*
X149978705Y-53302000D01*
X150757295Y-53302000D01*
X150835649Y-53309717D01*
X150835649Y-53309717D01*
G37*
G36*
X135595649Y-53309717D02*
X135634827Y-53313576D01*
X135650149Y-53318224D01*
X135785629Y-53359321D01*
X135924608Y-53433608D01*
X136046422Y-53533578D01*
X136146392Y-53655392D01*
X136220679Y-53794371D01*
X136220679Y-53794372D01*
X136266424Y-53945173D01*
X136281870Y-54102000D01*
X136266424Y-54258827D01*
X136243552Y-54334227D01*
X136220679Y-54409629D01*
X136146392Y-54548608D01*
X136046422Y-54670422D01*
X135924608Y-54770392D01*
X135785629Y-54844679D01*
X135710228Y-54867551D01*
X135634827Y-54890424D01*
X135595649Y-54894283D01*
X135517295Y-54902000D01*
X134738705Y-54902000D01*
X134660351Y-54894283D01*
X134621173Y-54890424D01*
X134545772Y-54867551D01*
X134470371Y-54844679D01*
X134331392Y-54770392D01*
X134209578Y-54670422D01*
X134109608Y-54548608D01*
X134035321Y-54409629D01*
X134012449Y-54334228D01*
X133989576Y-54258827D01*
X133974130Y-54102000D01*
X133989576Y-53945173D01*
X134035321Y-53794372D01*
X134035321Y-53794371D01*
X134109608Y-53655392D01*
X134209578Y-53533578D01*
X134331392Y-53433608D01*
X134470371Y-53359321D01*
X134605851Y-53318224D01*
X134621173Y-53313576D01*
X134660351Y-53309717D01*
X134738705Y-53302000D01*
X135517295Y-53302000D01*
X135595649Y-53309717D01*
X135595649Y-53309717D01*
G37*
M02*
