G04 #@! TF.GenerationSoftware,KiCad,Pcbnew,5.0.2-bee76a0~70~ubuntu18.04.1*
G04 #@! TF.CreationDate,2019-05-27T22:26:56+02:00*
G04 #@! TF.ProjectId,flypi,666c7970-692e-46b6-9963-61645f706362,rev?*
G04 #@! TF.SameCoordinates,Original*
G04 #@! TF.FileFunction,Other,Fab,Top*
%FSLAX46Y46*%
G04 Gerber Fmt 4.6, Leading zero omitted, Abs format (unit mm)*
G04 Created by KiCad (PCBNEW 5.0.2-bee76a0~70~ubuntu18.04.1) date Mon 27 May 2019 22:26:56 CEST*
%MOMM*%
%LPD*%
G01*
G04 APERTURE LIST*
%ADD10C,0.100000*%
%ADD11C,0.150000*%
G04 APERTURE END LIST*
D10*
G04 #@! TO.C,Q2*
X115800000Y-56750000D02*
X119300000Y-56750000D01*
X119293625Y-56753625D02*
G75*
G03X117540000Y-52520000I-1753625J1753625D01*
G01*
X115786375Y-56753625D02*
G75*
G02X117540000Y-52520000I1753625J1753625D01*
G01*
G04 #@! TO.C,R1*
X124888000Y-133818000D02*
X124888000Y-129418000D01*
X124888000Y-129418000D02*
X114888000Y-129418000D01*
X114888000Y-129418000D02*
X114888000Y-133818000D01*
X114888000Y-133818000D02*
X124888000Y-133818000D01*
X124888000Y-132548000D02*
X114888000Y-132548000D01*
X121738000Y-133818000D02*
X121738000Y-132548000D01*
X118038000Y-133818000D02*
X118038000Y-132548000D01*
G04 #@! TO.C,Q3*
X126337000Y-74511000D02*
X126337000Y-71011000D01*
X126340625Y-71017375D02*
G75*
G03X122107000Y-72771000I-1753625J-1753625D01*
G01*
X126340625Y-74524625D02*
G75*
G02X122107000Y-72771000I-1753625J1753625D01*
G01*
G04 #@! TO.C,Q1*
X127226000Y-117818000D02*
X127226000Y-114318000D01*
X127229625Y-114324375D02*
G75*
G03X122996000Y-116078000I-1753625J-1753625D01*
G01*
X127229625Y-117831625D02*
G75*
G02X122996000Y-116078000I-1753625J1753625D01*
G01*
G04 #@! TO.C,Q4*
X119860000Y-90894000D02*
X119860000Y-87394000D01*
X119863625Y-87400375D02*
G75*
G03X115630000Y-89154000I-1753625J-1753625D01*
G01*
X119863625Y-90907625D02*
G75*
G02X115630000Y-89154000I-1753625J1753625D01*
G01*
G04 #@! TO.C,P9*
X131318000Y-93218000D02*
X131318000Y-83058000D01*
X131318000Y-83058000D02*
X128778000Y-83058000D01*
X128778000Y-83058000D02*
X128778000Y-93218000D01*
X128778000Y-93218000D02*
X131318000Y-93218000D01*
G04 #@! TO.C,P3*
X111316000Y-117184000D02*
X105566000Y-117184000D01*
X105566000Y-117184000D02*
X105566000Y-124584000D01*
X105566000Y-124584000D02*
X111316000Y-124584000D01*
X111316000Y-124584000D02*
X111316000Y-117184000D01*
X111716000Y-119284000D02*
X111716000Y-116784000D01*
X111716000Y-116784000D02*
X109216000Y-116784000D01*
G04 #@! TO.C,C7*
X129556000Y-118892000D02*
X129556000Y-121392000D01*
X129556000Y-121392000D02*
X136556000Y-121392000D01*
X136556000Y-121392000D02*
X136556000Y-118892000D01*
X136556000Y-118892000D02*
X129556000Y-118892000D01*
G04 #@! TO.C,C10*
X138954000Y-118892000D02*
X138954000Y-121392000D01*
X138954000Y-121392000D02*
X145954000Y-121392000D01*
X145954000Y-121392000D02*
X145954000Y-118892000D01*
X145954000Y-118892000D02*
X138954000Y-118892000D01*
G04 #@! TO.C,P1*
X119952000Y-117184000D02*
X114202000Y-117184000D01*
X114202000Y-117184000D02*
X114202000Y-124584000D01*
X114202000Y-124584000D02*
X119952000Y-124584000D01*
X119952000Y-124584000D02*
X119952000Y-117184000D01*
X120352000Y-119284000D02*
X120352000Y-116784000D01*
X120352000Y-116784000D02*
X117852000Y-116784000D01*
G04 #@! TO.C,P4*
X111316000Y-104992000D02*
X105566000Y-104992000D01*
X105566000Y-104992000D02*
X105566000Y-114892000D01*
X105566000Y-114892000D02*
X111316000Y-114892000D01*
X111316000Y-114892000D02*
X111316000Y-104992000D01*
X111716000Y-107092000D02*
X111716000Y-104592000D01*
X111716000Y-104592000D02*
X109216000Y-104592000D01*
G04 #@! TO.C,C8*
X128758000Y-97044000D02*
X126258000Y-97044000D01*
X126258000Y-97044000D02*
X126258000Y-104044000D01*
X126258000Y-104044000D02*
X128758000Y-104044000D01*
X128758000Y-104044000D02*
X128758000Y-97044000D01*
G04 #@! TO.C,P10*
X119952000Y-102706000D02*
X114202000Y-102706000D01*
X114202000Y-102706000D02*
X114202000Y-115106000D01*
X114202000Y-115106000D02*
X119952000Y-115106000D01*
X119952000Y-115106000D02*
X119952000Y-102706000D01*
X120352000Y-104806000D02*
X120352000Y-102306000D01*
X120352000Y-102306000D02*
X117852000Y-102306000D01*
G04 #@! TO.C,P8*
X111443000Y-66765000D02*
X105693000Y-66765000D01*
X105693000Y-66765000D02*
X105693000Y-76665000D01*
X105693000Y-76665000D02*
X111443000Y-76665000D01*
X111443000Y-76665000D02*
X111443000Y-66765000D01*
X111843000Y-68865000D02*
X111843000Y-66365000D01*
X111843000Y-66365000D02*
X109343000Y-66365000D01*
G04 #@! TO.C,P7*
X111570000Y-84418000D02*
X105820000Y-84418000D01*
X105820000Y-84418000D02*
X105820000Y-94318000D01*
X105820000Y-94318000D02*
X111570000Y-94318000D01*
X111570000Y-94318000D02*
X111570000Y-84418000D01*
X111970000Y-86518000D02*
X111970000Y-84018000D01*
X111970000Y-84018000D02*
X109470000Y-84018000D01*
G04 #@! TO.C,P6*
X120079000Y-69178000D02*
X114329000Y-69178000D01*
X114329000Y-69178000D02*
X114329000Y-76578000D01*
X114329000Y-76578000D02*
X120079000Y-76578000D01*
X120079000Y-76578000D02*
X120079000Y-69178000D01*
X120479000Y-71278000D02*
X120479000Y-68778000D01*
X120479000Y-68778000D02*
X117979000Y-68778000D01*
G04 #@! TO.C,P5*
X106897000Y-58610000D02*
X106897000Y-64360000D01*
X106897000Y-64360000D02*
X114297000Y-64360000D01*
X114297000Y-64360000D02*
X114297000Y-58610000D01*
X114297000Y-58610000D02*
X106897000Y-58610000D01*
X108997000Y-58210000D02*
X106497000Y-58210000D01*
X106497000Y-58210000D02*
X106497000Y-60710000D01*
G04 #@! TO.C,R4*
X130556000Y-64516000D02*
X129156000Y-64516000D01*
X117856000Y-64516000D02*
X119256000Y-64516000D01*
X129156000Y-62716000D02*
X119256000Y-62716000D01*
X129156000Y-66316000D02*
X129156000Y-62716000D01*
X119256000Y-66316000D02*
X129156000Y-66316000D01*
X119256000Y-62716000D02*
X119256000Y-66316000D01*
G04 #@! TO.C,R5*
X110620000Y-77956000D02*
X110620000Y-81556000D01*
X110620000Y-81556000D02*
X120520000Y-81556000D01*
X120520000Y-81556000D02*
X120520000Y-77956000D01*
X120520000Y-77956000D02*
X110620000Y-77956000D01*
X109220000Y-79756000D02*
X110620000Y-79756000D01*
X121920000Y-79756000D02*
X120520000Y-79756000D01*
G04 #@! TO.C,R7*
X133988000Y-96752000D02*
X133988000Y-100352000D01*
X133988000Y-100352000D02*
X143888000Y-100352000D01*
X143888000Y-100352000D02*
X143888000Y-96752000D01*
X143888000Y-96752000D02*
X133988000Y-96752000D01*
X132588000Y-98552000D02*
X133988000Y-98552000D01*
X145288000Y-98552000D02*
X143888000Y-98552000D01*
G04 #@! TO.C,R8*
X145288000Y-103124000D02*
X143888000Y-103124000D01*
X132588000Y-103124000D02*
X133988000Y-103124000D01*
X143888000Y-101324000D02*
X133988000Y-101324000D01*
X143888000Y-104924000D02*
X143888000Y-101324000D01*
X133988000Y-104924000D02*
X143888000Y-104924000D01*
X133988000Y-101324000D02*
X133988000Y-104924000D01*
G04 #@! TO.C,R9*
X133988000Y-106912000D02*
X133988000Y-110512000D01*
X133988000Y-110512000D02*
X143888000Y-110512000D01*
X143888000Y-110512000D02*
X143888000Y-106912000D01*
X143888000Y-106912000D02*
X133988000Y-106912000D01*
X132588000Y-108712000D02*
X133988000Y-108712000D01*
X145288000Y-108712000D02*
X143888000Y-108712000D01*
G04 #@! TO.C,1k1*
X110236000Y-98806000D02*
X111636000Y-98806000D01*
X122936000Y-98806000D02*
X121536000Y-98806000D01*
X111636000Y-100606000D02*
X121536000Y-100606000D01*
X111636000Y-97006000D02*
X111636000Y-100606000D01*
X121536000Y-97006000D02*
X111636000Y-97006000D01*
X121536000Y-100606000D02*
X121536000Y-97006000D01*
G04 #@! TO.C,R2*
X119256000Y-58144000D02*
X119256000Y-61744000D01*
X119256000Y-61744000D02*
X129156000Y-61744000D01*
X129156000Y-61744000D02*
X129156000Y-58144000D01*
X129156000Y-58144000D02*
X119256000Y-58144000D01*
X117856000Y-59944000D02*
X119256000Y-59944000D01*
X130556000Y-59944000D02*
X129156000Y-59944000D01*
G04 #@! TO.C,R3*
X133988000Y-111738000D02*
X133988000Y-115338000D01*
X133988000Y-115338000D02*
X143888000Y-115338000D01*
X143888000Y-115338000D02*
X143888000Y-111738000D01*
X143888000Y-111738000D02*
X133988000Y-111738000D01*
X132588000Y-113538000D02*
X133988000Y-113538000D01*
X145288000Y-113538000D02*
X143888000Y-113538000D01*
G04 #@! TD*
G04 #@! TO.C,REF\002A\002A*
D11*
X174988666Y-129738380D02*
X174655333Y-129262190D01*
X174417238Y-129738380D02*
X174417238Y-128738380D01*
X174798190Y-128738380D01*
X174893428Y-128786000D01*
X174941047Y-128833619D01*
X174988666Y-128928857D01*
X174988666Y-129071714D01*
X174941047Y-129166952D01*
X174893428Y-129214571D01*
X174798190Y-129262190D01*
X174417238Y-129262190D01*
X175417238Y-129214571D02*
X175750571Y-129214571D01*
X175893428Y-129738380D02*
X175417238Y-129738380D01*
X175417238Y-128738380D01*
X175893428Y-128738380D01*
X176655333Y-129214571D02*
X176322000Y-129214571D01*
X176322000Y-129738380D02*
X176322000Y-128738380D01*
X176798190Y-128738380D01*
X177322000Y-128738380D02*
X177322000Y-128976476D01*
X177083904Y-128881238D02*
X177322000Y-128976476D01*
X177560095Y-128881238D01*
X177179142Y-129166952D02*
X177322000Y-128976476D01*
X177464857Y-129166952D01*
X178083904Y-128738380D02*
X178083904Y-128976476D01*
X177845809Y-128881238D02*
X178083904Y-128976476D01*
X178322000Y-128881238D01*
X177941047Y-129166952D02*
X178083904Y-128976476D01*
X178226761Y-129166952D01*
X174988666Y-54046380D02*
X174655333Y-53570190D01*
X174417238Y-54046380D02*
X174417238Y-53046380D01*
X174798190Y-53046380D01*
X174893428Y-53094000D01*
X174941047Y-53141619D01*
X174988666Y-53236857D01*
X174988666Y-53379714D01*
X174941047Y-53474952D01*
X174893428Y-53522571D01*
X174798190Y-53570190D01*
X174417238Y-53570190D01*
X175417238Y-53522571D02*
X175750571Y-53522571D01*
X175893428Y-54046380D02*
X175417238Y-54046380D01*
X175417238Y-53046380D01*
X175893428Y-53046380D01*
X176655333Y-53522571D02*
X176322000Y-53522571D01*
X176322000Y-54046380D02*
X176322000Y-53046380D01*
X176798190Y-53046380D01*
X177322000Y-53046380D02*
X177322000Y-53284476D01*
X177083904Y-53189238D02*
X177322000Y-53284476D01*
X177560095Y-53189238D01*
X177179142Y-53474952D02*
X177322000Y-53284476D01*
X177464857Y-53474952D01*
X178083904Y-53046380D02*
X178083904Y-53284476D01*
X177845809Y-53189238D02*
X178083904Y-53284476D01*
X178322000Y-53189238D01*
X177941047Y-53474952D02*
X178083904Y-53284476D01*
X178226761Y-53474952D01*
X109202666Y-54046380D02*
X108869333Y-53570190D01*
X108631238Y-54046380D02*
X108631238Y-53046380D01*
X109012190Y-53046380D01*
X109107428Y-53094000D01*
X109155047Y-53141619D01*
X109202666Y-53236857D01*
X109202666Y-53379714D01*
X109155047Y-53474952D01*
X109107428Y-53522571D01*
X109012190Y-53570190D01*
X108631238Y-53570190D01*
X109631238Y-53522571D02*
X109964571Y-53522571D01*
X110107428Y-54046380D02*
X109631238Y-54046380D01*
X109631238Y-53046380D01*
X110107428Y-53046380D01*
X110869333Y-53522571D02*
X110536000Y-53522571D01*
X110536000Y-54046380D02*
X110536000Y-53046380D01*
X111012190Y-53046380D01*
X111536000Y-53046380D02*
X111536000Y-53284476D01*
X111297904Y-53189238D02*
X111536000Y-53284476D01*
X111774095Y-53189238D01*
X111393142Y-53474952D02*
X111536000Y-53284476D01*
X111678857Y-53474952D01*
X112297904Y-53046380D02*
X112297904Y-53284476D01*
X112059809Y-53189238D02*
X112297904Y-53284476D01*
X112536000Y-53189238D01*
X112155047Y-53474952D02*
X112297904Y-53284476D01*
X112440761Y-53474952D01*
G04 #@! TO.C,Q2*
X112778047Y-53420380D02*
X112206619Y-53420380D01*
X112492333Y-53420380D02*
X112492333Y-52420380D01*
X112397095Y-52563238D01*
X112301857Y-52658476D01*
X112206619Y-52706095D01*
X113159000Y-53134666D02*
X113635190Y-53134666D01*
X113063761Y-53420380D02*
X113397095Y-52420380D01*
X113730428Y-53420380D01*
X114063761Y-53039428D02*
X114825666Y-53039428D01*
X115301857Y-53420380D02*
X115301857Y-52420380D01*
X115873285Y-53420380D01*
X115873285Y-52420380D01*
X116349476Y-53420380D02*
X116349476Y-52420380D01*
X116730428Y-52420380D01*
X116825666Y-52468000D01*
X116873285Y-52515619D01*
X116920904Y-52610857D01*
X116920904Y-52753714D01*
X116873285Y-52848952D01*
X116825666Y-52896571D01*
X116730428Y-52944190D01*
X116349476Y-52944190D01*
X117349476Y-53420380D02*
X117349476Y-52420380D01*
X117920904Y-53420380D01*
X117920904Y-52420380D01*
X118397095Y-53039428D02*
X119159000Y-53039428D01*
X119635190Y-52896571D02*
X119968523Y-52896571D01*
X120111380Y-53420380D02*
X119635190Y-53420380D01*
X119635190Y-52420380D01*
X120111380Y-52420380D01*
X120873285Y-52896571D02*
X121016142Y-52944190D01*
X121063761Y-52991809D01*
X121111380Y-53087047D01*
X121111380Y-53229904D01*
X121063761Y-53325142D01*
X121016142Y-53372761D01*
X120920904Y-53420380D01*
X120539952Y-53420380D01*
X120539952Y-52420380D01*
X120873285Y-52420380D01*
X120968523Y-52468000D01*
X121016142Y-52515619D01*
X121063761Y-52610857D01*
X121063761Y-52706095D01*
X121016142Y-52801333D01*
X120968523Y-52848952D01*
X120873285Y-52896571D01*
X120539952Y-52896571D01*
X122111380Y-53325142D02*
X122063761Y-53372761D01*
X121920904Y-53420380D01*
X121825666Y-53420380D01*
X121682809Y-53372761D01*
X121587571Y-53277523D01*
X121539952Y-53182285D01*
X121492333Y-52991809D01*
X121492333Y-52848952D01*
X121539952Y-52658476D01*
X121587571Y-52563238D01*
X121682809Y-52468000D01*
X121825666Y-52420380D01*
X121920904Y-52420380D01*
X122063761Y-52468000D01*
X122111380Y-52515619D01*
X117444761Y-51987619D02*
X117349523Y-51940000D01*
X117254285Y-51844761D01*
X117111428Y-51701904D01*
X117016190Y-51654285D01*
X116920952Y-51654285D01*
X116968571Y-51892380D02*
X116873333Y-51844761D01*
X116778095Y-51749523D01*
X116730476Y-51559047D01*
X116730476Y-51225714D01*
X116778095Y-51035238D01*
X116873333Y-50940000D01*
X116968571Y-50892380D01*
X117159047Y-50892380D01*
X117254285Y-50940000D01*
X117349523Y-51035238D01*
X117397142Y-51225714D01*
X117397142Y-51559047D01*
X117349523Y-51749523D01*
X117254285Y-51844761D01*
X117159047Y-51892380D01*
X116968571Y-51892380D01*
X117778095Y-50987619D02*
X117825714Y-50940000D01*
X117920952Y-50892380D01*
X118159047Y-50892380D01*
X118254285Y-50940000D01*
X118301904Y-50987619D01*
X118349523Y-51082857D01*
X118349523Y-51178095D01*
X118301904Y-51320952D01*
X117730476Y-51892380D01*
X118349523Y-51892380D01*
G04 #@! TO.C,U5*
X143580380Y-71221047D02*
X143056571Y-71221047D01*
X142961333Y-71268666D01*
X142913714Y-71363904D01*
X142913714Y-71554380D01*
X142961333Y-71649619D01*
X143532761Y-71221047D02*
X143580380Y-71316285D01*
X143580380Y-71554380D01*
X143532761Y-71649619D01*
X143437523Y-71697238D01*
X143342285Y-71697238D01*
X143247047Y-71649619D01*
X143199428Y-71554380D01*
X143199428Y-71316285D01*
X143151809Y-71221047D01*
X143580380Y-70744857D02*
X142913714Y-70744857D01*
X143104190Y-70744857D02*
X143008952Y-70697238D01*
X142961333Y-70649619D01*
X142913714Y-70554380D01*
X142913714Y-70459142D01*
X143580380Y-69697238D02*
X142580380Y-69697238D01*
X143532761Y-69697238D02*
X143580380Y-69792476D01*
X143580380Y-69982952D01*
X143532761Y-70078190D01*
X143485142Y-70125809D01*
X143389904Y-70173428D01*
X143104190Y-70173428D01*
X143008952Y-70125809D01*
X142961333Y-70078190D01*
X142913714Y-69982952D01*
X142913714Y-69792476D01*
X142961333Y-69697238D01*
X142913714Y-68792476D02*
X143580380Y-68792476D01*
X142913714Y-69221047D02*
X143437523Y-69221047D01*
X143532761Y-69173428D01*
X143580380Y-69078190D01*
X143580380Y-68935333D01*
X143532761Y-68840095D01*
X143485142Y-68792476D01*
X143580380Y-68316285D02*
X142913714Y-68316285D01*
X142580380Y-68316285D02*
X142628000Y-68363904D01*
X142675619Y-68316285D01*
X142628000Y-68268666D01*
X142580380Y-68316285D01*
X142675619Y-68316285D01*
X142913714Y-67840095D02*
X143580380Y-67840095D01*
X143008952Y-67840095D02*
X142961333Y-67792476D01*
X142913714Y-67697238D01*
X142913714Y-67554380D01*
X142961333Y-67459142D01*
X143056571Y-67411523D01*
X143580380Y-67411523D01*
X143580380Y-66792476D02*
X143532761Y-66887714D01*
X143485142Y-66935333D01*
X143389904Y-66982952D01*
X143104190Y-66982952D01*
X143008952Y-66935333D01*
X142961333Y-66887714D01*
X142913714Y-66792476D01*
X142913714Y-66649619D01*
X142961333Y-66554380D01*
X143008952Y-66506761D01*
X143104190Y-66459142D01*
X143389904Y-66459142D01*
X143485142Y-66506761D01*
X143532761Y-66554380D01*
X143580380Y-66649619D01*
X143580380Y-66792476D01*
X143675619Y-66268666D02*
X143675619Y-65506761D01*
X143580380Y-65268666D02*
X142913714Y-65268666D01*
X143008952Y-65268666D02*
X142961333Y-65221047D01*
X142913714Y-65125809D01*
X142913714Y-64982952D01*
X142961333Y-64887714D01*
X143056571Y-64840095D01*
X143580380Y-64840095D01*
X143056571Y-64840095D02*
X142961333Y-64792476D01*
X142913714Y-64697238D01*
X142913714Y-64554380D01*
X142961333Y-64459142D01*
X143056571Y-64411523D01*
X143580380Y-64411523D01*
X143580380Y-63935333D02*
X142913714Y-63935333D01*
X142580380Y-63935333D02*
X142628000Y-63982952D01*
X142675619Y-63935333D01*
X142628000Y-63887714D01*
X142580380Y-63935333D01*
X142675619Y-63935333D01*
X142913714Y-63459142D02*
X143580380Y-63459142D01*
X143008952Y-63459142D02*
X142961333Y-63411523D01*
X142913714Y-63316285D01*
X142913714Y-63173428D01*
X142961333Y-63078190D01*
X143056571Y-63030571D01*
X143580380Y-63030571D01*
X143580380Y-62554380D02*
X142913714Y-62554380D01*
X142580380Y-62554380D02*
X142628000Y-62602000D01*
X142675619Y-62554380D01*
X142628000Y-62506761D01*
X142580380Y-62554380D01*
X142675619Y-62554380D01*
G04 #@! TO.C,R1*
X124083333Y-128902380D02*
X123750000Y-128426190D01*
X123511904Y-128902380D02*
X123511904Y-127902380D01*
X123892857Y-127902380D01*
X123988095Y-127950000D01*
X124035714Y-127997619D01*
X124083333Y-128092857D01*
X124083333Y-128235714D01*
X124035714Y-128330952D01*
X123988095Y-128378571D01*
X123892857Y-128426190D01*
X123511904Y-128426190D01*
X125035714Y-128902380D02*
X124464285Y-128902380D01*
X124750000Y-128902380D02*
X124750000Y-127902380D01*
X124654761Y-128045238D01*
X124559523Y-128140476D01*
X124464285Y-128188095D01*
G04 #@! TO.C,Q3*
X127829380Y-76675761D02*
X127829380Y-77247190D01*
X127829380Y-76961476D02*
X126829380Y-76961476D01*
X126972238Y-77056714D01*
X127067476Y-77151952D01*
X127115095Y-77247190D01*
X127543666Y-76294809D02*
X127543666Y-75818619D01*
X127829380Y-76390047D02*
X126829380Y-76056714D01*
X127829380Y-75723380D01*
X127924619Y-75628142D02*
X127924619Y-74866238D01*
X127829380Y-74628142D02*
X126829380Y-74628142D01*
X127829380Y-74056714D01*
X126829380Y-74056714D01*
X127829380Y-73580523D02*
X126829380Y-73580523D01*
X126829380Y-73199571D01*
X126877000Y-73104333D01*
X126924619Y-73056714D01*
X127019857Y-73009095D01*
X127162714Y-73009095D01*
X127257952Y-73056714D01*
X127305571Y-73104333D01*
X127353190Y-73199571D01*
X127353190Y-73580523D01*
X127829380Y-72580523D02*
X126829380Y-72580523D01*
X127829380Y-72009095D01*
X126829380Y-72009095D01*
X127924619Y-71771000D02*
X127924619Y-71009095D01*
X127305571Y-70771000D02*
X127305571Y-70437666D01*
X127829380Y-70294809D02*
X127829380Y-70771000D01*
X126829380Y-70771000D01*
X126829380Y-70294809D01*
X127305571Y-69532904D02*
X127353190Y-69390047D01*
X127400809Y-69342428D01*
X127496047Y-69294809D01*
X127638904Y-69294809D01*
X127734142Y-69342428D01*
X127781761Y-69390047D01*
X127829380Y-69485285D01*
X127829380Y-69866238D01*
X126829380Y-69866238D01*
X126829380Y-69532904D01*
X126877000Y-69437666D01*
X126924619Y-69390047D01*
X127019857Y-69342428D01*
X127115095Y-69342428D01*
X127210333Y-69390047D01*
X127257952Y-69437666D01*
X127305571Y-69532904D01*
X127305571Y-69866238D01*
X127734142Y-68294809D02*
X127781761Y-68342428D01*
X127829380Y-68485285D01*
X127829380Y-68580523D01*
X127781761Y-68723380D01*
X127686523Y-68818619D01*
X127591285Y-68866238D01*
X127400809Y-68913857D01*
X127257952Y-68913857D01*
X127067476Y-68866238D01*
X126972238Y-68818619D01*
X126877000Y-68723380D01*
X126829380Y-68580523D01*
X126829380Y-68485285D01*
X126877000Y-68342428D01*
X126924619Y-68294809D01*
X122947619Y-77495238D02*
X122900000Y-77590476D01*
X122804761Y-77685714D01*
X122661904Y-77828571D01*
X122614285Y-77923809D01*
X122614285Y-78019047D01*
X122852380Y-77971428D02*
X122804761Y-78066666D01*
X122709523Y-78161904D01*
X122519047Y-78209523D01*
X122185714Y-78209523D01*
X121995238Y-78161904D01*
X121900000Y-78066666D01*
X121852380Y-77971428D01*
X121852380Y-77780952D01*
X121900000Y-77685714D01*
X121995238Y-77590476D01*
X122185714Y-77542857D01*
X122519047Y-77542857D01*
X122709523Y-77590476D01*
X122804761Y-77685714D01*
X122852380Y-77780952D01*
X122852380Y-77971428D01*
X121852380Y-77209523D02*
X121852380Y-76590476D01*
X122233333Y-76923809D01*
X122233333Y-76780952D01*
X122280952Y-76685714D01*
X122328571Y-76638095D01*
X122423809Y-76590476D01*
X122661904Y-76590476D01*
X122757142Y-76638095D01*
X122804761Y-76685714D01*
X122852380Y-76780952D01*
X122852380Y-77066666D01*
X122804761Y-77161904D01*
X122757142Y-77209523D01*
G04 #@! TO.C,Q1*
X128718380Y-119982761D02*
X128718380Y-120554190D01*
X128718380Y-120268476D02*
X127718380Y-120268476D01*
X127861238Y-120363714D01*
X127956476Y-120458952D01*
X128004095Y-120554190D01*
X128432666Y-119601809D02*
X128432666Y-119125619D01*
X128718380Y-119697047D02*
X127718380Y-119363714D01*
X128718380Y-119030380D01*
X128813619Y-118935142D02*
X128813619Y-118173238D01*
X128718380Y-117935142D02*
X127718380Y-117935142D01*
X128718380Y-117363714D01*
X127718380Y-117363714D01*
X128718380Y-116887523D02*
X127718380Y-116887523D01*
X127718380Y-116506571D01*
X127766000Y-116411333D01*
X127813619Y-116363714D01*
X127908857Y-116316095D01*
X128051714Y-116316095D01*
X128146952Y-116363714D01*
X128194571Y-116411333D01*
X128242190Y-116506571D01*
X128242190Y-116887523D01*
X128718380Y-115887523D02*
X127718380Y-115887523D01*
X128718380Y-115316095D01*
X127718380Y-115316095D01*
X128813619Y-115078000D02*
X128813619Y-114316095D01*
X128194571Y-114078000D02*
X128194571Y-113744666D01*
X128718380Y-113601809D02*
X128718380Y-114078000D01*
X127718380Y-114078000D01*
X127718380Y-113601809D01*
X128194571Y-112839904D02*
X128242190Y-112697047D01*
X128289809Y-112649428D01*
X128385047Y-112601809D01*
X128527904Y-112601809D01*
X128623142Y-112649428D01*
X128670761Y-112697047D01*
X128718380Y-112792285D01*
X128718380Y-113173238D01*
X127718380Y-113173238D01*
X127718380Y-112839904D01*
X127766000Y-112744666D01*
X127813619Y-112697047D01*
X127908857Y-112649428D01*
X128004095Y-112649428D01*
X128099333Y-112697047D01*
X128146952Y-112744666D01*
X128194571Y-112839904D01*
X128194571Y-113173238D01*
X128623142Y-111601809D02*
X128670761Y-111649428D01*
X128718380Y-111792285D01*
X128718380Y-111887523D01*
X128670761Y-112030380D01*
X128575523Y-112125619D01*
X128480285Y-112173238D01*
X128289809Y-112220857D01*
X128146952Y-112220857D01*
X127956476Y-112173238D01*
X127861238Y-112125619D01*
X127766000Y-112030380D01*
X127718380Y-111887523D01*
X127718380Y-111792285D01*
X127766000Y-111649428D01*
X127813619Y-111601809D01*
X122463619Y-116173238D02*
X122416000Y-116268476D01*
X122320761Y-116363714D01*
X122177904Y-116506571D01*
X122130285Y-116601809D01*
X122130285Y-116697047D01*
X122368380Y-116649428D02*
X122320761Y-116744666D01*
X122225523Y-116839904D01*
X122035047Y-116887523D01*
X121701714Y-116887523D01*
X121511238Y-116839904D01*
X121416000Y-116744666D01*
X121368380Y-116649428D01*
X121368380Y-116458952D01*
X121416000Y-116363714D01*
X121511238Y-116268476D01*
X121701714Y-116220857D01*
X122035047Y-116220857D01*
X122225523Y-116268476D01*
X122320761Y-116363714D01*
X122368380Y-116458952D01*
X122368380Y-116649428D01*
X122368380Y-115268476D02*
X122368380Y-115839904D01*
X122368380Y-115554190D02*
X121368380Y-115554190D01*
X121511238Y-115649428D01*
X121606476Y-115744666D01*
X121654095Y-115839904D01*
G04 #@! TO.C,Q4*
X121352380Y-93058761D02*
X121352380Y-93630190D01*
X121352380Y-93344476D02*
X120352380Y-93344476D01*
X120495238Y-93439714D01*
X120590476Y-93534952D01*
X120638095Y-93630190D01*
X121066666Y-92677809D02*
X121066666Y-92201619D01*
X121352380Y-92773047D02*
X120352380Y-92439714D01*
X121352380Y-92106380D01*
X121447619Y-92011142D02*
X121447619Y-91249238D01*
X121352380Y-91011142D02*
X120352380Y-91011142D01*
X121352380Y-90439714D01*
X120352380Y-90439714D01*
X121352380Y-89963523D02*
X120352380Y-89963523D01*
X120352380Y-89582571D01*
X120400000Y-89487333D01*
X120447619Y-89439714D01*
X120542857Y-89392095D01*
X120685714Y-89392095D01*
X120780952Y-89439714D01*
X120828571Y-89487333D01*
X120876190Y-89582571D01*
X120876190Y-89963523D01*
X121352380Y-88963523D02*
X120352380Y-88963523D01*
X121352380Y-88392095D01*
X120352380Y-88392095D01*
X121447619Y-88154000D02*
X121447619Y-87392095D01*
X120828571Y-87154000D02*
X120828571Y-86820666D01*
X121352380Y-86677809D02*
X121352380Y-87154000D01*
X120352380Y-87154000D01*
X120352380Y-86677809D01*
X120828571Y-85915904D02*
X120876190Y-85773047D01*
X120923809Y-85725428D01*
X121019047Y-85677809D01*
X121161904Y-85677809D01*
X121257142Y-85725428D01*
X121304761Y-85773047D01*
X121352380Y-85868285D01*
X121352380Y-86249238D01*
X120352380Y-86249238D01*
X120352380Y-85915904D01*
X120400000Y-85820666D01*
X120447619Y-85773047D01*
X120542857Y-85725428D01*
X120638095Y-85725428D01*
X120733333Y-85773047D01*
X120780952Y-85820666D01*
X120828571Y-85915904D01*
X120828571Y-86249238D01*
X121257142Y-84677809D02*
X121304761Y-84725428D01*
X121352380Y-84868285D01*
X121352380Y-84963523D01*
X121304761Y-85106380D01*
X121209523Y-85201619D01*
X121114285Y-85249238D01*
X120923809Y-85296857D01*
X120780952Y-85296857D01*
X120590476Y-85249238D01*
X120495238Y-85201619D01*
X120400000Y-85106380D01*
X120352380Y-84963523D01*
X120352380Y-84868285D01*
X120400000Y-84725428D01*
X120447619Y-84677809D01*
X115097619Y-89249238D02*
X115050000Y-89344476D01*
X114954761Y-89439714D01*
X114811904Y-89582571D01*
X114764285Y-89677809D01*
X114764285Y-89773047D01*
X115002380Y-89725428D02*
X114954761Y-89820666D01*
X114859523Y-89915904D01*
X114669047Y-89963523D01*
X114335714Y-89963523D01*
X114145238Y-89915904D01*
X114050000Y-89820666D01*
X114002380Y-89725428D01*
X114002380Y-89534952D01*
X114050000Y-89439714D01*
X114145238Y-89344476D01*
X114335714Y-89296857D01*
X114669047Y-89296857D01*
X114859523Y-89344476D01*
X114954761Y-89439714D01*
X115002380Y-89534952D01*
X115002380Y-89725428D01*
X114335714Y-88439714D02*
X115002380Y-88439714D01*
X113954761Y-88677809D02*
X114669047Y-88915904D01*
X114669047Y-88296857D01*
G04 #@! TO.C,P9*
X129309904Y-94730380D02*
X129309904Y-93730380D01*
X129690857Y-93730380D01*
X129786095Y-93778000D01*
X129833714Y-93825619D01*
X129881333Y-93920857D01*
X129881333Y-94063714D01*
X129833714Y-94158952D01*
X129786095Y-94206571D01*
X129690857Y-94254190D01*
X129309904Y-94254190D01*
X130357523Y-94730380D02*
X130548000Y-94730380D01*
X130643238Y-94682761D01*
X130690857Y-94635142D01*
X130786095Y-94492285D01*
X130833714Y-94301809D01*
X130833714Y-93920857D01*
X130786095Y-93825619D01*
X130738476Y-93778000D01*
X130643238Y-93730380D01*
X130452761Y-93730380D01*
X130357523Y-93778000D01*
X130309904Y-93825619D01*
X130262285Y-93920857D01*
X130262285Y-94158952D01*
X130309904Y-94254190D01*
X130357523Y-94301809D01*
X130452761Y-94349428D01*
X130643238Y-94349428D01*
X130738476Y-94301809D01*
X130786095Y-94254190D01*
X130833714Y-94158952D01*
G04 #@! TO.C,P3*
X106918380Y-121622095D02*
X105918380Y-121622095D01*
X105918380Y-121241142D01*
X105966000Y-121145904D01*
X106013619Y-121098285D01*
X106108857Y-121050666D01*
X106251714Y-121050666D01*
X106346952Y-121098285D01*
X106394571Y-121145904D01*
X106442190Y-121241142D01*
X106442190Y-121622095D01*
X105918380Y-120717333D02*
X105918380Y-120098285D01*
X106299333Y-120431619D01*
X106299333Y-120288761D01*
X106346952Y-120193523D01*
X106394571Y-120145904D01*
X106489809Y-120098285D01*
X106727904Y-120098285D01*
X106823142Y-120145904D01*
X106870761Y-120193523D01*
X106918380Y-120288761D01*
X106918380Y-120574476D01*
X106870761Y-120669714D01*
X106823142Y-120717333D01*
G04 #@! TO.C,C7*
X132889333Y-120499142D02*
X132841714Y-120546761D01*
X132698857Y-120594380D01*
X132603619Y-120594380D01*
X132460761Y-120546761D01*
X132365523Y-120451523D01*
X132317904Y-120356285D01*
X132270285Y-120165809D01*
X132270285Y-120022952D01*
X132317904Y-119832476D01*
X132365523Y-119737238D01*
X132460761Y-119642000D01*
X132603619Y-119594380D01*
X132698857Y-119594380D01*
X132841714Y-119642000D01*
X132889333Y-119689619D01*
X133222666Y-119594380D02*
X133889333Y-119594380D01*
X133460761Y-120594380D01*
G04 #@! TO.C,C10*
X141851142Y-120499142D02*
X141803523Y-120546761D01*
X141660666Y-120594380D01*
X141565428Y-120594380D01*
X141422571Y-120546761D01*
X141327333Y-120451523D01*
X141279714Y-120356285D01*
X141232095Y-120165809D01*
X141232095Y-120022952D01*
X141279714Y-119832476D01*
X141327333Y-119737238D01*
X141422571Y-119642000D01*
X141565428Y-119594380D01*
X141660666Y-119594380D01*
X141803523Y-119642000D01*
X141851142Y-119689619D01*
X142803523Y-120594380D02*
X142232095Y-120594380D01*
X142517809Y-120594380D02*
X142517809Y-119594380D01*
X142422571Y-119737238D01*
X142327333Y-119832476D01*
X142232095Y-119880095D01*
X143422571Y-119594380D02*
X143517809Y-119594380D01*
X143613047Y-119642000D01*
X143660666Y-119689619D01*
X143708285Y-119784857D01*
X143755904Y-119975333D01*
X143755904Y-120213428D01*
X143708285Y-120403904D01*
X143660666Y-120499142D01*
X143613047Y-120546761D01*
X143517809Y-120594380D01*
X143422571Y-120594380D01*
X143327333Y-120546761D01*
X143279714Y-120499142D01*
X143232095Y-120403904D01*
X143184476Y-120213428D01*
X143184476Y-119975333D01*
X143232095Y-119784857D01*
X143279714Y-119689619D01*
X143327333Y-119642000D01*
X143422571Y-119594380D01*
G04 #@! TO.C,P1*
X115554380Y-121622095D02*
X114554380Y-121622095D01*
X114554380Y-121241142D01*
X114602000Y-121145904D01*
X114649619Y-121098285D01*
X114744857Y-121050666D01*
X114887714Y-121050666D01*
X114982952Y-121098285D01*
X115030571Y-121145904D01*
X115078190Y-121241142D01*
X115078190Y-121622095D01*
X115554380Y-120098285D02*
X115554380Y-120669714D01*
X115554380Y-120384000D02*
X114554380Y-120384000D01*
X114697238Y-120479238D01*
X114792476Y-120574476D01*
X114840095Y-120669714D01*
G04 #@! TO.C,P4*
X106918380Y-110680095D02*
X105918380Y-110680095D01*
X105918380Y-110299142D01*
X105966000Y-110203904D01*
X106013619Y-110156285D01*
X106108857Y-110108666D01*
X106251714Y-110108666D01*
X106346952Y-110156285D01*
X106394571Y-110203904D01*
X106442190Y-110299142D01*
X106442190Y-110680095D01*
X106251714Y-109251523D02*
X106918380Y-109251523D01*
X105870761Y-109489619D02*
X106585047Y-109727714D01*
X106585047Y-109108666D01*
G04 #@! TO.C,C8*
X127865142Y-100710666D02*
X127912761Y-100758285D01*
X127960380Y-100901142D01*
X127960380Y-100996380D01*
X127912761Y-101139238D01*
X127817523Y-101234476D01*
X127722285Y-101282095D01*
X127531809Y-101329714D01*
X127388952Y-101329714D01*
X127198476Y-101282095D01*
X127103238Y-101234476D01*
X127008000Y-101139238D01*
X126960380Y-100996380D01*
X126960380Y-100901142D01*
X127008000Y-100758285D01*
X127055619Y-100710666D01*
X127388952Y-100139238D02*
X127341333Y-100234476D01*
X127293714Y-100282095D01*
X127198476Y-100329714D01*
X127150857Y-100329714D01*
X127055619Y-100282095D01*
X127008000Y-100234476D01*
X126960380Y-100139238D01*
X126960380Y-99948761D01*
X127008000Y-99853523D01*
X127055619Y-99805904D01*
X127150857Y-99758285D01*
X127198476Y-99758285D01*
X127293714Y-99805904D01*
X127341333Y-99853523D01*
X127388952Y-99948761D01*
X127388952Y-100139238D01*
X127436571Y-100234476D01*
X127484190Y-100282095D01*
X127579428Y-100329714D01*
X127769904Y-100329714D01*
X127865142Y-100282095D01*
X127912761Y-100234476D01*
X127960380Y-100139238D01*
X127960380Y-99948761D01*
X127912761Y-99853523D01*
X127865142Y-99805904D01*
X127769904Y-99758285D01*
X127579428Y-99758285D01*
X127484190Y-99805904D01*
X127436571Y-99853523D01*
X127388952Y-99948761D01*
G04 #@! TO.C,P10*
X115554380Y-110120285D02*
X114554380Y-110120285D01*
X114554380Y-109739333D01*
X114602000Y-109644095D01*
X114649619Y-109596476D01*
X114744857Y-109548857D01*
X114887714Y-109548857D01*
X114982952Y-109596476D01*
X115030571Y-109644095D01*
X115078190Y-109739333D01*
X115078190Y-110120285D01*
X115554380Y-108596476D02*
X115554380Y-109167904D01*
X115554380Y-108882190D02*
X114554380Y-108882190D01*
X114697238Y-108977428D01*
X114792476Y-109072666D01*
X114840095Y-109167904D01*
X114554380Y-107977428D02*
X114554380Y-107882190D01*
X114602000Y-107786952D01*
X114649619Y-107739333D01*
X114744857Y-107691714D01*
X114935333Y-107644095D01*
X115173428Y-107644095D01*
X115363904Y-107691714D01*
X115459142Y-107739333D01*
X115506761Y-107786952D01*
X115554380Y-107882190D01*
X115554380Y-107977428D01*
X115506761Y-108072666D01*
X115459142Y-108120285D01*
X115363904Y-108167904D01*
X115173428Y-108215523D01*
X114935333Y-108215523D01*
X114744857Y-108167904D01*
X114649619Y-108120285D01*
X114602000Y-108072666D01*
X114554380Y-107977428D01*
G04 #@! TO.C,P8*
X107045380Y-72453095D02*
X106045380Y-72453095D01*
X106045380Y-72072142D01*
X106093000Y-71976904D01*
X106140619Y-71929285D01*
X106235857Y-71881666D01*
X106378714Y-71881666D01*
X106473952Y-71929285D01*
X106521571Y-71976904D01*
X106569190Y-72072142D01*
X106569190Y-72453095D01*
X106473952Y-71310238D02*
X106426333Y-71405476D01*
X106378714Y-71453095D01*
X106283476Y-71500714D01*
X106235857Y-71500714D01*
X106140619Y-71453095D01*
X106093000Y-71405476D01*
X106045380Y-71310238D01*
X106045380Y-71119761D01*
X106093000Y-71024523D01*
X106140619Y-70976904D01*
X106235857Y-70929285D01*
X106283476Y-70929285D01*
X106378714Y-70976904D01*
X106426333Y-71024523D01*
X106473952Y-71119761D01*
X106473952Y-71310238D01*
X106521571Y-71405476D01*
X106569190Y-71453095D01*
X106664428Y-71500714D01*
X106854904Y-71500714D01*
X106950142Y-71453095D01*
X106997761Y-71405476D01*
X107045380Y-71310238D01*
X107045380Y-71119761D01*
X106997761Y-71024523D01*
X106950142Y-70976904D01*
X106854904Y-70929285D01*
X106664428Y-70929285D01*
X106569190Y-70976904D01*
X106521571Y-71024523D01*
X106473952Y-71119761D01*
G04 #@! TO.C,P7*
X107172380Y-90106095D02*
X106172380Y-90106095D01*
X106172380Y-89725142D01*
X106220000Y-89629904D01*
X106267619Y-89582285D01*
X106362857Y-89534666D01*
X106505714Y-89534666D01*
X106600952Y-89582285D01*
X106648571Y-89629904D01*
X106696190Y-89725142D01*
X106696190Y-90106095D01*
X106172380Y-89201333D02*
X106172380Y-88534666D01*
X107172380Y-88963238D01*
G04 #@! TO.C,P6*
X115641380Y-73636095D02*
X114641380Y-73636095D01*
X114641380Y-73255142D01*
X114689000Y-73159904D01*
X114736619Y-73112285D01*
X114831857Y-73064666D01*
X114974714Y-73064666D01*
X115069952Y-73112285D01*
X115117571Y-73159904D01*
X115165190Y-73255142D01*
X115165190Y-73636095D01*
X114641380Y-72207523D02*
X114641380Y-72398000D01*
X114689000Y-72493238D01*
X114736619Y-72540857D01*
X114879476Y-72636095D01*
X115069952Y-72683714D01*
X115450904Y-72683714D01*
X115546142Y-72636095D01*
X115593761Y-72588476D01*
X115641380Y-72493238D01*
X115641380Y-72302761D01*
X115593761Y-72207523D01*
X115546142Y-72159904D01*
X115450904Y-72112285D01*
X115212809Y-72112285D01*
X115117571Y-72159904D01*
X115069952Y-72207523D01*
X115022333Y-72302761D01*
X115022333Y-72493238D01*
X115069952Y-72588476D01*
X115117571Y-72636095D01*
X115212809Y-72683714D01*
G04 #@! TO.C,P5*
X109858904Y-63912380D02*
X109858904Y-62912380D01*
X110239857Y-62912380D01*
X110335095Y-62960000D01*
X110382714Y-63007619D01*
X110430333Y-63102857D01*
X110430333Y-63245714D01*
X110382714Y-63340952D01*
X110335095Y-63388571D01*
X110239857Y-63436190D01*
X109858904Y-63436190D01*
X111335095Y-62912380D02*
X110858904Y-62912380D01*
X110811285Y-63388571D01*
X110858904Y-63340952D01*
X110954142Y-63293333D01*
X111192238Y-63293333D01*
X111287476Y-63340952D01*
X111335095Y-63388571D01*
X111382714Y-63483809D01*
X111382714Y-63721904D01*
X111335095Y-63817142D01*
X111287476Y-63864761D01*
X111192238Y-63912380D01*
X110954142Y-63912380D01*
X110858904Y-63864761D01*
X110811285Y-63817142D01*
G04 #@! TO.C,R4*
X122967904Y-66983619D02*
X123015523Y-66936000D01*
X123110761Y-66888380D01*
X123348857Y-66888380D01*
X123444095Y-66936000D01*
X123491714Y-66983619D01*
X123539333Y-67078857D01*
X123539333Y-67174095D01*
X123491714Y-67316952D01*
X122920285Y-67888380D01*
X123539333Y-67888380D01*
X123872666Y-66888380D02*
X124539333Y-66888380D01*
X124110761Y-67888380D01*
X125110761Y-66888380D02*
X125206000Y-66888380D01*
X125301238Y-66936000D01*
X125348857Y-66983619D01*
X125396476Y-67078857D01*
X125444095Y-67269333D01*
X125444095Y-67507428D01*
X125396476Y-67697904D01*
X125348857Y-67793142D01*
X125301238Y-67840761D01*
X125206000Y-67888380D01*
X125110761Y-67888380D01*
X125015523Y-67840761D01*
X124967904Y-67793142D01*
X124920285Y-67697904D01*
X124872666Y-67507428D01*
X124872666Y-67269333D01*
X124920285Y-67078857D01*
X124967904Y-66983619D01*
X125015523Y-66936000D01*
X125110761Y-66888380D01*
X124039333Y-64968380D02*
X123706000Y-64492190D01*
X123467904Y-64968380D02*
X123467904Y-63968380D01*
X123848857Y-63968380D01*
X123944095Y-64016000D01*
X123991714Y-64063619D01*
X124039333Y-64158857D01*
X124039333Y-64301714D01*
X123991714Y-64396952D01*
X123944095Y-64444571D01*
X123848857Y-64492190D01*
X123467904Y-64492190D01*
X124896476Y-64301714D02*
X124896476Y-64968380D01*
X124658380Y-63920761D02*
X124420285Y-64635047D01*
X125039333Y-64635047D01*
G04 #@! TO.C,R5*
X114331904Y-82223619D02*
X114379523Y-82176000D01*
X114474761Y-82128380D01*
X114712857Y-82128380D01*
X114808095Y-82176000D01*
X114855714Y-82223619D01*
X114903333Y-82318857D01*
X114903333Y-82414095D01*
X114855714Y-82556952D01*
X114284285Y-83128380D01*
X114903333Y-83128380D01*
X115236666Y-82128380D02*
X115903333Y-82128380D01*
X115474761Y-83128380D01*
X116474761Y-82128380D02*
X116570000Y-82128380D01*
X116665238Y-82176000D01*
X116712857Y-82223619D01*
X116760476Y-82318857D01*
X116808095Y-82509333D01*
X116808095Y-82747428D01*
X116760476Y-82937904D01*
X116712857Y-83033142D01*
X116665238Y-83080761D01*
X116570000Y-83128380D01*
X116474761Y-83128380D01*
X116379523Y-83080761D01*
X116331904Y-83033142D01*
X116284285Y-82937904D01*
X116236666Y-82747428D01*
X116236666Y-82509333D01*
X116284285Y-82318857D01*
X116331904Y-82223619D01*
X116379523Y-82176000D01*
X116474761Y-82128380D01*
X115403333Y-80208380D02*
X115070000Y-79732190D01*
X114831904Y-80208380D02*
X114831904Y-79208380D01*
X115212857Y-79208380D01*
X115308095Y-79256000D01*
X115355714Y-79303619D01*
X115403333Y-79398857D01*
X115403333Y-79541714D01*
X115355714Y-79636952D01*
X115308095Y-79684571D01*
X115212857Y-79732190D01*
X114831904Y-79732190D01*
X116308095Y-79208380D02*
X115831904Y-79208380D01*
X115784285Y-79684571D01*
X115831904Y-79636952D01*
X115927142Y-79589333D01*
X116165238Y-79589333D01*
X116260476Y-79636952D01*
X116308095Y-79684571D01*
X116355714Y-79779809D01*
X116355714Y-80017904D01*
X116308095Y-80113142D01*
X116260476Y-80160761D01*
X116165238Y-80208380D01*
X115927142Y-80208380D01*
X115831904Y-80160761D01*
X115784285Y-80113142D01*
G04 #@! TO.C,R7*
X137699904Y-101019619D02*
X137747523Y-100972000D01*
X137842761Y-100924380D01*
X138080857Y-100924380D01*
X138176095Y-100972000D01*
X138223714Y-101019619D01*
X138271333Y-101114857D01*
X138271333Y-101210095D01*
X138223714Y-101352952D01*
X137652285Y-101924380D01*
X138271333Y-101924380D01*
X138604666Y-100924380D02*
X139271333Y-100924380D01*
X138842761Y-101924380D01*
X139842761Y-100924380D02*
X139938000Y-100924380D01*
X140033238Y-100972000D01*
X140080857Y-101019619D01*
X140128476Y-101114857D01*
X140176095Y-101305333D01*
X140176095Y-101543428D01*
X140128476Y-101733904D01*
X140080857Y-101829142D01*
X140033238Y-101876761D01*
X139938000Y-101924380D01*
X139842761Y-101924380D01*
X139747523Y-101876761D01*
X139699904Y-101829142D01*
X139652285Y-101733904D01*
X139604666Y-101543428D01*
X139604666Y-101305333D01*
X139652285Y-101114857D01*
X139699904Y-101019619D01*
X139747523Y-100972000D01*
X139842761Y-100924380D01*
X138771333Y-99004380D02*
X138438000Y-98528190D01*
X138199904Y-99004380D02*
X138199904Y-98004380D01*
X138580857Y-98004380D01*
X138676095Y-98052000D01*
X138723714Y-98099619D01*
X138771333Y-98194857D01*
X138771333Y-98337714D01*
X138723714Y-98432952D01*
X138676095Y-98480571D01*
X138580857Y-98528190D01*
X138199904Y-98528190D01*
X139104666Y-98004380D02*
X139771333Y-98004380D01*
X139342761Y-99004380D01*
G04 #@! TO.C,R8*
X137699904Y-105591619D02*
X137747523Y-105544000D01*
X137842761Y-105496380D01*
X138080857Y-105496380D01*
X138176095Y-105544000D01*
X138223714Y-105591619D01*
X138271333Y-105686857D01*
X138271333Y-105782095D01*
X138223714Y-105924952D01*
X137652285Y-106496380D01*
X138271333Y-106496380D01*
X138604666Y-105496380D02*
X139271333Y-105496380D01*
X138842761Y-106496380D01*
X139842761Y-105496380D02*
X139938000Y-105496380D01*
X140033238Y-105544000D01*
X140080857Y-105591619D01*
X140128476Y-105686857D01*
X140176095Y-105877333D01*
X140176095Y-106115428D01*
X140128476Y-106305904D01*
X140080857Y-106401142D01*
X140033238Y-106448761D01*
X139938000Y-106496380D01*
X139842761Y-106496380D01*
X139747523Y-106448761D01*
X139699904Y-106401142D01*
X139652285Y-106305904D01*
X139604666Y-106115428D01*
X139604666Y-105877333D01*
X139652285Y-105686857D01*
X139699904Y-105591619D01*
X139747523Y-105544000D01*
X139842761Y-105496380D01*
X138771333Y-103576380D02*
X138438000Y-103100190D01*
X138199904Y-103576380D02*
X138199904Y-102576380D01*
X138580857Y-102576380D01*
X138676095Y-102624000D01*
X138723714Y-102671619D01*
X138771333Y-102766857D01*
X138771333Y-102909714D01*
X138723714Y-103004952D01*
X138676095Y-103052571D01*
X138580857Y-103100190D01*
X138199904Y-103100190D01*
X139342761Y-103004952D02*
X139247523Y-102957333D01*
X139199904Y-102909714D01*
X139152285Y-102814476D01*
X139152285Y-102766857D01*
X139199904Y-102671619D01*
X139247523Y-102624000D01*
X139342761Y-102576380D01*
X139533238Y-102576380D01*
X139628476Y-102624000D01*
X139676095Y-102671619D01*
X139723714Y-102766857D01*
X139723714Y-102814476D01*
X139676095Y-102909714D01*
X139628476Y-102957333D01*
X139533238Y-103004952D01*
X139342761Y-103004952D01*
X139247523Y-103052571D01*
X139199904Y-103100190D01*
X139152285Y-103195428D01*
X139152285Y-103385904D01*
X139199904Y-103481142D01*
X139247523Y-103528761D01*
X139342761Y-103576380D01*
X139533238Y-103576380D01*
X139628476Y-103528761D01*
X139676095Y-103481142D01*
X139723714Y-103385904D01*
X139723714Y-103195428D01*
X139676095Y-103100190D01*
X139628476Y-103052571D01*
X139533238Y-103004952D01*
G04 #@! TO.C,R9*
X137699904Y-111179619D02*
X137747523Y-111132000D01*
X137842761Y-111084380D01*
X138080857Y-111084380D01*
X138176095Y-111132000D01*
X138223714Y-111179619D01*
X138271333Y-111274857D01*
X138271333Y-111370095D01*
X138223714Y-111512952D01*
X137652285Y-112084380D01*
X138271333Y-112084380D01*
X138604666Y-111084380D02*
X139271333Y-111084380D01*
X138842761Y-112084380D01*
X139842761Y-111084380D02*
X139938000Y-111084380D01*
X140033238Y-111132000D01*
X140080857Y-111179619D01*
X140128476Y-111274857D01*
X140176095Y-111465333D01*
X140176095Y-111703428D01*
X140128476Y-111893904D01*
X140080857Y-111989142D01*
X140033238Y-112036761D01*
X139938000Y-112084380D01*
X139842761Y-112084380D01*
X139747523Y-112036761D01*
X139699904Y-111989142D01*
X139652285Y-111893904D01*
X139604666Y-111703428D01*
X139604666Y-111465333D01*
X139652285Y-111274857D01*
X139699904Y-111179619D01*
X139747523Y-111132000D01*
X139842761Y-111084380D01*
X138771333Y-109164380D02*
X138438000Y-108688190D01*
X138199904Y-109164380D02*
X138199904Y-108164380D01*
X138580857Y-108164380D01*
X138676095Y-108212000D01*
X138723714Y-108259619D01*
X138771333Y-108354857D01*
X138771333Y-108497714D01*
X138723714Y-108592952D01*
X138676095Y-108640571D01*
X138580857Y-108688190D01*
X138199904Y-108688190D01*
X139247523Y-109164380D02*
X139438000Y-109164380D01*
X139533238Y-109116761D01*
X139580857Y-109069142D01*
X139676095Y-108926285D01*
X139723714Y-108735809D01*
X139723714Y-108354857D01*
X139676095Y-108259619D01*
X139628476Y-108212000D01*
X139533238Y-108164380D01*
X139342761Y-108164380D01*
X139247523Y-108212000D01*
X139199904Y-108259619D01*
X139152285Y-108354857D01*
X139152285Y-108592952D01*
X139199904Y-108688190D01*
X139247523Y-108735809D01*
X139342761Y-108783428D01*
X139533238Y-108783428D01*
X139628476Y-108735809D01*
X139676095Y-108688190D01*
X139723714Y-108592952D01*
G04 #@! TO.C,1k1*
X116895523Y-96338380D02*
X116562190Y-95862190D01*
X116324095Y-96338380D02*
X116324095Y-95338380D01*
X116705047Y-95338380D01*
X116800285Y-95386000D01*
X116847904Y-95433619D01*
X116895523Y-95528857D01*
X116895523Y-95671714D01*
X116847904Y-95766952D01*
X116800285Y-95814571D01*
X116705047Y-95862190D01*
X116324095Y-95862190D01*
X115990761Y-99258380D02*
X115419333Y-99258380D01*
X115705047Y-99258380D02*
X115705047Y-98258380D01*
X115609809Y-98401238D01*
X115514571Y-98496476D01*
X115419333Y-98544095D01*
X116419333Y-99258380D02*
X116419333Y-98258380D01*
X116514571Y-98877428D02*
X116800285Y-99258380D01*
X116800285Y-98591714D02*
X116419333Y-98972666D01*
X117752666Y-99258380D02*
X117181238Y-99258380D01*
X117466952Y-99258380D02*
X117466952Y-98258380D01*
X117371714Y-98401238D01*
X117276476Y-98496476D01*
X117181238Y-98544095D01*
G04 #@! TO.C,R2*
X122967904Y-62411619D02*
X123015523Y-62364000D01*
X123110761Y-62316380D01*
X123348857Y-62316380D01*
X123444095Y-62364000D01*
X123491714Y-62411619D01*
X123539333Y-62506857D01*
X123539333Y-62602095D01*
X123491714Y-62744952D01*
X122920285Y-63316380D01*
X123539333Y-63316380D01*
X123872666Y-62316380D02*
X124539333Y-62316380D01*
X124110761Y-63316380D01*
X125110761Y-62316380D02*
X125206000Y-62316380D01*
X125301238Y-62364000D01*
X125348857Y-62411619D01*
X125396476Y-62506857D01*
X125444095Y-62697333D01*
X125444095Y-62935428D01*
X125396476Y-63125904D01*
X125348857Y-63221142D01*
X125301238Y-63268761D01*
X125206000Y-63316380D01*
X125110761Y-63316380D01*
X125015523Y-63268761D01*
X124967904Y-63221142D01*
X124920285Y-63125904D01*
X124872666Y-62935428D01*
X124872666Y-62697333D01*
X124920285Y-62506857D01*
X124967904Y-62411619D01*
X125015523Y-62364000D01*
X125110761Y-62316380D01*
X124039333Y-60396380D02*
X123706000Y-59920190D01*
X123467904Y-60396380D02*
X123467904Y-59396380D01*
X123848857Y-59396380D01*
X123944095Y-59444000D01*
X123991714Y-59491619D01*
X124039333Y-59586857D01*
X124039333Y-59729714D01*
X123991714Y-59824952D01*
X123944095Y-59872571D01*
X123848857Y-59920190D01*
X123467904Y-59920190D01*
X124420285Y-59491619D02*
X124467904Y-59444000D01*
X124563142Y-59396380D01*
X124801238Y-59396380D01*
X124896476Y-59444000D01*
X124944095Y-59491619D01*
X124991714Y-59586857D01*
X124991714Y-59682095D01*
X124944095Y-59824952D01*
X124372666Y-60396380D01*
X124991714Y-60396380D01*
G04 #@! TO.C,R3*
X137699904Y-116005619D02*
X137747523Y-115958000D01*
X137842761Y-115910380D01*
X138080857Y-115910380D01*
X138176095Y-115958000D01*
X138223714Y-116005619D01*
X138271333Y-116100857D01*
X138271333Y-116196095D01*
X138223714Y-116338952D01*
X137652285Y-116910380D01*
X138271333Y-116910380D01*
X138604666Y-115910380D02*
X139271333Y-115910380D01*
X138842761Y-116910380D01*
X139842761Y-115910380D02*
X139938000Y-115910380D01*
X140033238Y-115958000D01*
X140080857Y-116005619D01*
X140128476Y-116100857D01*
X140176095Y-116291333D01*
X140176095Y-116529428D01*
X140128476Y-116719904D01*
X140080857Y-116815142D01*
X140033238Y-116862761D01*
X139938000Y-116910380D01*
X139842761Y-116910380D01*
X139747523Y-116862761D01*
X139699904Y-116815142D01*
X139652285Y-116719904D01*
X139604666Y-116529428D01*
X139604666Y-116291333D01*
X139652285Y-116100857D01*
X139699904Y-116005619D01*
X139747523Y-115958000D01*
X139842761Y-115910380D01*
X138771333Y-113990380D02*
X138438000Y-113514190D01*
X138199904Y-113990380D02*
X138199904Y-112990380D01*
X138580857Y-112990380D01*
X138676095Y-113038000D01*
X138723714Y-113085619D01*
X138771333Y-113180857D01*
X138771333Y-113323714D01*
X138723714Y-113418952D01*
X138676095Y-113466571D01*
X138580857Y-113514190D01*
X138199904Y-113514190D01*
X139104666Y-112990380D02*
X139723714Y-112990380D01*
X139390380Y-113371333D01*
X139533238Y-113371333D01*
X139628476Y-113418952D01*
X139676095Y-113466571D01*
X139723714Y-113561809D01*
X139723714Y-113799904D01*
X139676095Y-113895142D01*
X139628476Y-113942761D01*
X139533238Y-113990380D01*
X139247523Y-113990380D01*
X139152285Y-113942761D01*
X139104666Y-113895142D01*
G04 #@! TO.C,REF\002A\002A*
X109202666Y-129738380D02*
X108869333Y-129262190D01*
X108631238Y-129738380D02*
X108631238Y-128738380D01*
X109012190Y-128738380D01*
X109107428Y-128786000D01*
X109155047Y-128833619D01*
X109202666Y-128928857D01*
X109202666Y-129071714D01*
X109155047Y-129166952D01*
X109107428Y-129214571D01*
X109012190Y-129262190D01*
X108631238Y-129262190D01*
X109631238Y-129214571D02*
X109964571Y-129214571D01*
X110107428Y-129738380D02*
X109631238Y-129738380D01*
X109631238Y-128738380D01*
X110107428Y-128738380D01*
X110869333Y-129214571D02*
X110536000Y-129214571D01*
X110536000Y-129738380D02*
X110536000Y-128738380D01*
X111012190Y-128738380D01*
X111536000Y-128738380D02*
X111536000Y-128976476D01*
X111297904Y-128881238D02*
X111536000Y-128976476D01*
X111774095Y-128881238D01*
X111393142Y-129166952D02*
X111536000Y-128976476D01*
X111678857Y-129166952D01*
X112297904Y-128738380D02*
X112297904Y-128976476D01*
X112059809Y-128881238D02*
X112297904Y-128976476D01*
X112536000Y-128881238D01*
X112155047Y-129166952D02*
X112297904Y-128976476D01*
X112440761Y-129166952D01*
G04 #@! TD*
M02*
